<svg id="svg" version="1.1" xmlns="http://www.w3.org/2000/svg" xmlns:xlink="http://www.w3.org/1999/xlink" width="400" height="400" viewBox="0, 0, 400,400"><g id="svgg"><path id="path0" d="" stroke="none" fill="#040404" fill-rule="evenodd"></path><path id="path1" d="M5.600 0.392 C 5.600 0.608,5.105 0.909,4.501 1.061 C 3.092 1.414,1.414 3.092,1.061 4.501 C 0.909 5.105,0.608 5.600,0.392 5.600 C -0.170 5.600,-0.145 113.695,0.418 114.258 C 0.647 114.487,0.996 115.918,1.191 117.438 C 1.865 122.669,3.504 127.399,6.014 131.357 C 6.666 132.386,7.200 133.324,7.200 133.442 C 7.200 133.561,7.425 133.886,7.700 134.165 C 7.975 134.445,8.650 135.268,9.200 135.996 C 10.699 137.979,12.043 139.322,13.600 140.396 C 14.370 140.928,15.270 141.642,15.600 141.984 C 15.930 142.326,16.709 142.867,17.331 143.187 C 18.912 144.000,19.339 145.003,19.021 147.160 C 18.872 148.172,18.572 153.140,18.354 158.200 C 17.945 167.686,17.489 177.605,16.791 192.200 C 16.570 196.820,16.210 204.380,15.990 209.000 C 15.771 213.620,15.417 221.000,15.204 225.400 C 14.991 229.800,14.628 237.360,14.398 242.200 C 14.167 247.040,13.808 254.510,13.600 258.800 C 13.392 263.090,13.031 270.560,12.799 275.400 C 12.115 289.675,11.615 300.077,11.203 308.600 C 10.748 318.011,10.125 331.091,9.611 342.000 C 8.421 367.263,8.321 377.200,9.255 377.200 C 9.445 377.200,9.600 377.652,9.600 378.205 C 9.600 378.758,9.764 379.523,9.965 379.905 C 10.166 380.287,10.809 381.634,11.394 382.899 C 14.128 388.808,18.527 393.230,24.600 396.175 C 28.376 398.006,28.990 398.197,33.200 398.850 C 34.630 399.072,35.971 399.421,36.180 399.627 C 36.672 400.110,38.684 400.111,38.983 399.628 C 39.109 399.423,40.245 399.138,41.506 398.993 C 44.981 398.594,53.486 395.331,54.397 394.048 C 54.509 393.890,55.230 393.324,56.000 392.789 C 57.763 391.566,58.757 390.573,59.996 388.800 C 60.534 388.030,61.160 387.203,61.387 386.961 C 61.836 386.484,64.376 381.495,64.829 380.200 C 66.248 376.141,66.942 371.484,66.632 368.089 C 66.477 366.390,66.180 361.220,65.971 356.600 C 65.762 351.980,65.422 344.600,65.215 340.200 C 65.008 335.800,64.652 328.150,64.425 323.200 C 64.197 318.250,63.829 310.420,63.607 305.800 C 63.384 301.180,62.926 291.190,62.588 283.600 C 61.977 269.864,61.533 260.201,60.775 244.200 C 60.556 239.580,60.192 231.750,59.966 226.800 C 59.210 210.270,58.406 193.175,57.605 176.600 C 57.392 172.200,57.042 164.820,56.827 160.200 C 56.612 155.580,56.318 150.203,56.175 148.251 C 55.910 144.647,56.656 142.800,58.376 142.800 C 58.806 142.800,60.819 141.042,63.874 138.000 C 65.839 136.043,69.200 131.552,69.200 130.883 C 69.200 130.654,69.335 130.407,69.500 130.333 C 69.665 130.260,70.225 129.300,70.744 128.200 C 71.263 127.100,71.848 125.887,72.044 125.505 C 72.240 125.123,72.400 124.459,72.400 124.029 C 72.400 123.599,72.580 123.136,72.800 123.000 C 73.020 122.864,73.200 122.234,73.200 121.600 C 73.200 120.966,73.355 120.352,73.544 120.235 C 74.509 119.638,75.168 8.737,74.229 4.911 C 73.601 2.354,69.052 -0.709,67.776 0.567 C 67.428 0.915,66.916 1.200,66.638 1.200 C 65.781 1.200,63.950 3.330,63.367 5.006 C 62.908 6.324,62.811 13.642,62.806 47.300 L 62.800 88.000 53.243 88.000 C 44.897 88.000,43.655 87.920,43.443 87.367 C 43.309 87.019,43.198 68.704,43.196 46.667 C 43.193 24.630,43.080 5.926,42.944 5.103 C 42.505 2.450,37.943 -0.800,36.576 0.567 C 36.228 0.915,35.718 1.200,35.443 1.200 C 34.588 1.200,32.532 3.341,32.178 4.600 C 31.993 5.260,31.742 24.250,31.621 46.800 L 31.400 87.800 21.800 87.800 L 12.200 87.800 12.000 45.922 L 11.800 4.044 10.422 2.622 C 9.663 1.840,8.740 1.200,8.371 1.200 C 8.001 1.200,7.474 0.930,7.200 0.600 C 6.641 -0.074,5.600 -0.209,5.600 0.392 M393.200 0.389 C 393.200 0.602,392.676 0.917,392.034 1.089 C 389.085 1.877,378.187 11.635,370.691 20.200 C 366.647 24.821,366.289 25.251,365.206 26.800 C 364.667 27.570,364.002 28.432,363.727 28.715 C 363.453 28.998,362.913 29.763,362.528 30.415 C 362.143 31.067,361.686 31.600,361.514 31.600 C 361.341 31.600,361.200 31.836,361.200 32.125 C 361.200 32.413,360.840 33.036,360.400 33.508 C 359.960 33.980,359.600 34.554,359.600 34.783 C 359.600 35.012,359.420 35.200,359.200 35.200 C 358.980 35.200,358.800 35.374,358.800 35.587 C 358.800 35.799,358.069 37.104,357.175 38.487 C 355.767 40.665,349.342 53.342,348.349 55.900 C 348.157 56.395,347.844 57.205,347.654 57.700 C 347.076 59.201,346.327 60.960,345.953 61.695 C 345.759 62.077,345.600 62.741,345.600 63.171 C 345.600 63.601,345.420 64.064,345.200 64.200 C 344.980 64.336,344.800 64.876,344.800 65.400 C 344.800 65.924,344.620 66.464,344.400 66.600 C 344.180 66.736,344.000 67.276,344.000 67.800 C 344.000 68.324,343.820 68.864,343.600 69.000 C 343.380 69.136,343.200 69.766,343.200 70.400 C 343.200 71.034,343.020 71.664,342.800 71.800 C 342.580 71.936,342.400 72.566,342.400 73.200 C 342.400 73.834,342.220 74.464,342.000 74.600 C 341.780 74.736,341.600 75.521,341.600 76.344 C 341.600 77.167,341.438 78.011,341.241 78.220 C 341.044 78.429,340.782 79.320,340.660 80.200 C 340.538 81.080,340.251 82.970,340.023 84.400 C 338.226 95.661,338.278 93.348,338.110 170.000 C 338.023 209.930,338.065 243.373,338.203 244.317 C 338.719 247.844,340.641 249.100,346.200 249.544 L 349.400 249.800 349.325 252.600 C 349.283 254.140,349.054 257.740,348.816 260.600 C 348.381 265.819,347.966 270.932,347.189 280.600 C 346.960 283.460,346.596 287.960,346.382 290.600 C 346.168 293.240,345.817 297.560,345.604 300.200 C 344.746 310.801,344.355 315.609,343.993 320.000 C 343.784 322.530,343.424 326.940,343.193 329.800 C 342.961 332.660,342.596 337.160,342.382 339.800 C 342.168 342.440,341.830 346.760,341.632 349.400 C 341.434 352.040,341.049 356.720,340.776 359.800 C 340.002 368.523,340.213 376.692,341.241 377.780 C 341.438 377.989,341.600 378.563,341.600 379.056 C 341.600 379.549,341.780 380.064,342.000 380.200 C 342.220 380.336,342.400 380.797,342.400 381.224 C 342.400 381.651,342.580 382.000,342.800 382.000 C 343.020 382.000,343.200 382.360,343.200 382.800 C 343.200 383.240,343.346 383.600,343.525 383.600 C 343.704 383.600,344.098 384.230,344.400 385.000 C 344.702 385.770,345.057 386.400,345.188 386.400 C 345.320 386.400,345.740 386.929,346.122 387.576 C 349.254 392.878,358.210 398.099,365.694 398.985 C 366.955 399.134,368.091 399.423,368.217 399.628 C 368.521 400.119,370.933 400.107,371.429 399.611 C 371.642 399.398,372.983 399.054,374.409 398.848 C 378.235 398.296,384.501 395.944,385.929 394.526 C 386.219 394.236,386.622 394.000,386.823 394.000 C 387.300 394.000,394.000 387.300,394.000 386.823 C 394.000 386.622,394.236 386.219,394.526 385.929 C 395.944 384.501,398.296 378.235,398.848 374.409 C 399.054 372.983,399.398 371.642,399.611 371.429 C 400.335 370.705,400.124 6.067,399.400 5.343 C 399.070 5.013,398.800 4.425,398.800 4.038 C 398.800 3.137,396.867 1.404,395.473 1.054 C 394.883 0.906,394.400 0.608,394.400 0.392 C 394.400 0.177,394.130 0.000,393.800 0.000 C 393.470 0.000,393.200 0.175,393.200 0.389 M387.800 128.633 L 387.800 237.800 368.800 237.800 L 349.800 237.800 349.814 166.200 C 349.824 111.573,349.944 93.794,350.321 91.200 C 350.593 89.330,350.912 86.990,351.030 86.000 C 351.149 85.010,351.404 83.840,351.598 83.400 C 351.792 82.960,352.057 81.880,352.187 81.000 C 352.668 77.747,352.897 76.787,353.244 76.573 C 353.440 76.452,353.600 75.744,353.600 75.000 C 353.600 74.256,353.780 73.536,354.000 73.400 C 354.220 73.264,354.400 72.724,354.400 72.200 C 354.400 71.676,354.580 71.136,354.800 71.000 C 355.020 70.864,355.200 70.324,355.200 69.800 C 355.200 69.276,355.380 68.736,355.600 68.600 C 355.820 68.464,356.000 67.924,356.000 67.400 C 356.000 66.876,356.180 66.336,356.400 66.200 C 356.620 66.064,356.800 65.513,356.800 64.976 C 356.800 64.439,356.980 64.000,357.200 64.000 C 357.420 64.000,357.600 63.550,357.600 63.000 C 357.600 62.450,357.780 62.000,358.000 62.000 C 358.220 62.000,358.400 61.550,358.400 61.000 C 358.400 60.450,358.580 60.000,358.800 60.000 C 359.020 60.000,359.200 59.640,359.200 59.200 C 359.200 58.760,359.380 58.400,359.600 58.400 C 359.820 58.400,360.000 58.126,360.000 57.792 C 360.000 57.028,362.658 51.495,364.801 47.800 C 365.693 46.260,366.530 44.685,366.659 44.300 C 366.788 43.915,367.052 43.600,367.247 43.600 C 367.441 43.600,367.600 43.364,367.600 43.075 C 367.600 42.787,367.915 42.202,368.300 41.775 C 368.685 41.349,369.255 40.505,369.568 39.900 C 369.880 39.295,370.285 38.800,370.468 38.800 C 370.650 38.800,370.800 38.564,370.800 38.275 C 370.800 37.987,371.120 37.402,371.511 36.975 C 371.902 36.549,372.661 35.570,373.198 34.800 C 373.734 34.030,374.360 33.195,374.587 32.945 C 374.814 32.694,375.347 32.064,375.771 31.545 C 380.591 25.636,386.778 19.126,387.381 19.327 C 387.672 19.424,387.800 52.941,387.800 128.633 M197.800 75.623 C 196.700 75.792,193.606 75.946,190.924 75.965 C 188.144 75.985,185.941 76.172,185.800 76.400 C 185.664 76.620,184.404 76.800,183.000 76.800 C 181.596 76.800,180.336 76.980,180.200 77.200 C 180.064 77.420,179.074 77.600,178.000 77.600 C 176.926 77.600,175.936 77.780,175.800 78.000 C 175.664 78.220,174.854 78.400,174.000 78.400 C 173.146 78.400,172.336 78.580,172.200 78.800 C 172.064 79.020,171.254 79.200,170.400 79.200 C 169.546 79.200,168.736 79.380,168.600 79.600 C 168.464 79.820,167.911 80.000,167.371 80.000 C 166.831 80.000,166.077 80.162,165.695 80.359 C 165.313 80.556,163.650 81.129,162.000 81.631 C 160.350 82.133,158.829 82.692,158.620 82.872 C 158.411 83.052,157.914 83.200,157.515 83.200 C 157.116 83.200,156.477 83.359,156.095 83.553 C 155.713 83.748,154.950 84.089,154.400 84.313 C 147.686 87.038,137.187 92.180,136.867 92.900 C 136.793 93.065,136.561 93.200,136.351 93.200 C 135.929 93.200,128.912 97.840,128.071 98.675 C 127.781 98.964,127.400 99.200,127.226 99.200 C 127.051 99.200,126.299 99.737,125.554 100.394 C 124.809 101.050,124.078 101.590,123.929 101.594 C 123.779 101.597,123.419 101.827,123.129 102.104 C 122.838 102.382,121.521 103.507,120.202 104.604 C 117.104 107.182,107.182 117.104,104.604 120.202 C 103.507 121.521,102.382 122.838,102.104 123.129 C 101.827 123.419,101.600 123.781,101.600 123.933 C 101.600 124.084,101.191 124.656,100.691 125.204 C 99.444 126.571,93.200 135.852,93.200 136.339 C 93.200 136.556,93.065 136.793,92.900 136.867 C 92.180 137.187,87.038 147.686,84.313 154.400 C 84.089 154.950,83.748 155.713,83.553 156.095 C 83.359 156.477,83.200 157.116,83.200 157.515 C 83.200 157.914,83.052 158.411,82.872 158.620 C 82.692 158.829,82.133 160.350,81.631 162.000 C 81.129 163.650,80.556 165.313,80.359 165.695 C 80.162 166.077,80.000 166.831,80.000 167.371 C 80.000 167.911,79.820 168.464,79.600 168.600 C 79.380 168.736,79.200 169.546,79.200 170.400 C 79.200 171.254,79.020 172.064,78.800 172.200 C 78.580 172.336,78.400 173.146,78.400 174.000 C 78.400 174.854,78.220 175.664,78.000 175.800 C 77.780 175.936,77.600 176.926,77.600 178.000 C 77.600 179.074,77.420 180.064,77.200 180.200 C 76.980 180.336,76.800 181.596,76.800 183.000 C 76.800 184.404,76.645 185.648,76.456 185.765 C 76.194 185.927,75.590 195.568,75.563 200.000 C 75.542 203.616,76.137 213.583,76.411 214.200 C 76.607 214.640,76.857 216.080,76.968 217.400 C 77.319 221.588,77.667 223.789,78.039 224.180 C 78.237 224.389,78.400 225.323,78.400 226.256 C 78.400 227.189,78.580 228.064,78.800 228.200 C 79.020 228.336,79.200 229.056,79.200 229.800 C 79.200 230.544,79.380 231.264,79.600 231.400 C 79.820 231.536,80.000 232.089,80.000 232.629 C 80.000 233.169,80.162 233.923,80.361 234.305 C 80.560 234.687,80.940 235.810,81.207 236.800 C 81.703 238.644,82.222 240.067,82.847 241.295 C 83.041 241.677,83.200 242.264,83.200 242.600 C 83.200 242.936,83.359 243.523,83.553 243.905 C 83.748 244.287,84.089 245.050,84.313 245.600 C 86.016 249.796,88.332 254.931,89.636 257.400 C 90.217 258.500,91.122 260.210,91.646 261.200 C 92.171 262.190,92.735 263.060,92.900 263.133 C 93.065 263.207,93.200 263.444,93.200 263.661 C 93.200 264.148,99.444 273.429,100.691 274.796 C 101.191 275.344,101.600 275.916,101.600 276.067 C 101.600 276.219,101.827 276.581,102.104 276.871 C 102.382 277.162,103.502 278.480,104.593 279.800 C 106.962 282.664,118.013 293.766,120.000 295.278 C 120.770 295.864,121.923 296.806,122.562 297.371 C 123.201 297.937,123.833 298.400,123.966 298.400 C 124.099 298.400,124.656 298.809,125.204 299.309 C 126.571 300.556,135.852 306.800,136.339 306.800 C 136.556 306.800,136.793 306.935,136.867 307.100 C 136.940 307.265,137.810 307.831,138.800 308.357 C 143.741 310.983,146.397 312.311,148.400 313.155 C 149.610 313.666,151.230 314.353,152.000 314.682 C 152.770 315.012,153.850 315.464,154.400 315.687 C 154.950 315.911,155.713 316.252,156.095 316.447 C 156.477 316.641,157.116 316.800,157.515 316.800 C 157.914 316.800,158.411 316.948,158.620 317.128 C 158.829 317.308,160.350 317.867,162.000 318.369 C 163.650 318.871,165.313 319.444,165.695 319.641 C 166.077 319.838,166.831 320.000,167.371 320.000 C 167.911 320.000,168.464 320.180,168.600 320.400 C 168.736 320.620,169.546 320.800,170.400 320.800 C 171.254 320.800,172.052 320.961,172.174 321.158 C 172.395 321.516,174.046 321.837,177.800 322.252 C 178.900 322.374,179.971 322.637,180.180 322.837 C 180.389 323.037,181.658 323.200,183.000 323.200 C 184.342 323.200,185.611 323.360,185.820 323.556 C 186.888 324.555,211.970 324.586,214.200 323.590 C 214.640 323.394,216.080 323.148,217.400 323.043 C 218.720 322.938,220.880 322.654,222.200 322.411 C 223.520 322.168,225.320 321.867,226.200 321.743 C 227.080 321.619,227.971 321.356,228.180 321.159 C 228.389 320.962,229.143 320.800,229.856 320.800 C 230.569 320.800,231.264 320.620,231.400 320.400 C 231.536 320.180,232.089 320.000,232.629 320.000 C 233.169 320.000,233.923 319.838,234.305 319.639 C 234.687 319.440,235.810 319.060,236.800 318.793 C 237.790 318.527,238.960 318.167,239.400 317.995 C 239.840 317.822,240.830 317.464,241.600 317.200 C 243.723 316.471,244.932 315.996,248.000 314.682 C 248.770 314.353,250.390 313.667,251.600 313.158 C 252.810 312.649,254.763 311.731,255.941 311.117 C 257.118 310.502,258.318 310.000,258.607 310.000 C 258.897 310.000,259.193 309.865,259.267 309.700 C 259.434 309.324,261.564 308.025,262.500 307.729 C 262.885 307.607,263.200 307.348,263.200 307.153 C 263.200 306.959,263.392 306.800,263.627 306.800 C 264.139 306.800,273.377 300.604,274.796 299.309 C 275.344 298.809,275.901 298.400,276.034 298.400 C 276.167 298.400,276.799 297.937,277.438 297.371 C 278.077 296.806,279.230 295.867,280.000 295.286 C 281.819 293.913,293.913 281.819,295.286 280.000 C 295.867 279.230,296.806 278.077,297.371 277.438 C 297.937 276.799,298.400 276.167,298.400 276.034 C 298.400 275.901,298.809 275.344,299.309 274.796 C 300.604 273.377,306.800 264.139,306.800 263.627 C 306.800 263.392,306.946 263.200,307.125 263.200 C 307.304 263.200,307.698 262.570,308.000 261.800 C 308.302 261.030,308.696 260.400,308.875 260.400 C 309.054 260.400,309.200 260.130,309.200 259.800 C 309.200 259.470,309.380 259.200,309.600 259.200 C 309.820 259.200,310.000 258.948,310.000 258.641 C 310.000 258.333,310.502 257.118,311.117 255.941 C 311.731 254.763,312.649 252.810,313.158 251.600 C 313.667 250.390,314.353 248.770,314.682 248.000 C 315.996 244.932,316.471 243.723,317.200 241.600 C 317.464 240.830,317.822 239.840,317.995 239.400 C 318.167 238.960,318.527 237.790,318.793 236.800 C 319.060 235.810,319.440 234.687,319.639 234.305 C 319.838 233.923,320.000 233.169,320.000 232.629 C 320.000 232.089,320.180 231.536,320.400 231.400 C 320.620 231.264,320.800 230.569,320.800 229.856 C 320.800 229.143,320.962 228.389,321.159 228.180 C 321.356 227.971,321.619 227.080,321.743 226.200 C 321.867 225.320,322.168 223.520,322.411 222.200 C 322.654 220.880,322.938 218.720,323.043 217.400 C 323.148 216.080,323.392 214.640,323.587 214.200 C 324.733 211.603,324.008 181.502,322.768 180.220 C 322.565 180.011,322.400 178.987,322.400 177.944 C 322.400 176.901,322.220 175.936,322.000 175.800 C 321.780 175.664,321.600 174.854,321.600 174.000 C 321.600 173.146,321.420 172.336,321.200 172.200 C 320.980 172.064,320.800 171.344,320.800 170.600 C 320.800 169.856,320.620 169.136,320.400 169.000 C 320.180 168.864,320.000 168.371,320.000 167.905 C 320.000 167.125,319.534 165.392,318.790 163.400 C 318.626 162.960,318.259 161.790,317.976 160.800 C 317.693 159.810,317.312 158.829,317.130 158.620 C 316.949 158.411,316.800 157.862,316.800 157.400 C 316.800 156.938,316.651 156.389,316.469 156.180 C 316.288 155.971,315.448 154.090,314.603 152.000 C 312.593 147.029,308.685 139.018,307.968 138.400 C 307.840 138.290,307.481 137.615,307.170 136.900 C 306.859 136.185,306.469 135.600,306.302 135.600 C 306.136 135.600,306.000 135.330,306.000 135.000 C 306.000 134.670,305.820 134.400,305.600 134.400 C 305.380 134.400,305.200 134.210,305.200 133.978 C 305.200 133.584,302.534 129.460,301.359 128.038 C 301.069 127.687,299.960 126.208,298.894 124.750 C 295.149 119.633,284.544 108.374,280.800 105.541 C 280.030 104.958,279.040 104.146,278.600 103.735 C 278.160 103.325,276.630 102.127,275.200 101.072 C 273.770 100.018,272.313 98.921,271.962 98.635 C 270.488 97.432,266.411 94.800,266.022 94.800 C 265.790 94.800,265.600 94.620,265.600 94.400 C 265.600 94.180,265.330 94.000,265.000 94.000 C 264.670 94.000,264.400 93.820,264.400 93.600 C 264.400 93.380,264.130 93.200,263.800 93.200 C 263.470 93.200,263.200 93.020,263.200 92.800 C 263.200 92.580,262.855 92.400,262.433 92.400 C 262.012 92.400,261.607 92.239,261.533 92.043 C 261.460 91.847,258.520 90.302,255.000 88.610 C 251.480 86.918,248.287 85.369,247.905 85.167 C 247.523 84.965,247.020 84.800,246.786 84.800 C 246.552 84.800,245.616 84.440,244.706 84.000 C 243.795 83.560,242.734 83.200,242.348 83.200 C 241.963 83.200,241.536 83.020,241.400 82.800 C 241.264 82.580,240.724 82.400,240.200 82.400 C 239.676 82.400,239.136 82.220,239.000 82.000 C 238.864 81.780,238.401 81.600,237.971 81.600 C 237.541 81.600,236.877 81.442,236.495 81.249 C 235.339 80.665,232.996 80.000,232.095 80.000 C 231.629 80.000,231.136 79.820,231.000 79.600 C 230.864 79.380,230.144 79.200,229.400 79.200 C 228.656 79.200,227.936 79.020,227.800 78.800 C 227.664 78.580,226.854 78.400,226.000 78.400 C 225.146 78.400,224.336 78.220,224.200 78.000 C 224.064 77.780,223.099 77.600,222.056 77.600 C 221.013 77.600,219.989 77.435,219.780 77.232 C 219.353 76.820,216.638 76.557,207.589 76.055 C 204.173 75.865,201.023 75.622,200.589 75.513 C 200.155 75.405,198.900 75.455,197.800 75.623 M215.400 87.801 C 216.940 87.946,218.371 88.230,218.580 88.432 C 218.789 88.635,219.698 88.800,220.600 88.800 C 221.502 88.800,222.411 88.962,222.620 89.159 C 222.829 89.356,223.720 89.620,224.600 89.744 C 227.989 90.222,229.215 90.501,229.427 90.844 C 229.548 91.040,230.166 91.200,230.800 91.200 C 231.434 91.200,232.064 91.380,232.200 91.600 C 232.336 91.820,232.889 92.000,233.429 92.000 C 233.969 92.000,234.723 92.174,235.105 92.387 C 235.487 92.600,236.691 93.061,237.780 93.410 C 242.923 95.059,255.838 101.038,257.200 102.400 C 257.310 102.510,257.760 102.797,258.200 103.038 C 260.211 104.137,261.015 104.649,261.755 105.300 C 262.193 105.685,262.787 106.000,263.075 106.000 C 263.364 106.000,263.600 106.138,263.600 106.306 C 263.600 106.474,264.320 107.056,265.200 107.600 C 266.080 108.144,266.800 108.726,266.800 108.894 C 266.800 109.062,266.993 109.200,267.229 109.200 C 267.464 109.200,267.894 109.425,268.184 109.700 C 268.939 110.417,270.063 111.322,271.086 112.037 C 276.006 115.475,290.800 131.044,290.800 132.784 C 290.800 133.013,290.938 133.200,291.106 133.200 C 291.274 133.200,291.856 133.920,292.400 134.800 C 292.944 135.680,293.526 136.400,293.694 136.400 C 293.862 136.400,294.000 136.636,294.000 136.925 C 294.000 137.213,294.315 137.807,294.700 138.245 C 295.085 138.683,295.597 139.392,295.838 139.820 C 296.078 140.249,296.528 141.050,296.838 141.600 C 297.147 142.150,297.490 142.690,297.600 142.800 C 298.962 144.162,304.941 157.077,306.590 162.220 C 306.939 163.309,307.400 164.513,307.613 164.895 C 307.826 165.277,308.000 166.031,308.000 166.571 C 308.000 167.111,308.180 167.664,308.400 167.800 C 308.620 167.936,308.800 168.566,308.800 169.200 C 308.800 169.834,308.980 170.464,309.200 170.600 C 309.420 170.736,309.600 171.456,309.600 172.200 C 309.600 172.944,309.780 173.664,310.000 173.800 C 310.220 173.936,310.400 174.757,310.400 175.624 C 310.400 176.491,310.580 177.200,310.800 177.200 C 311.020 177.200,311.200 178.064,311.200 179.120 C 311.200 180.176,311.365 181.211,311.568 181.420 C 312.531 182.416,312.927 209.903,312.057 215.400 C 311.814 216.940,311.504 219.100,311.368 220.200 C 311.233 221.300,310.960 222.371,310.761 222.580 C 310.563 222.789,310.400 223.633,310.400 224.456 C 310.400 225.279,310.220 226.064,310.000 226.200 C 309.780 226.336,309.600 227.056,309.600 227.800 C 309.600 228.544,309.420 229.264,309.200 229.400 C 308.980 229.536,308.800 230.089,308.800 230.629 C 308.800 231.169,308.637 231.923,308.439 232.305 C 308.240 232.687,307.612 234.492,307.042 236.316 C 305.171 242.314,299.129 255.675,297.599 257.200 C 297.489 257.310,297.144 257.895,296.832 258.500 C 296.520 259.105,296.115 259.600,295.932 259.600 C 295.750 259.600,295.600 259.960,295.600 260.400 C 295.600 260.840,295.450 261.200,295.268 261.200 C 295.085 261.200,294.681 261.695,294.370 262.300 C 294.060 262.905,293.489 263.691,293.103 264.047 C 292.716 264.403,292.400 264.864,292.400 265.071 C 292.400 265.279,292.083 265.798,291.696 266.225 C 291.308 266.651,289.919 268.440,288.609 270.200 C 285.535 274.328,274.328 285.535,270.200 288.609 C 268.440 289.919,266.651 291.308,266.225 291.696 C 265.798 292.083,265.279 292.400,265.071 292.400 C 264.864 292.400,264.403 292.716,264.047 293.103 C 263.691 293.489,262.905 294.060,262.300 294.370 C 261.695 294.681,261.200 295.085,261.200 295.268 C 261.200 295.450,260.840 295.600,260.400 295.600 C 259.960 295.600,259.600 295.750,259.600 295.932 C 259.600 296.115,259.105 296.520,258.500 296.832 C 257.895 297.144,257.310 297.489,257.200 297.599 C 255.675 299.129,242.314 305.171,236.316 307.042 C 234.492 307.612,232.687 308.240,232.305 308.439 C 231.923 308.637,231.169 308.800,230.629 308.800 C 230.089 308.800,229.536 308.980,229.400 309.200 C 229.264 309.420,228.544 309.600,227.800 309.600 C 227.056 309.600,226.336 309.780,226.200 310.000 C 226.064 310.220,225.279 310.400,224.456 310.400 C 223.633 310.400,222.789 310.563,222.580 310.761 C 222.371 310.960,221.300 311.233,220.200 311.368 C 219.100 311.504,216.940 311.814,215.400 312.057 C 209.903 312.927,182.416 312.531,181.420 311.568 C 181.211 311.365,180.176 311.200,179.120 311.200 C 178.064 311.200,177.200 311.020,177.200 310.800 C 177.200 310.580,176.491 310.400,175.624 310.400 C 174.757 310.400,173.936 310.220,173.800 310.000 C 173.664 309.780,172.944 309.600,172.200 309.600 C 171.456 309.600,170.736 309.420,170.600 309.200 C 170.464 308.980,169.834 308.800,169.200 308.800 C 168.566 308.800,167.936 308.620,167.800 308.400 C 167.664 308.180,167.111 308.000,166.571 308.000 C 166.031 308.000,165.277 307.826,164.895 307.613 C 164.513 307.400,163.311 306.940,162.224 306.591 C 157.189 304.977,144.133 298.933,142.800 297.600 C 142.690 297.490,142.195 297.175,141.700 296.900 C 139.465 295.659,138.992 295.357,138.245 294.700 C 137.807 294.315,137.213 294.000,136.925 294.000 C 136.636 294.000,136.400 293.862,136.400 293.694 C 136.400 293.526,135.680 292.944,134.800 292.400 C 133.920 291.856,133.200 291.274,133.200 291.106 C 133.200 290.938,132.945 290.800,132.633 290.800 C 132.322 290.800,132.007 290.657,131.933 290.482 C 131.860 290.307,130.900 289.485,129.800 288.655 C 124.445 284.616,114.786 275.059,112.044 271.086 C 111.708 270.599,111.245 269.995,111.016 269.745 C 109.866 268.487,109.200 267.552,109.200 267.195 C 109.200 266.978,109.062 266.800,108.894 266.800 C 108.726 266.800,108.144 266.080,107.600 265.200 C 107.056 264.320,106.474 263.600,106.306 263.600 C 106.138 263.600,106.000 263.364,106.000 263.075 C 106.000 262.787,105.685 262.193,105.300 261.755 C 104.643 261.008,104.341 260.535,103.100 258.300 C 102.825 257.805,102.510 257.310,102.400 257.200 C 101.038 255.838,95.059 242.923,93.410 237.780 C 93.061 236.691,92.600 235.487,92.387 235.105 C 92.174 234.723,92.000 233.969,92.000 233.429 C 92.000 232.889,91.820 232.336,91.600 232.200 C 91.380 232.064,91.200 231.434,91.200 230.800 C 91.200 230.166,91.040 229.548,90.844 229.427 C 90.501 229.215,90.222 227.989,89.744 224.600 C 89.620 223.720,89.356 222.829,89.159 222.620 C 88.962 222.411,88.800 221.502,88.800 220.600 C 88.800 219.698,88.635 218.789,88.432 218.580 C 87.142 217.247,87.142 182.753,88.432 181.420 C 88.635 181.211,88.800 180.277,88.800 179.344 C 88.800 178.411,88.980 177.536,89.200 177.400 C 89.420 177.264,89.600 176.454,89.600 175.600 C 89.600 174.746,89.780 173.936,90.000 173.800 C 90.220 173.664,90.400 172.944,90.400 172.200 C 90.400 171.456,90.580 170.736,90.800 170.600 C 91.020 170.464,91.200 169.834,91.200 169.200 C 91.200 168.566,91.380 167.936,91.600 167.800 C 91.820 167.664,92.000 167.111,92.000 166.571 C 92.000 166.031,92.174 165.277,92.387 164.895 C 92.600 164.513,93.061 163.309,93.410 162.220 C 95.059 157.077,101.038 144.162,102.400 142.800 C 102.510 142.690,102.825 142.195,103.100 141.700 C 104.341 139.465,104.643 138.992,105.300 138.245 C 105.685 137.807,106.000 137.213,106.000 136.925 C 106.000 136.636,106.138 136.400,106.306 136.400 C 106.474 136.400,107.056 135.680,107.600 134.800 C 108.144 133.920,108.726 133.200,108.894 133.200 C 109.062 133.200,109.200 132.945,109.200 132.633 C 109.200 132.322,109.351 132.007,109.536 131.933 C 109.721 131.860,110.548 130.900,111.374 129.800 C 115.716 124.016,124.016 115.716,129.800 111.374 C 130.900 110.548,131.860 109.721,131.933 109.536 C 132.007 109.351,132.322 109.200,132.633 109.200 C 132.945 109.200,133.200 109.062,133.200 108.894 C 133.200 108.726,133.920 108.144,134.800 107.600 C 135.680 107.056,136.400 106.474,136.400 106.306 C 136.400 106.138,136.636 106.000,136.925 106.000 C 137.213 106.000,137.807 105.685,138.245 105.300 C 138.683 104.915,139.392 104.403,139.820 104.162 C 140.249 103.922,141.050 103.472,141.600 103.162 C 142.150 102.853,142.690 102.510,142.800 102.400 C 143.509 101.691,153.298 96.804,156.173 95.724 C 157.068 95.388,158.340 94.876,159.000 94.587 C 161.033 93.697,163.765 92.812,164.500 92.806 C 164.885 92.803,165.200 92.620,165.200 92.400 C 165.200 92.180,165.729 92.000,166.376 92.000 C 167.023 92.000,167.664 91.820,167.800 91.600 C 167.936 91.380,168.566 91.200,169.200 91.200 C 169.834 91.200,170.464 91.020,170.600 90.800 C 170.736 90.580,171.456 90.400,172.200 90.400 C 172.944 90.400,173.664 90.220,173.800 90.000 C 173.936 89.780,174.746 89.600,175.600 89.600 C 176.454 89.600,177.264 89.420,177.400 89.200 C 177.536 88.980,178.436 88.800,179.400 88.800 C 180.364 88.800,181.264 88.620,181.400 88.400 C 181.536 88.180,182.762 87.997,184.124 87.994 C 185.486 87.991,186.870 87.810,187.200 87.594 C 187.846 87.169,210.463 87.335,215.400 87.801 M62.800 108.976 C 62.800 114.796,62.648 118.447,62.400 118.600 C 62.180 118.736,62.000 119.377,62.000 120.024 C 62.000 120.671,61.820 121.200,61.600 121.200 C 61.380 121.200,61.200 121.453,61.200 121.762 C 61.200 122.428,59.532 125.741,59.100 125.933 C 58.935 126.007,58.800 126.317,58.800 126.624 C 58.800 126.930,57.311 128.674,55.490 130.498 C 48.069 137.936,37.811 140.088,27.900 136.286 C 26.635 135.801,25.600 135.268,25.600 135.102 C 25.600 134.936,25.407 134.800,25.172 134.800 C 21.383 134.800,13.485 124.113,12.419 117.543 C 11.965 114.746,11.840 100.293,12.267 99.867 C 12.413 99.720,23.843 99.600,37.667 99.600 L 62.800 99.600 62.800 108.976 M194.400 100.861 C 182.624 101.699,168.256 105.012,161.505 108.447 C 161.123 108.641,160.538 108.800,160.205 108.800 C 159.872 108.800,159.600 108.980,159.600 109.200 C 159.600 109.420,159.355 109.600,159.056 109.600 C 158.552 109.600,153.648 111.943,153.200 112.398 C 153.090 112.510,152.460 112.865,151.800 113.188 C 151.140 113.511,149.848 114.276,148.928 114.888 C 148.008 115.499,147.146 116.000,147.011 116.000 C 146.876 116.000,146.549 116.185,146.283 116.411 C 146.017 116.636,144.900 117.395,143.800 118.096 C 142.700 118.797,141.710 119.483,141.600 119.621 C 141.490 119.759,140.590 120.454,139.600 121.165 C 138.610 121.876,137.133 123.074,136.317 123.829 C 135.502 124.583,134.735 125.200,134.613 125.200 C 134.324 125.200,125.200 134.324,125.200 134.613 C 125.200 134.735,124.583 135.502,123.829 136.317 C 123.074 137.133,121.876 138.610,121.165 139.600 C 120.454 140.590,119.759 141.490,119.621 141.600 C 119.483 141.710,118.797 142.700,118.096 143.800 C 117.395 144.900,116.636 146.017,116.411 146.283 C 116.185 146.549,116.000 146.876,116.000 147.011 C 116.000 147.146,115.499 148.008,114.888 148.928 C 114.276 149.848,113.511 151.140,113.188 151.800 C 112.865 152.460,112.510 153.090,112.398 153.200 C 111.943 153.648,109.600 158.552,109.600 159.056 C 109.600 159.355,109.420 159.600,109.200 159.600 C 108.980 159.600,108.800 159.872,108.800 160.205 C 108.800 160.538,108.641 161.123,108.447 161.505 C 104.915 168.448,101.648 182.812,100.896 194.700 C 100.118 207.008,102.850 225.304,106.882 234.800 C 107.116 235.350,107.484 236.250,107.700 236.800 C 107.916 237.350,108.252 238.113,108.447 238.495 C 108.641 238.877,108.800 239.462,108.800 239.795 C 108.800 240.128,108.980 240.400,109.200 240.400 C 109.420 240.400,109.599 240.625,109.597 240.900 C 109.593 241.533,112.888 248.154,113.296 248.333 C 113.463 248.407,113.600 248.644,113.600 248.861 C 113.600 249.078,114.140 250.041,114.800 251.000 C 115.460 251.959,116.000 252.854,116.000 252.989 C 116.000 253.124,116.185 253.451,116.411 253.717 C 116.636 253.983,117.395 255.100,118.096 256.200 C 118.797 257.300,119.480 258.290,119.613 258.400 C 119.747 258.510,120.605 259.590,121.521 260.800 C 122.437 262.010,123.684 263.624,124.293 264.387 C 125.613 266.041,134.295 274.800,134.614 274.800 C 134.736 274.800,135.288 275.251,135.839 275.803 C 137.470 277.434,146.457 284.000,147.058 284.000 C 147.167 284.000,148.008 284.501,148.928 285.112 C 149.848 285.724,151.140 286.489,151.800 286.812 C 152.460 287.135,153.090 287.490,153.200 287.602 C 153.648 288.057,158.552 290.400,159.056 290.400 C 159.355 290.400,159.600 290.580,159.600 290.800 C 159.600 291.020,159.872 291.200,160.205 291.200 C 160.538 291.200,161.123 291.359,161.505 291.553 C 162.541 292.080,165.566 293.301,167.400 293.932 C 178.768 297.846,193.854 299.915,205.300 299.132 C 217.279 298.312,230.375 295.466,236.495 292.353 C 236.877 292.159,237.552 292.000,237.995 292.000 C 238.438 292.000,238.800 291.820,238.800 291.600 C 238.800 291.380,239.025 291.201,239.300 291.203 C 239.935 291.206,248.155 287.114,248.333 286.705 C 248.407 286.537,248.644 286.400,248.861 286.400 C 249.078 286.400,250.041 285.860,251.000 285.200 C 251.959 284.540,252.833 284.000,252.942 284.000 C 253.436 284.000,260.633 278.817,264.381 275.761 C 266.022 274.424,274.138 266.233,275.911 264.125 C 278.650 260.868,284.000 253.472,284.000 252.942 C 284.000 252.833,284.540 251.959,285.200 251.000 C 285.860 250.041,286.400 249.078,286.400 248.861 C 286.400 248.644,286.537 248.407,286.704 248.333 C 287.112 248.154,290.407 241.533,290.403 240.900 C 290.401 240.625,290.580 240.400,290.800 240.400 C 291.020 240.400,291.200 240.040,291.200 239.600 C 291.200 239.160,291.380 238.800,291.600 238.800 C 291.820 238.800,292.000 238.438,292.000 237.995 C 292.000 237.552,292.159 236.877,292.353 236.495 C 296.770 227.813,300.025 207.744,299.132 194.700 C 298.319 182.815,295.442 169.577,292.353 163.505 C 292.159 163.123,292.000 162.448,292.000 162.005 C 292.000 161.562,291.820 161.200,291.600 161.200 C 291.380 161.200,291.200 160.840,291.200 160.400 C 291.200 159.960,291.020 159.600,290.800 159.600 C 290.580 159.600,290.400 159.355,290.400 159.055 C 290.400 158.238,286.428 150.700,284.753 148.338 C 284.339 147.754,284.000 147.183,284.000 147.068 C 284.000 146.459,277.451 137.487,275.803 135.839 C 275.251 135.288,274.800 134.733,274.800 134.606 C 274.800 134.350,265.835 125.431,264.377 124.239 C 263.866 123.820,262.357 122.657,261.024 121.654 C 259.691 120.651,258.510 119.734,258.400 119.615 C 258.045 119.231,253.182 116.000,252.960 116.000 C 252.841 116.000,251.959 115.460,251.000 114.800 C 250.041 114.140,249.078 113.600,248.861 113.600 C 248.644 113.600,248.407 113.463,248.333 113.295 C 248.208 113.009,240.343 109.058,238.600 108.406 C 238.160 108.242,237.305 107.903,236.700 107.654 C 236.095 107.404,235.195 107.033,234.700 106.829 C 228.288 104.184,214.968 101.444,206.400 101.006 C 203.870 100.877,201.260 100.711,200.600 100.638 C 199.940 100.565,197.150 100.666,194.400 100.861 M194.119 115.700 C 194.460 122.010,195.941 124.133,200.000 124.133 C 204.072 124.133,205.541 122.013,205.882 115.642 L 206.062 112.285 209.571 112.534 C 217.027 113.063,228.536 116.086,234.738 119.143 C 235.694 119.614,236.729 120.000,237.038 120.000 C 237.347 120.000,237.600 120.180,237.600 120.400 C 237.600 120.620,237.960 120.800,238.400 120.800 C 238.840 120.800,239.200 120.980,239.200 121.200 C 239.200 121.420,239.545 121.600,239.967 121.600 C 240.388 121.600,240.793 121.735,240.867 121.900 C 240.940 122.065,241.855 122.633,242.900 123.163 C 243.945 123.692,244.800 124.277,244.800 124.463 C 244.800 124.648,245.160 124.800,245.600 124.800 C 246.040 124.800,246.400 124.980,246.400 125.200 C 246.400 125.420,246.670 125.600,247.000 125.600 C 247.330 125.600,247.600 125.780,247.600 126.000 C 247.600 126.220,247.870 126.400,248.200 126.400 C 248.530 126.400,248.800 126.580,248.800 126.800 C 248.800 127.020,248.975 127.200,249.188 127.200 C 249.608 127.200,255.231 131.371,256.700 132.773 C 257.960 133.975,257.927 134.055,254.800 137.428 C 251.165 141.348,250.856 143.656,253.600 146.400 C 256.533 149.333,259.316 148.753,263.669 144.302 C 265.460 142.470,266.804 142.336,267.822 143.890 C 268.215 144.489,268.885 145.344,269.311 145.790 C 269.983 146.493,271.208 148.186,272.600 150.338 C 272.820 150.678,273.315 151.315,273.700 151.754 C 274.085 152.192,274.400 152.787,274.400 153.075 C 274.400 153.364,274.580 153.600,274.800 153.600 C 275.020 153.600,275.200 153.960,275.200 154.400 C 275.200 154.840,275.352 155.200,275.537 155.200 C 275.723 155.200,276.308 156.055,276.837 157.100 C 277.367 158.145,277.935 159.060,278.100 159.133 C 278.265 159.207,278.400 159.612,278.400 160.033 C 278.400 160.455,278.580 160.800,278.800 160.800 C 279.020 160.800,279.200 161.160,279.200 161.600 C 279.200 162.040,279.380 162.400,279.600 162.400 C 279.820 162.400,280.000 162.653,280.000 162.962 C 280.000 163.271,280.386 164.306,280.857 165.262 C 281.328 166.218,281.889 167.450,282.103 168.000 C 282.318 168.550,282.652 169.313,282.847 169.695 C 283.041 170.077,283.200 170.741,283.200 171.171 C 283.200 171.601,283.359 172.051,283.554 172.171 C 283.749 172.292,284.004 172.887,284.121 173.495 C 284.238 174.103,284.541 175.320,284.794 176.200 C 286.299 181.441,287.718 189.581,287.792 193.400 C 287.797 193.620,286.270 193.914,284.400 194.054 C 277.879 194.542,275.867 195.944,275.867 200.000 C 275.867 204.033,277.981 205.526,284.197 205.883 C 285.956 205.984,287.496 206.232,287.621 206.433 C 288.190 207.354,286.453 218.022,284.794 223.800 C 284.541 224.680,284.238 225.897,284.121 226.505 C 284.004 227.113,283.749 227.708,283.554 227.829 C 283.359 227.949,283.200 228.399,283.200 228.829 C 283.200 229.259,283.041 229.923,282.847 230.305 C 282.652 230.687,282.318 231.450,282.103 232.000 C 281.889 232.550,281.328 233.782,280.857 234.738 C 280.386 235.694,280.000 236.729,280.000 237.038 C 280.000 237.347,279.820 237.600,279.600 237.600 C 279.380 237.600,279.200 237.960,279.200 238.400 C 279.200 238.840,279.020 239.200,278.800 239.200 C 278.580 239.200,278.400 239.560,278.400 240.000 C 278.400 240.440,278.220 240.800,278.000 240.800 C 277.780 240.800,277.600 241.160,277.600 241.600 C 277.600 242.040,277.420 242.400,277.200 242.400 C 276.980 242.400,276.800 242.636,276.800 242.925 C 276.800 243.213,276.440 243.836,276.000 244.308 C 275.560 244.780,275.200 245.444,275.200 245.783 C 275.200 246.122,275.020 246.400,274.800 246.400 C 274.580 246.400,274.400 246.636,274.400 246.925 C 274.400 247.213,274.040 247.836,273.600 248.308 C 273.160 248.780,272.800 249.310,272.800 249.486 C 272.800 249.956,267.256 256.937,266.584 257.313 C 265.824 257.738,264.782 257.141,263.259 255.406 C 259.521 251.149,254.641 250.854,252.619 254.762 C 251.195 257.517,251.806 259.443,255.254 263.065 C 257.827 265.769,257.947 266.071,256.863 267.100 C 255.032 268.838,249.928 272.773,249.483 272.789 C 249.309 272.795,248.780 273.160,248.308 273.600 C 247.836 274.040,247.213 274.400,246.925 274.400 C 246.636 274.400,246.400 274.580,246.400 274.800 C 246.400 275.020,246.040 275.200,245.600 275.200 C 245.160 275.200,244.800 275.352,244.800 275.537 C 244.800 275.723,243.945 276.308,242.900 276.837 C 241.855 277.367,240.940 277.935,240.867 278.100 C 240.793 278.265,240.388 278.400,239.967 278.400 C 239.545 278.400,239.200 278.580,239.200 278.800 C 239.200 279.020,238.840 279.200,238.400 279.200 C 237.960 279.200,237.600 279.380,237.600 279.600 C 237.600 279.820,237.347 280.000,237.038 280.000 C 236.729 280.000,235.694 280.386,234.738 280.857 C 233.782 281.328,232.550 281.889,232.000 282.103 C 231.450 282.318,230.687 282.652,230.305 282.847 C 229.923 283.041,229.336 283.200,229.000 283.200 C 228.664 283.200,228.077 283.358,227.695 283.551 C 226.856 283.975,224.562 284.635,219.400 285.938 C 215.961 286.806,209.549 287.735,206.600 287.792 C 206.380 287.797,206.086 286.270,205.946 284.400 C 205.458 277.879,204.056 275.867,200.000 275.867 C 195.944 275.867,194.542 277.879,194.054 284.400 C 193.914 286.270,193.620 287.797,193.400 287.792 C 189.581 287.718,181.441 286.299,176.200 284.794 C 175.320 284.541,174.103 284.238,173.495 284.121 C 172.887 284.004,172.292 283.749,172.171 283.554 C 172.051 283.359,171.601 283.200,171.171 283.200 C 170.741 283.200,170.077 283.041,169.695 282.847 C 169.313 282.652,168.550 282.318,168.000 282.103 C 167.450 281.889,166.218 281.328,165.262 280.857 C 164.306 280.386,163.271 280.000,162.962 280.000 C 162.653 280.000,162.400 279.820,162.400 279.600 C 162.400 279.380,162.040 279.200,161.600 279.200 C 161.160 279.200,160.800 279.020,160.800 278.800 C 160.800 278.580,160.455 278.400,160.033 278.400 C 159.612 278.400,159.207 278.265,159.133 278.100 C 159.060 277.935,158.145 277.367,157.100 276.837 C 156.055 276.308,155.200 275.723,155.200 275.537 C 155.200 275.352,154.840 275.200,154.400 275.200 C 153.960 275.200,153.600 275.020,153.600 274.800 C 153.600 274.580,153.364 274.400,153.075 274.400 C 152.787 274.400,152.164 274.040,151.692 273.600 C 151.220 273.160,150.738 272.800,150.621 272.800 C 150.349 272.800,145.710 269.300,144.404 268.108 C 143.856 267.609,143.271 267.200,143.104 267.200 C 142.165 267.200,142.947 264.996,144.373 263.625 C 148.806 259.367,149.244 255.079,145.481 252.784 C 142.750 251.119,140.638 251.729,136.935 255.254 C 134.163 257.891,133.972 257.958,132.773 256.700 C 131.371 255.231,127.200 249.608,127.200 249.188 C 127.200 248.975,127.020 248.800,126.800 248.800 C 126.580 248.800,126.400 248.530,126.400 248.200 C 126.400 247.870,126.220 247.600,126.000 247.600 C 125.780 247.600,125.600 247.330,125.600 247.000 C 125.600 246.670,125.420 246.400,125.200 246.400 C 124.980 246.400,124.800 246.040,124.800 245.600 C 124.800 245.160,124.648 244.800,124.463 244.800 C 124.277 244.800,123.692 243.945,123.163 242.900 C 122.633 241.855,122.065 240.940,121.900 240.867 C 121.735 240.793,121.600 240.388,121.600 239.967 C 121.600 239.545,121.420 239.200,121.200 239.200 C 120.980 239.200,120.800 238.840,120.800 238.400 C 120.800 237.960,120.620 237.600,120.400 237.600 C 120.180 237.600,120.000 237.347,120.000 237.038 C 120.000 236.729,119.614 235.694,119.143 234.738 C 116.086 228.536,113.063 217.027,112.534 209.571 L 112.285 206.062 115.642 205.882 C 122.013 205.541,124.133 204.072,124.133 200.000 C 124.133 195.928,122.013 194.459,115.642 194.118 L 112.285 193.938 112.534 190.429 C 113.063 182.973,116.086 171.464,119.143 165.262 C 119.614 164.306,120.000 163.271,120.000 162.962 C 120.000 162.653,120.180 162.400,120.400 162.400 C 120.620 162.400,120.800 162.040,120.800 161.600 C 120.800 161.160,120.980 160.800,121.200 160.800 C 121.420 160.800,121.600 160.455,121.600 160.033 C 121.600 159.612,121.735 159.207,121.900 159.133 C 122.065 159.060,122.633 158.145,123.163 157.100 C 123.692 156.055,124.277 155.200,124.463 155.200 C 124.648 155.200,124.800 154.840,124.800 154.400 C 124.800 153.960,124.980 153.600,125.200 153.600 C 125.420 153.600,125.600 153.330,125.600 153.000 C 125.600 152.670,125.780 152.400,126.000 152.400 C 126.220 152.400,126.400 152.130,126.400 151.800 C 126.400 151.470,126.580 151.200,126.800 151.200 C 127.020 151.200,127.200 151.024,127.200 150.808 C 127.200 150.593,127.933 149.468,128.829 148.308 C 129.725 147.149,131.030 145.442,131.729 144.516 C 133.431 142.260,134.600 142.239,136.579 144.429 C 139.781 147.973,142.727 148.895,145.481 147.216 C 149.140 144.985,148.885 140.976,144.831 137.015 C 142.243 134.485,142.183 133.489,144.516 131.729 C 145.442 131.030,147.149 129.725,148.308 128.829 C 149.468 127.933,150.593 127.200,150.808 127.200 C 151.024 127.200,151.200 127.020,151.200 126.800 C 151.200 126.580,151.470 126.400,151.800 126.400 C 152.130 126.400,152.400 126.220,152.400 126.000 C 152.400 125.780,152.670 125.600,153.000 125.600 C 153.330 125.600,153.600 125.420,153.600 125.200 C 153.600 124.980,153.960 124.800,154.400 124.800 C 154.840 124.800,155.200 124.648,155.200 124.463 C 155.200 124.277,156.055 123.692,157.100 123.163 C 158.145 122.633,159.060 122.065,159.133 121.900 C 159.207 121.735,159.612 121.600,160.033 121.600 C 160.455 121.600,160.800 121.420,160.800 121.200 C 160.800 120.980,161.160 120.800,161.600 120.800 C 162.040 120.800,162.400 120.620,162.400 120.400 C 162.400 120.180,162.642 120.000,162.939 120.000 C 163.235 120.000,164.000 119.750,164.639 119.444 C 170.171 116.794,178.596 114.235,185.200 113.199 C 186.850 112.940,188.470 112.675,188.800 112.610 C 189.130 112.546,190.422 112.472,191.671 112.446 L 193.941 112.400 194.119 115.700 M37.600 149.337 C 38.150 149.337,39.976 149.193,41.658 149.017 L 44.716 148.697 44.969 150.849 C 45.109 152.032,45.399 156.870,45.615 161.600 C 45.831 166.330,46.181 173.800,46.395 178.200 C 46.936 189.363,47.530 201.739,47.995 211.500 C 48.212 216.065,48.570 223.580,48.790 228.200 C 49.010 232.820,49.370 240.380,49.589 245.000 C 50.036 254.378,50.596 266.102,51.186 278.400 C 51.402 282.910,51.757 290.470,51.975 295.200 C 52.194 299.930,52.553 307.580,52.774 312.200 C 52.995 316.820,53.354 324.560,53.572 329.400 C 54.074 340.586,54.715 354.122,55.193 363.615 C 55.489 369.515,55.453 371.568,55.014 373.667 C 51.437 390.764,28.330 393.318,21.241 377.400 C 20.947 376.740,20.513 375.840,20.277 375.400 C 19.800 374.510,19.829 353.789,20.309 353.037 C 20.463 352.797,20.732 348.640,20.908 343.800 C 21.208 335.502,21.455 329.991,22.401 310.400 C 22.619 305.890,22.983 298.330,23.210 293.600 C 23.437 288.870,23.794 281.490,24.003 277.200 C 24.213 272.910,24.562 265.620,24.780 261.000 C 24.998 256.380,25.365 248.640,25.596 243.800 C 26.380 227.367,26.769 219.019,27.172 210.000 C 27.393 205.050,27.746 197.310,27.957 192.800 C 28.167 188.290,28.531 179.920,28.764 174.200 C 29.302 161.004,29.997 149.529,30.286 149.061 C 30.415 148.851,31.788 148.833,33.555 149.018 C 35.230 149.194,37.050 149.337,37.600 149.337 M198.422 157.084 C 194.889 157.777,194.290 159.940,194.117 172.608 L 193.975 183.016 192.688 183.573 C 188.077 185.569,185.030 188.958,182.773 194.600 C 182.435 195.446,181.804 199.963,181.944 200.539 C 181.989 200.725,182.127 201.715,182.251 202.739 C 182.375 203.763,182.741 205.192,183.064 205.915 C 184.029 208.075,183.787 208.402,173.581 218.696 C 163.555 228.808,162.247 230.507,163.122 232.277 C 164.615 235.300,164.720 235.405,167.698 236.863 C 169.694 237.840,171.358 236.570,181.563 226.285 C 192.056 215.710,192.613 215.322,194.580 217.231 C 194.789 217.434,195.510 217.600,196.183 217.600 C 196.855 217.600,197.944 217.754,198.603 217.943 C 200.229 218.408,206.104 217.352,208.189 216.220 C 212.053 214.122,214.163 212.013,216.223 208.189 C 217.355 206.089,218.407 200.225,217.943 198.603 C 217.754 197.944,217.600 196.830,217.600 196.126 C 217.600 195.423,217.420 194.736,217.200 194.600 C 216.980 194.464,216.800 194.031,216.800 193.638 C 216.800 191.004,211.507 185.388,207.312 183.573 L 206.025 183.016 205.883 172.608 C 205.689 158.381,204.494 155.893,198.422 157.084 M204.782 195.429 C 206.559 197.170,206.565 197.184,206.565 200.000 L 206.565 202.825 204.695 204.695 L 202.825 206.565 200.000 206.565 L 197.175 206.565 195.329 204.718 L 193.482 202.872 193.482 200.011 C 193.482 193.732,200.249 190.989,204.782 195.429 M387.912 311.200 C 387.997 357.667,387.909 373.038,387.549 374.400 C 384.441 386.163,370.829 391.650,360.205 385.424 C 358.123 384.204,354.400 380.541,354.400 379.713 C 354.400 379.431,354.264 379.200,354.098 379.200 C 353.931 379.200,353.556 378.615,353.264 377.900 C 352.972 377.185,352.582 376.240,352.397 375.800 C 351.332 373.269,351.228 369.514,351.978 360.800 C 352.234 357.830,352.605 353.330,352.803 350.800 C 353.000 348.270,353.359 343.860,353.600 341.000 C 353.841 338.140,354.202 333.730,354.402 331.200 C 355.002 323.606,355.911 312.352,356.786 301.700 C 357.387 294.376,358.567 279.815,359.176 272.200 C 359.387 269.560,359.740 264.970,359.960 262.000 C 360.580 253.645,360.847 250.644,361.020 250.095 C 361.145 249.698,364.042 249.612,374.490 249.695 L 387.800 249.800 387.912 311.200 " stroke="none" fill="#000000" fill-rule="evenodd"></path><path id="path2" d="M5.600 0.392 C 5.600 0.608,5.105 0.909,4.501 1.061 C 3.092 1.414,1.414 3.092,1.061 4.501 C 0.909 5.105,0.608 5.600,0.392 5.600 C -0.170 5.600,-0.145 113.695,0.418 114.258 C 0.647 114.487,0.996 115.918,1.191 117.438 C 1.865 122.669,3.504 127.399,6.014 131.357 C 6.666 132.386,7.200 133.324,7.200 133.442 C 7.200 133.561,7.425 133.886,7.700 134.165 C 7.975 134.445,8.650 135.268,9.200 135.996 C 10.699 137.979,12.043 139.322,13.600 140.396 C 14.370 140.928,15.270 141.642,15.600 141.984 C 15.930 142.326,16.709 142.867,17.331 143.187 C 18.912 144.000,19.339 145.003,19.021 147.160 C 18.872 148.172,18.572 153.140,18.354 158.200 C 17.945 167.686,17.489 177.605,16.791 192.200 C 16.570 196.820,16.210 204.380,15.990 209.000 C 15.771 213.620,15.417 221.000,15.204 225.400 C 14.991 229.800,14.628 237.360,14.398 242.200 C 14.167 247.040,13.808 254.510,13.600 258.800 C 13.392 263.090,13.031 270.560,12.799 275.400 C 12.115 289.675,11.615 300.077,11.203 308.600 C 10.748 318.011,10.125 331.091,9.611 342.000 C 8.421 367.263,8.321 377.200,9.255 377.200 C 9.445 377.200,9.600 377.652,9.600 378.205 C 9.600 378.758,9.764 379.523,9.965 379.905 C 10.166 380.287,10.809 381.634,11.394 382.899 C 14.128 388.808,18.527 393.230,24.600 396.175 C 28.376 398.006,28.990 398.197,33.200 398.850 C 34.630 399.072,35.971 399.421,36.180 399.627 C 36.672 400.110,38.684 400.111,38.983 399.628 C 39.109 399.423,40.245 399.138,41.506 398.993 C 44.981 398.594,53.486 395.331,54.397 394.048 C 54.509 393.890,55.230 393.324,56.000 392.789 C 57.763 391.566,58.757 390.573,59.996 388.800 C 60.534 388.030,61.160 387.203,61.387 386.961 C 61.836 386.484,64.376 381.495,64.829 380.200 C 66.248 376.141,66.942 371.484,66.632 368.089 C 66.477 366.390,66.180 361.220,65.971 356.600 C 65.762 351.980,65.422 344.600,65.215 340.200 C 65.008 335.800,64.652 328.150,64.425 323.200 C 64.197 318.250,63.829 310.420,63.607 305.800 C 63.384 301.180,62.926 291.190,62.588 283.600 C 61.977 269.864,61.533 260.201,60.775 244.200 C 60.556 239.580,60.192 231.750,59.966 226.800 C 59.210 210.270,58.406 193.175,57.605 176.600 C 57.392 172.200,57.042 164.820,56.827 160.200 C 56.612 155.580,56.318 150.203,56.175 148.251 C 55.910 144.647,56.656 142.800,58.376 142.800 C 58.806 142.800,60.819 141.042,63.874 138.000 C 65.839 136.043,69.200 131.552,69.200 130.883 C 69.200 130.654,69.335 130.407,69.500 130.333 C 69.665 130.260,70.225 129.300,70.744 128.200 C 71.263 127.100,71.848 125.887,72.044 125.505 C 72.240 125.123,72.400 124.459,72.400 124.029 C 72.400 123.599,72.580 123.136,72.800 123.000 C 73.020 122.864,73.200 122.234,73.200 121.600 C 73.200 120.966,73.355 120.352,73.544 120.235 C 74.509 119.638,75.168 8.737,74.229 4.911 C 73.601 2.354,69.052 -0.709,67.776 0.567 C 67.428 0.915,66.916 1.200,66.638 1.200 C 65.781 1.200,63.950 3.330,63.367 5.006 C 62.908 6.324,62.811 13.642,62.806 47.300 L 62.800 88.000 53.243 88.000 C 44.897 88.000,43.655 87.920,43.443 87.367 C 43.309 87.019,43.198 68.704,43.196 46.667 C 43.193 24.630,43.080 5.926,42.944 5.103 C 42.505 2.450,37.943 -0.800,36.576 0.567 C 36.228 0.915,35.718 1.200,35.443 1.200 C 34.588 1.200,32.532 3.341,32.178 4.600 C 31.993 5.260,31.742 24.250,31.621 46.800 L 31.400 87.800 21.800 87.800 L 12.200 87.800 12.000 45.922 L 11.800 4.044 10.422 2.622 C 9.663 1.840,8.740 1.200,8.371 1.200 C 8.001 1.200,7.474 0.930,7.200 0.600 C 6.641 -0.074,5.600 -0.209,5.600 0.392 M393.200 0.389 C 393.200 0.602,392.676 0.917,392.034 1.089 C 389.085 1.877,378.187 11.635,370.691 20.200 C 366.647 24.821,366.289 25.251,365.206 26.800 C 364.667 27.570,364.002 28.432,363.727 28.715 C 363.453 28.998,362.913 29.763,362.528 30.415 C 362.143 31.067,361.686 31.600,361.514 31.600 C 361.341 31.600,361.200 31.836,361.200 32.125 C 361.200 32.413,360.840 33.036,360.400 33.508 C 359.960 33.980,359.600 34.554,359.600 34.783 C 359.600 35.012,359.420 35.200,359.200 35.200 C 358.980 35.200,358.800 35.374,358.800 35.587 C 358.800 35.799,358.069 37.104,357.175 38.487 C 355.767 40.665,349.342 53.342,348.349 55.900 C 348.157 56.395,347.844 57.205,347.654 57.700 C 347.076 59.201,346.327 60.960,345.953 61.695 C 345.759 62.077,345.600 62.741,345.600 63.171 C 345.600 63.601,345.420 64.064,345.200 64.200 C 344.980 64.336,344.800 64.876,344.800 65.400 C 344.800 65.924,344.620 66.464,344.400 66.600 C 344.180 66.736,344.000 67.276,344.000 67.800 C 344.000 68.324,343.820 68.864,343.600 69.000 C 343.380 69.136,343.200 69.766,343.200 70.400 C 343.200 71.034,343.020 71.664,342.800 71.800 C 342.580 71.936,342.400 72.566,342.400 73.200 C 342.400 73.834,342.220 74.464,342.000 74.600 C 341.780 74.736,341.600 75.521,341.600 76.344 C 341.600 77.167,341.438 78.011,341.241 78.220 C 341.044 78.429,340.782 79.320,340.660 80.200 C 340.538 81.080,340.251 82.970,340.023 84.400 C 338.226 95.661,338.278 93.348,338.110 170.000 C 338.023 209.930,338.065 243.373,338.203 244.317 C 338.719 247.844,340.641 249.100,346.200 249.544 L 349.400 249.800 349.325 252.600 C 349.283 254.140,349.054 257.740,348.816 260.600 C 348.381 265.819,347.966 270.932,347.189 280.600 C 346.960 283.460,346.596 287.960,346.382 290.600 C 346.168 293.240,345.817 297.560,345.604 300.200 C 344.746 310.801,344.355 315.609,343.993 320.000 C 343.784 322.530,343.424 326.940,343.193 329.800 C 342.961 332.660,342.596 337.160,342.382 339.800 C 342.168 342.440,341.830 346.760,341.632 349.400 C 341.434 352.040,341.049 356.720,340.776 359.800 C 340.002 368.523,340.213 376.692,341.241 377.780 C 341.438 377.989,341.600 378.563,341.600 379.056 C 341.600 379.549,341.780 380.064,342.000 380.200 C 342.220 380.336,342.400 380.797,342.400 381.224 C 342.400 381.651,342.580 382.000,342.800 382.000 C 343.020 382.000,343.200 382.360,343.200 382.800 C 343.200 383.240,343.346 383.600,343.525 383.600 C 343.704 383.600,344.098 384.230,344.400 385.000 C 344.702 385.770,345.057 386.400,345.188 386.400 C 345.320 386.400,345.740 386.929,346.122 387.576 C 349.254 392.878,358.210 398.099,365.694 398.985 C 366.955 399.134,368.091 399.423,368.217 399.628 C 368.521 400.119,370.933 400.107,371.429 399.611 C 371.642 399.398,372.983 399.054,374.409 398.848 C 378.235 398.296,384.501 395.944,385.929 394.526 C 386.219 394.236,386.622 394.000,386.823 394.000 C 387.300 394.000,394.000 387.300,394.000 386.823 C 394.000 386.622,394.236 386.219,394.526 385.929 C 395.944 384.501,398.296 378.235,398.848 374.409 C 399.054 372.983,399.398 371.642,399.611 371.429 C 400.335 370.705,400.124 6.067,399.400 5.343 C 399.070 5.013,398.800 4.425,398.800 4.038 C 398.800 3.137,396.867 1.404,395.473 1.054 C 394.883 0.906,394.400 0.608,394.400 0.392 C 394.400 0.177,394.130 0.000,393.800 0.000 C 393.470 0.000,393.200 0.175,393.200 0.389 M387.800 128.633 L 387.800 237.800 368.800 237.800 L 349.800 237.800 349.814 166.200 C 349.824 111.573,349.944 93.794,350.321 91.200 C 350.593 89.330,350.912 86.990,351.030 86.000 C 351.149 85.010,351.404 83.840,351.598 83.400 C 351.792 82.960,352.057 81.880,352.187 81.000 C 352.668 77.747,352.897 76.787,353.244 76.573 C 353.440 76.452,353.600 75.744,353.600 75.000 C 353.600 74.256,353.780 73.536,354.000 73.400 C 354.220 73.264,354.400 72.724,354.400 72.200 C 354.400 71.676,354.580 71.136,354.800 71.000 C 355.020 70.864,355.200 70.324,355.200 69.800 C 355.200 69.276,355.380 68.736,355.600 68.600 C 355.820 68.464,356.000 67.924,356.000 67.400 C 356.000 66.876,356.180 66.336,356.400 66.200 C 356.620 66.064,356.800 65.513,356.800 64.976 C 356.800 64.439,356.980 64.000,357.200 64.000 C 357.420 64.000,357.600 63.550,357.600 63.000 C 357.600 62.450,357.780 62.000,358.000 62.000 C 358.220 62.000,358.400 61.550,358.400 61.000 C 358.400 60.450,358.580 60.000,358.800 60.000 C 359.020 60.000,359.200 59.640,359.200 59.200 C 359.200 58.760,359.380 58.400,359.600 58.400 C 359.820 58.400,360.000 58.126,360.000 57.792 C 360.000 57.028,362.658 51.495,364.801 47.800 C 365.693 46.260,366.530 44.685,366.659 44.300 C 366.788 43.915,367.052 43.600,367.247 43.600 C 367.441 43.600,367.600 43.364,367.600 43.075 C 367.600 42.787,367.915 42.202,368.300 41.775 C 368.685 41.349,369.255 40.505,369.568 39.900 C 369.880 39.295,370.285 38.800,370.468 38.800 C 370.650 38.800,370.800 38.564,370.800 38.275 C 370.800 37.987,371.120 37.402,371.511 36.975 C 371.902 36.549,372.661 35.570,373.198 34.800 C 373.734 34.030,374.360 33.195,374.587 32.945 C 374.814 32.694,375.347 32.064,375.771 31.545 C 380.591 25.636,386.778 19.126,387.381 19.327 C 387.672 19.424,387.800 52.941,387.800 128.633 M197.800 75.623 C 196.700 75.792,193.606 75.946,190.924 75.965 C 188.144 75.985,185.941 76.172,185.800 76.400 C 185.664 76.620,184.404 76.800,183.000 76.800 C 181.596 76.800,180.336 76.980,180.200 77.200 C 180.064 77.420,179.074 77.600,178.000 77.600 C 176.926 77.600,175.936 77.780,175.800 78.000 C 175.664 78.220,174.854 78.400,174.000 78.400 C 173.146 78.400,172.336 78.580,172.200 78.800 C 172.064 79.020,171.254 79.200,170.400 79.200 C 169.546 79.200,168.736 79.380,168.600 79.600 C 168.464 79.820,167.911 80.000,167.371 80.000 C 166.831 80.000,166.077 80.162,165.695 80.359 C 165.313 80.556,163.650 81.129,162.000 81.631 C 160.350 82.133,158.829 82.692,158.620 82.872 C 158.411 83.052,157.914 83.200,157.515 83.200 C 157.116 83.200,156.477 83.359,156.095 83.553 C 155.713 83.748,154.950 84.089,154.400 84.313 C 147.686 87.038,137.187 92.180,136.867 92.900 C 136.793 93.065,136.561 93.200,136.351 93.200 C 135.929 93.200,128.912 97.840,128.071 98.675 C 127.781 98.964,127.400 99.200,127.226 99.200 C 127.051 99.200,126.299 99.737,125.554 100.394 C 124.809 101.050,124.078 101.590,123.929 101.594 C 123.779 101.597,123.419 101.827,123.129 102.104 C 122.838 102.382,121.521 103.507,120.202 104.604 C 117.104 107.182,107.182 117.104,104.604 120.202 C 103.507 121.521,102.382 122.838,102.104 123.129 C 101.827 123.419,101.600 123.781,101.600 123.933 C 101.600 124.084,101.191 124.656,100.691 125.204 C 99.444 126.571,93.200 135.852,93.200 136.339 C 93.200 136.556,93.065 136.793,92.900 136.867 C 92.180 137.187,87.038 147.686,84.313 154.400 C 84.089 154.950,83.748 155.713,83.553 156.095 C 83.359 156.477,83.200 157.116,83.200 157.515 C 83.200 157.914,83.052 158.411,82.872 158.620 C 82.692 158.829,82.133 160.350,81.631 162.000 C 81.129 163.650,80.556 165.313,80.359 165.695 C 80.162 166.077,80.000 166.831,80.000 167.371 C 80.000 167.911,79.820 168.464,79.600 168.600 C 79.380 168.736,79.200 169.546,79.200 170.400 C 79.200 171.254,79.020 172.064,78.800 172.200 C 78.580 172.336,78.400 173.146,78.400 174.000 C 78.400 174.854,78.220 175.664,78.000 175.800 C 77.780 175.936,77.600 176.926,77.600 178.000 C 77.600 179.074,77.420 180.064,77.200 180.200 C 76.980 180.336,76.800 181.596,76.800 183.000 C 76.800 184.404,76.645 185.648,76.456 185.765 C 76.194 185.927,75.590 195.568,75.563 200.000 C 75.542 203.616,76.137 213.583,76.411 214.200 C 76.607 214.640,76.857 216.080,76.968 217.400 C 77.319 221.588,77.667 223.789,78.039 224.180 C 78.237 224.389,78.400 225.323,78.400 226.256 C 78.400 227.189,78.580 228.064,78.800 228.200 C 79.020 228.336,79.200 229.056,79.200 229.800 C 79.200 230.544,79.380 231.264,79.600 231.400 C 79.820 231.536,80.000 232.089,80.000 232.629 C 80.000 233.169,80.162 233.923,80.361 234.305 C 80.560 234.687,80.940 235.810,81.207 236.800 C 81.703 238.644,82.222 240.067,82.847 241.295 C 83.041 241.677,83.200 242.264,83.200 242.600 C 83.200 242.936,83.359 243.523,83.553 243.905 C 83.748 244.287,84.089 245.050,84.313 245.600 C 86.016 249.796,88.332 254.931,89.636 257.400 C 90.217 258.500,91.122 260.210,91.646 261.200 C 92.171 262.190,92.735 263.060,92.900 263.133 C 93.065 263.207,93.200 263.444,93.200 263.661 C 93.200 264.148,99.444 273.429,100.691 274.796 C 101.191 275.344,101.600 275.916,101.600 276.067 C 101.600 276.219,101.827 276.581,102.104 276.871 C 102.382 277.162,103.502 278.480,104.593 279.800 C 106.962 282.664,118.013 293.766,120.000 295.278 C 120.770 295.864,121.923 296.806,122.562 297.371 C 123.201 297.937,123.833 298.400,123.966 298.400 C 124.099 298.400,124.656 298.809,125.204 299.309 C 126.571 300.556,135.852 306.800,136.339 306.800 C 136.556 306.800,136.793 306.935,136.867 307.100 C 136.940 307.265,137.810 307.831,138.800 308.357 C 143.741 310.983,146.397 312.311,148.400 313.155 C 149.610 313.666,151.230 314.353,152.000 314.682 C 152.770 315.012,153.850 315.464,154.400 315.687 C 154.950 315.911,155.713 316.252,156.095 316.447 C 156.477 316.641,157.116 316.800,157.515 316.800 C 157.914 316.800,158.411 316.948,158.620 317.128 C 158.829 317.308,160.350 317.867,162.000 318.369 C 163.650 318.871,165.313 319.444,165.695 319.641 C 166.077 319.838,166.831 320.000,167.371 320.000 C 167.911 320.000,168.464 320.180,168.600 320.400 C 168.736 320.620,169.546 320.800,170.400 320.800 C 171.254 320.800,172.052 320.961,172.174 321.158 C 172.395 321.516,174.046 321.837,177.800 322.252 C 178.900 322.374,179.971 322.637,180.180 322.837 C 180.389 323.037,181.658 323.200,183.000 323.200 C 184.342 323.200,185.611 323.360,185.820 323.556 C 186.888 324.555,211.970 324.586,214.200 323.590 C 214.640 323.394,216.080 323.148,217.400 323.043 C 218.720 322.938,220.880 322.654,222.200 322.411 C 223.520 322.168,225.320 321.867,226.200 321.743 C 227.080 321.619,227.971 321.356,228.180 321.159 C 228.389 320.962,229.143 320.800,229.856 320.800 C 230.569 320.800,231.264 320.620,231.400 320.400 C 231.536 320.180,232.089 320.000,232.629 320.000 C 233.169 320.000,233.923 319.838,234.305 319.639 C 234.687 319.440,235.810 319.060,236.800 318.793 C 237.790 318.527,238.960 318.167,239.400 317.995 C 239.840 317.822,240.830 317.464,241.600 317.200 C 243.723 316.471,244.932 315.996,248.000 314.682 C 248.770 314.353,250.390 313.667,251.600 313.158 C 252.810 312.649,254.763 311.731,255.941 311.117 C 257.118 310.502,258.318 310.000,258.607 310.000 C 258.897 310.000,259.193 309.865,259.267 309.700 C 259.434 309.324,261.564 308.025,262.500 307.729 C 262.885 307.607,263.200 307.348,263.200 307.153 C 263.200 306.959,263.392 306.800,263.627 306.800 C 264.139 306.800,273.377 300.604,274.796 299.309 C 275.344 298.809,275.901 298.400,276.034 298.400 C 276.167 298.400,276.799 297.937,277.438 297.371 C 278.077 296.806,279.230 295.867,280.000 295.286 C 281.819 293.913,293.913 281.819,295.286 280.000 C 295.867 279.230,296.806 278.077,297.371 277.438 C 297.937 276.799,298.400 276.167,298.400 276.034 C 298.400 275.901,298.809 275.344,299.309 274.796 C 300.604 273.377,306.800 264.139,306.800 263.627 C 306.800 263.392,306.946 263.200,307.125 263.200 C 307.304 263.200,307.698 262.570,308.000 261.800 C 308.302 261.030,308.696 260.400,308.875 260.400 C 309.054 260.400,309.200 260.130,309.200 259.800 C 309.200 259.470,309.380 259.200,309.600 259.200 C 309.820 259.200,310.000 258.948,310.000 258.641 C 310.000 258.333,310.502 257.118,311.117 255.941 C 311.731 254.763,312.649 252.810,313.158 251.600 C 313.667 250.390,314.353 248.770,314.682 248.000 C 315.996 244.932,316.471 243.723,317.200 241.600 C 317.464 240.830,317.822 239.840,317.995 239.400 C 318.167 238.960,318.527 237.790,318.793 236.800 C 319.060 235.810,319.440 234.687,319.639 234.305 C 319.838 233.923,320.000 233.169,320.000 232.629 C 320.000 232.089,320.180 231.536,320.400 231.400 C 320.620 231.264,320.800 230.569,320.800 229.856 C 320.800 229.143,320.962 228.389,321.159 228.180 C 321.356 227.971,321.619 227.080,321.743 226.200 C 321.867 225.320,322.168 223.520,322.411 222.200 C 322.654 220.880,322.938 218.720,323.043 217.400 C 323.148 216.080,323.392 214.640,323.587 214.200 C 324.733 211.603,324.008 181.502,322.768 180.220 C 322.565 180.011,322.400 178.987,322.400 177.944 C 322.400 176.901,322.220 175.936,322.000 175.800 C 321.780 175.664,321.600 174.854,321.600 174.000 C 321.600 173.146,321.420 172.336,321.200 172.200 C 320.980 172.064,320.800 171.344,320.800 170.600 C 320.800 169.856,320.620 169.136,320.400 169.000 C 320.180 168.864,320.000 168.371,320.000 167.905 C 320.000 167.125,319.534 165.392,318.790 163.400 C 318.626 162.960,318.259 161.790,317.976 160.800 C 317.693 159.810,317.312 158.829,317.130 158.620 C 316.949 158.411,316.800 157.862,316.800 157.400 C 316.800 156.938,316.651 156.389,316.469 156.180 C 316.288 155.971,315.448 154.090,314.603 152.000 C 312.593 147.029,308.685 139.018,307.968 138.400 C 307.840 138.290,307.481 137.615,307.170 136.900 C 306.859 136.185,306.469 135.600,306.302 135.600 C 306.136 135.600,306.000 135.330,306.000 135.000 C 306.000 134.670,305.820 134.400,305.600 134.400 C 305.380 134.400,305.200 134.210,305.200 133.978 C 305.200 133.584,302.534 129.460,301.359 128.038 C 301.069 127.687,299.960 126.208,298.894 124.750 C 295.149 119.633,284.544 108.374,280.800 105.541 C 280.030 104.958,279.040 104.146,278.600 103.735 C 278.160 103.325,276.630 102.127,275.200 101.072 C 273.770 100.018,272.313 98.921,271.962 98.635 C 270.488 97.432,266.411 94.800,266.022 94.800 C 265.790 94.800,265.600 94.620,265.600 94.400 C 265.600 94.180,265.330 94.000,265.000 94.000 C 264.670 94.000,264.400 93.820,264.400 93.600 C 264.400 93.380,264.130 93.200,263.800 93.200 C 263.470 93.200,263.200 93.020,263.200 92.800 C 263.200 92.580,262.855 92.400,262.433 92.400 C 262.012 92.400,261.607 92.239,261.533 92.043 C 261.460 91.847,258.520 90.302,255.000 88.610 C 251.480 86.918,248.287 85.369,247.905 85.167 C 247.523 84.965,247.020 84.800,246.786 84.800 C 246.552 84.800,245.616 84.440,244.706 84.000 C 243.795 83.560,242.734 83.200,242.348 83.200 C 241.963 83.200,241.536 83.020,241.400 82.800 C 241.264 82.580,240.724 82.400,240.200 82.400 C 239.676 82.400,239.136 82.220,239.000 82.000 C 238.864 81.780,238.401 81.600,237.971 81.600 C 237.541 81.600,236.877 81.442,236.495 81.249 C 235.339 80.665,232.996 80.000,232.095 80.000 C 231.629 80.000,231.136 79.820,231.000 79.600 C 230.864 79.380,230.144 79.200,229.400 79.200 C 228.656 79.200,227.936 79.020,227.800 78.800 C 227.664 78.580,226.854 78.400,226.000 78.400 C 225.146 78.400,224.336 78.220,224.200 78.000 C 224.064 77.780,223.099 77.600,222.056 77.600 C 221.013 77.600,219.989 77.435,219.780 77.232 C 219.353 76.820,216.638 76.557,207.589 76.055 C 204.173 75.865,201.023 75.622,200.589 75.513 C 200.155 75.405,198.900 75.455,197.800 75.623 M215.400 87.801 C 216.940 87.946,218.371 88.230,218.580 88.432 C 218.789 88.635,219.698 88.800,220.600 88.800 C 221.502 88.800,222.411 88.962,222.620 89.159 C 222.829 89.356,223.720 89.620,224.600 89.744 C 227.989 90.222,229.215 90.501,229.427 90.844 C 229.548 91.040,230.166 91.200,230.800 91.200 C 231.434 91.200,232.064 91.380,232.200 91.600 C 232.336 91.820,232.889 92.000,233.429 92.000 C 233.969 92.000,234.723 92.174,235.105 92.387 C 235.487 92.600,236.691 93.061,237.780 93.410 C 242.923 95.059,255.838 101.038,257.200 102.400 C 257.310 102.510,257.760 102.797,258.200 103.038 C 260.211 104.137,261.015 104.649,261.755 105.300 C 262.193 105.685,262.787 106.000,263.075 106.000 C 263.364 106.000,263.600 106.138,263.600 106.306 C 263.600 106.474,264.320 107.056,265.200 107.600 C 266.080 108.144,266.800 108.726,266.800 108.894 C 266.800 109.062,266.993 109.200,267.229 109.200 C 267.464 109.200,267.894 109.425,268.184 109.700 C 268.939 110.417,270.063 111.322,271.086 112.037 C 276.006 115.475,290.800 131.044,290.800 132.784 C 290.800 133.013,290.938 133.200,291.106 133.200 C 291.274 133.200,291.856 133.920,292.400 134.800 C 292.944 135.680,293.526 136.400,293.694 136.400 C 293.862 136.400,294.000 136.636,294.000 136.925 C 294.000 137.213,294.315 137.807,294.700 138.245 C 295.085 138.683,295.597 139.392,295.838 139.820 C 296.078 140.249,296.528 141.050,296.838 141.600 C 297.147 142.150,297.490 142.690,297.600 142.800 C 298.962 144.162,304.941 157.077,306.590 162.220 C 306.939 163.309,307.400 164.513,307.613 164.895 C 307.826 165.277,308.000 166.031,308.000 166.571 C 308.000 167.111,308.180 167.664,308.400 167.800 C 308.620 167.936,308.800 168.566,308.800 169.200 C 308.800 169.834,308.980 170.464,309.200 170.600 C 309.420 170.736,309.600 171.456,309.600 172.200 C 309.600 172.944,309.780 173.664,310.000 173.800 C 310.220 173.936,310.400 174.757,310.400 175.624 C 310.400 176.491,310.580 177.200,310.800 177.200 C 311.020 177.200,311.200 178.064,311.200 179.120 C 311.200 180.176,311.365 181.211,311.568 181.420 C 312.531 182.416,312.927 209.903,312.057 215.400 C 311.814 216.940,311.504 219.100,311.368 220.200 C 311.233 221.300,310.960 222.371,310.761 222.580 C 310.563 222.789,310.400 223.633,310.400 224.456 C 310.400 225.279,310.220 226.064,310.000 226.200 C 309.780 226.336,309.600 227.056,309.600 227.800 C 309.600 228.544,309.420 229.264,309.200 229.400 C 308.980 229.536,308.800 230.089,308.800 230.629 C 308.800 231.169,308.637 231.923,308.439 232.305 C 308.240 232.687,307.612 234.492,307.042 236.316 C 305.171 242.314,299.129 255.675,297.599 257.200 C 297.489 257.310,297.144 257.895,296.832 258.500 C 296.520 259.105,296.115 259.600,295.932 259.600 C 295.750 259.600,295.600 259.960,295.600 260.400 C 295.600 260.840,295.450 261.200,295.268 261.200 C 295.085 261.200,294.681 261.695,294.370 262.300 C 294.060 262.905,293.489 263.691,293.103 264.047 C 292.716 264.403,292.400 264.864,292.400 265.071 C 292.400 265.279,292.083 265.798,291.696 266.225 C 291.308 266.651,289.919 268.440,288.609 270.200 C 285.535 274.328,274.328 285.535,270.200 288.609 C 268.440 289.919,266.651 291.308,266.225 291.696 C 265.798 292.083,265.279 292.400,265.071 292.400 C 264.864 292.400,264.403 292.716,264.047 293.103 C 263.691 293.489,262.905 294.060,262.300 294.370 C 261.695 294.681,261.200 295.085,261.200 295.268 C 261.200 295.450,260.840 295.600,260.400 295.600 C 259.960 295.600,259.600 295.750,259.600 295.932 C 259.600 296.115,259.105 296.520,258.500 296.832 C 257.895 297.144,257.310 297.489,257.200 297.599 C 255.675 299.129,242.314 305.171,236.316 307.042 C 234.492 307.612,232.687 308.240,232.305 308.439 C 231.923 308.637,231.169 308.800,230.629 308.800 C 230.089 308.800,229.536 308.980,229.400 309.200 C 229.264 309.420,228.544 309.600,227.800 309.600 C 227.056 309.600,226.336 309.780,226.200 310.000 C 226.064 310.220,225.279 310.400,224.456 310.400 C 223.633 310.400,222.789 310.563,222.580 310.761 C 222.371 310.960,221.300 311.233,220.200 311.368 C 219.100 311.504,216.940 311.814,215.400 312.057 C 209.903 312.927,182.416 312.531,181.420 311.568 C 181.211 311.365,180.176 311.200,179.120 311.200 C 178.064 311.200,177.200 311.020,177.200 310.800 C 177.200 310.580,176.491 310.400,175.624 310.400 C 174.757 310.400,173.936 310.220,173.800 310.000 C 173.664 309.780,172.944 309.600,172.200 309.600 C 171.456 309.600,170.736 309.420,170.600 309.200 C 170.464 308.980,169.834 308.800,169.200 308.800 C 168.566 308.800,167.936 308.620,167.800 308.400 C 167.664 308.180,167.111 308.000,166.571 308.000 C 166.031 308.000,165.277 307.826,164.895 307.613 C 164.513 307.400,163.311 306.940,162.224 306.591 C 157.189 304.977,144.133 298.933,142.800 297.600 C 142.690 297.490,142.195 297.175,141.700 296.900 C 139.465 295.659,138.992 295.357,138.245 294.700 C 137.807 294.315,137.213 294.000,136.925 294.000 C 136.636 294.000,136.400 293.862,136.400 293.694 C 136.400 293.526,135.680 292.944,134.800 292.400 C 133.920 291.856,133.200 291.274,133.200 291.106 C 133.200 290.938,132.945 290.800,132.633 290.800 C 132.322 290.800,132.007 290.657,131.933 290.482 C 131.860 290.307,130.900 289.485,129.800 288.655 C 124.445 284.616,114.786 275.059,112.044 271.086 C 111.708 270.599,111.245 269.995,111.016 269.745 C 109.866 268.487,109.200 267.552,109.200 267.195 C 109.200 266.978,109.062 266.800,108.894 266.800 C 108.726 266.800,108.144 266.080,107.600 265.200 C 107.056 264.320,106.474 263.600,106.306 263.600 C 106.138 263.600,106.000 263.364,106.000 263.075 C 106.000 262.787,105.685 262.193,105.300 261.755 C 104.643 261.008,104.341 260.535,103.100 258.300 C 102.825 257.805,102.510 257.310,102.400 257.200 C 101.038 255.838,95.059 242.923,93.410 237.780 C 93.061 236.691,92.600 235.487,92.387 235.105 C 92.174 234.723,92.000 233.969,92.000 233.429 C 92.000 232.889,91.820 232.336,91.600 232.200 C 91.380 232.064,91.200 231.434,91.200 230.800 C 91.200 230.166,91.040 229.548,90.844 229.427 C 90.501 229.215,90.222 227.989,89.744 224.600 C 89.620 223.720,89.356 222.829,89.159 222.620 C 88.962 222.411,88.800 221.502,88.800 220.600 C 88.800 219.698,88.635 218.789,88.432 218.580 C 87.142 217.247,87.142 182.753,88.432 181.420 C 88.635 181.211,88.800 180.277,88.800 179.344 C 88.800 178.411,88.980 177.536,89.200 177.400 C 89.420 177.264,89.600 176.454,89.600 175.600 C 89.600 174.746,89.780 173.936,90.000 173.800 C 90.220 173.664,90.400 172.944,90.400 172.200 C 90.400 171.456,90.580 170.736,90.800 170.600 C 91.020 170.464,91.200 169.834,91.200 169.200 C 91.200 168.566,91.380 167.936,91.600 167.800 C 91.820 167.664,92.000 167.111,92.000 166.571 C 92.000 166.031,92.174 165.277,92.387 164.895 C 92.600 164.513,93.061 163.309,93.410 162.220 C 95.059 157.077,101.038 144.162,102.400 142.800 C 102.510 142.690,102.825 142.195,103.100 141.700 C 104.341 139.465,104.643 138.992,105.300 138.245 C 105.685 137.807,106.000 137.213,106.000 136.925 C 106.000 136.636,106.138 136.400,106.306 136.400 C 106.474 136.400,107.056 135.680,107.600 134.800 C 108.144 133.920,108.726 133.200,108.894 133.200 C 109.062 133.200,109.200 132.945,109.200 132.633 C 109.200 132.322,109.351 132.007,109.536 131.933 C 109.721 131.860,110.548 130.900,111.374 129.800 C 115.716 124.016,124.016 115.716,129.800 111.374 C 130.900 110.548,131.860 109.721,131.933 109.536 C 132.007 109.351,132.322 109.200,132.633 109.200 C 132.945 109.200,133.200 109.062,133.200 108.894 C 133.200 108.726,133.920 108.144,134.800 107.600 C 135.680 107.056,136.400 106.474,136.400 106.306 C 136.400 106.138,136.636 106.000,136.925 106.000 C 137.213 106.000,137.807 105.685,138.245 105.300 C 138.683 104.915,139.392 104.403,139.820 104.162 C 140.249 103.922,141.050 103.472,141.600 103.162 C 142.150 102.853,142.690 102.510,142.800 102.400 C 143.509 101.691,153.298 96.804,156.173 95.724 C 157.068 95.388,158.340 94.876,159.000 94.587 C 161.033 93.697,163.765 92.812,164.500 92.806 C 164.885 92.803,165.200 92.620,165.200 92.400 C 165.200 92.180,165.729 92.000,166.376 92.000 C 167.023 92.000,167.664 91.820,167.800 91.600 C 167.936 91.380,168.566 91.200,169.200 91.200 C 169.834 91.200,170.464 91.020,170.600 90.800 C 170.736 90.580,171.456 90.400,172.200 90.400 C 172.944 90.400,173.664 90.220,173.800 90.000 C 173.936 89.780,174.746 89.600,175.600 89.600 C 176.454 89.600,177.264 89.420,177.400 89.200 C 177.536 88.980,178.436 88.800,179.400 88.800 C 180.364 88.800,181.264 88.620,181.400 88.400 C 181.536 88.180,182.762 87.997,184.124 87.994 C 185.486 87.991,186.870 87.810,187.200 87.594 C 187.846 87.169,210.463 87.335,215.400 87.801 M62.800 108.976 C 62.800 114.796,62.648 118.447,62.400 118.600 C 62.180 118.736,62.000 119.377,62.000 120.024 C 62.000 120.671,61.820 121.200,61.600 121.200 C 61.380 121.200,61.200 121.453,61.200 121.762 C 61.200 122.428,59.532 125.741,59.100 125.933 C 58.935 126.007,58.800 126.317,58.800 126.624 C 58.800 126.930,57.311 128.674,55.490 130.498 C 48.069 137.936,37.811 140.088,27.900 136.286 C 26.635 135.801,25.600 135.268,25.600 135.102 C 25.600 134.936,25.407 134.800,25.172 134.800 C 21.383 134.800,13.485 124.113,12.419 117.543 C 11.965 114.746,11.840 100.293,12.267 99.867 C 12.413 99.720,23.843 99.600,37.667 99.600 L 62.800 99.600 62.800 108.976 M194.400 100.861 C 182.624 101.699,168.256 105.012,161.505 108.447 C 161.123 108.641,160.538 108.800,160.205 108.800 C 159.872 108.800,159.600 108.980,159.600 109.200 C 159.600 109.420,159.355 109.600,159.056 109.600 C 158.552 109.600,153.648 111.943,153.200 112.398 C 153.090 112.510,152.460 112.865,151.800 113.188 C 151.140 113.511,149.848 114.276,148.928 114.888 C 148.008 115.499,147.146 116.000,147.011 116.000 C 146.876 116.000,146.549 116.185,146.283 116.411 C 146.017 116.636,144.900 117.395,143.800 118.096 C 142.700 118.797,141.710 119.483,141.600 119.621 C 141.490 119.759,140.590 120.454,139.600 121.165 C 138.610 121.876,137.133 123.074,136.317 123.829 C 135.502 124.583,134.735 125.200,134.613 125.200 C 134.324 125.200,125.200 134.324,125.200 134.613 C 125.200 134.735,124.583 135.502,123.829 136.317 C 123.074 137.133,121.876 138.610,121.165 139.600 C 120.454 140.590,119.759 141.490,119.621 141.600 C 119.483 141.710,118.797 142.700,118.096 143.800 C 117.395 144.900,116.636 146.017,116.411 146.283 C 116.185 146.549,116.000 146.876,116.000 147.011 C 116.000 147.146,115.499 148.008,114.888 148.928 C 114.276 149.848,113.511 151.140,113.188 151.800 C 112.865 152.460,112.510 153.090,112.398 153.200 C 111.943 153.648,109.600 158.552,109.600 159.056 C 109.600 159.355,109.420 159.600,109.200 159.600 C 108.980 159.600,108.800 159.872,108.800 160.205 C 108.800 160.538,108.641 161.123,108.447 161.505 C 104.915 168.448,101.648 182.812,100.896 194.700 C 100.118 207.008,102.850 225.304,106.882 234.800 C 107.116 235.350,107.484 236.250,107.700 236.800 C 107.916 237.350,108.252 238.113,108.447 238.495 C 108.641 238.877,108.800 239.462,108.800 239.795 C 108.800 240.128,108.980 240.400,109.200 240.400 C 109.420 240.400,109.599 240.625,109.597 240.900 C 109.593 241.533,112.888 248.154,113.296 248.333 C 113.463 248.407,113.600 248.644,113.600 248.861 C 113.600 249.078,114.140 250.041,114.800 251.000 C 115.460 251.959,116.000 252.854,116.000 252.989 C 116.000 253.124,116.185 253.451,116.411 253.717 C 116.636 253.983,117.395 255.100,118.096 256.200 C 118.797 257.300,119.480 258.290,119.613 258.400 C 119.747 258.510,120.605 259.590,121.521 260.800 C 122.437 262.010,123.684 263.624,124.293 264.387 C 125.613 266.041,134.295 274.800,134.614 274.800 C 134.736 274.800,135.288 275.251,135.839 275.803 C 137.470 277.434,146.457 284.000,147.058 284.000 C 147.167 284.000,148.008 284.501,148.928 285.112 C 149.848 285.724,151.140 286.489,151.800 286.812 C 152.460 287.135,153.090 287.490,153.200 287.602 C 153.648 288.057,158.552 290.400,159.056 290.400 C 159.355 290.400,159.600 290.580,159.600 290.800 C 159.600 291.020,159.872 291.200,160.205 291.200 C 160.538 291.200,161.123 291.359,161.505 291.553 C 162.541 292.080,165.566 293.301,167.400 293.932 C 178.768 297.846,193.854 299.915,205.300 299.132 C 217.279 298.312,230.375 295.466,236.495 292.353 C 236.877 292.159,237.552 292.000,237.995 292.000 C 238.438 292.000,238.800 291.820,238.800 291.600 C 238.800 291.380,239.025 291.201,239.300 291.203 C 239.935 291.206,248.155 287.114,248.333 286.705 C 248.407 286.537,248.644 286.400,248.861 286.400 C 249.078 286.400,250.041 285.860,251.000 285.200 C 251.959 284.540,252.833 284.000,252.942 284.000 C 253.436 284.000,260.633 278.817,264.381 275.761 C 266.022 274.424,274.138 266.233,275.911 264.125 C 278.650 260.868,284.000 253.472,284.000 252.942 C 284.000 252.833,284.540 251.959,285.200 251.000 C 285.860 250.041,286.400 249.078,286.400 248.861 C 286.400 248.644,286.537 248.407,286.704 248.333 C 287.112 248.154,290.407 241.533,290.403 240.900 C 290.401 240.625,290.580 240.400,290.800 240.400 C 291.020 240.400,291.200 240.040,291.200 239.600 C 291.200 239.160,291.380 238.800,291.600 238.800 C 291.820 238.800,292.000 238.438,292.000 237.995 C 292.000 237.552,292.159 236.877,292.353 236.495 C 296.770 227.813,300.025 207.744,299.132 194.700 C 298.319 182.815,295.442 169.577,292.353 163.505 C 292.159 163.123,292.000 162.448,292.000 162.005 C 292.000 161.562,291.820 161.200,291.600 161.200 C 291.380 161.200,291.200 160.840,291.200 160.400 C 291.200 159.960,291.020 159.600,290.800 159.600 C 290.580 159.600,290.400 159.355,290.400 159.055 C 290.400 158.238,286.428 150.700,284.753 148.338 C 284.339 147.754,284.000 147.183,284.000 147.068 C 284.000 146.459,277.451 137.487,275.803 135.839 C 275.251 135.288,274.800 134.733,274.800 134.606 C 274.800 134.350,265.835 125.431,264.377 124.239 C 263.866 123.820,262.357 122.657,261.024 121.654 C 259.691 120.651,258.510 119.734,258.400 119.615 C 258.045 119.231,253.182 116.000,252.960 116.000 C 252.841 116.000,251.959 115.460,251.000 114.800 C 250.041 114.140,249.078 113.600,248.861 113.600 C 248.644 113.600,248.407 113.463,248.333 113.295 C 248.208 113.009,240.343 109.058,238.600 108.406 C 238.160 108.242,237.305 107.903,236.700 107.654 C 236.095 107.404,235.195 107.033,234.700 106.829 C 228.288 104.184,214.968 101.444,206.400 101.006 C 203.870 100.877,201.260 100.711,200.600 100.638 C 199.940 100.565,197.150 100.666,194.400 100.861 M194.119 115.700 C 194.460 122.010,195.941 124.133,200.000 124.133 C 204.072 124.133,205.541 122.013,205.882 115.642 L 206.062 112.285 209.571 112.534 C 217.027 113.063,228.536 116.086,234.738 119.143 C 235.694 119.614,236.729 120.000,237.038 120.000 C 237.347 120.000,237.600 120.180,237.600 120.400 C 237.600 120.620,237.960 120.800,238.400 120.800 C 238.840 120.800,239.200 120.980,239.200 121.200 C 239.200 121.420,239.545 121.600,239.967 121.600 C 240.388 121.600,240.793 121.735,240.867 121.900 C 240.940 122.065,241.855 122.633,242.900 123.163 C 243.945 123.692,244.800 124.277,244.800 124.463 C 244.800 124.648,245.160 124.800,245.600 124.800 C 246.040 124.800,246.400 124.980,246.400 125.200 C 246.400 125.420,246.670 125.600,247.000 125.600 C 247.330 125.600,247.600 125.780,247.600 126.000 C 247.600 126.220,247.870 126.400,248.200 126.400 C 248.530 126.400,248.800 126.580,248.800 126.800 C 248.800 127.020,248.975 127.200,249.188 127.200 C 249.608 127.200,255.231 131.371,256.700 132.773 C 257.960 133.975,257.927 134.055,254.800 137.428 C 251.165 141.348,250.856 143.656,253.600 146.400 C 256.533 149.333,259.316 148.753,263.669 144.302 C 265.460 142.470,266.804 142.336,267.822 143.890 C 268.215 144.489,268.885 145.344,269.311 145.790 C 269.983 146.493,271.208 148.186,272.600 150.338 C 272.820 150.678,273.315 151.315,273.700 151.754 C 274.085 152.192,274.400 152.787,274.400 153.075 C 274.400 153.364,274.580 153.600,274.800 153.600 C 275.020 153.600,275.200 153.960,275.200 154.400 C 275.200 154.840,275.352 155.200,275.537 155.200 C 275.723 155.200,276.308 156.055,276.837 157.100 C 277.367 158.145,277.935 159.060,278.100 159.133 C 278.265 159.207,278.400 159.612,278.400 160.033 C 278.400 160.455,278.580 160.800,278.800 160.800 C 279.020 160.800,279.200 161.160,279.200 161.600 C 279.200 162.040,279.380 162.400,279.600 162.400 C 279.820 162.400,280.000 162.653,280.000 162.962 C 280.000 163.271,280.386 164.306,280.857 165.262 C 281.328 166.218,281.889 167.450,282.103 168.000 C 282.318 168.550,282.652 169.313,282.847 169.695 C 283.041 170.077,283.200 170.741,283.200 171.171 C 283.200 171.601,283.359 172.051,283.554 172.171 C 283.749 172.292,284.004 172.887,284.121 173.495 C 284.238 174.103,284.541 175.320,284.794 176.200 C 286.299 181.441,287.718 189.581,287.792 193.400 C 287.797 193.620,286.270 193.914,284.400 194.054 C 277.879 194.542,275.867 195.944,275.867 200.000 C 275.867 204.033,277.981 205.526,284.197 205.883 C 285.956 205.984,287.496 206.232,287.621 206.433 C 288.190 207.354,286.453 218.022,284.794 223.800 C 284.541 224.680,284.238 225.897,284.121 226.505 C 284.004 227.113,283.749 227.708,283.554 227.829 C 283.359 227.949,283.200 228.399,283.200 228.829 C 283.200 229.259,283.041 229.923,282.847 230.305 C 282.652 230.687,282.318 231.450,282.103 232.000 C 281.889 232.550,281.328 233.782,280.857 234.738 C 280.386 235.694,280.000 236.729,280.000 237.038 C 280.000 237.347,279.820 237.600,279.600 237.600 C 279.380 237.600,279.200 237.960,279.200 238.400 C 279.200 238.840,279.020 239.200,278.800 239.200 C 278.580 239.200,278.400 239.560,278.400 240.000 C 278.400 240.440,278.220 240.800,278.000 240.800 C 277.780 240.800,277.600 241.160,277.600 241.600 C 277.600 242.040,277.420 242.400,277.200 242.400 C 276.980 242.400,276.800 242.636,276.800 242.925 C 276.800 243.213,276.440 243.836,276.000 244.308 C 275.560 244.780,275.200 245.444,275.200 245.783 C 275.200 246.122,275.020 246.400,274.800 246.400 C 274.580 246.400,274.400 246.636,274.400 246.925 C 274.400 247.213,274.040 247.836,273.600 248.308 C 273.160 248.780,272.800 249.310,272.800 249.486 C 272.800 249.956,267.256 256.937,266.584 257.313 C 265.824 257.738,264.782 257.141,263.259 255.406 C 259.521 251.149,254.641 250.854,252.619 254.762 C 251.195 257.517,251.806 259.443,255.254 263.065 C 257.827 265.769,257.947 266.071,256.863 267.100 C 255.032 268.838,249.928 272.773,249.483 272.789 C 249.309 272.795,248.780 273.160,248.308 273.600 C 247.836 274.040,247.213 274.400,246.925 274.400 C 246.636 274.400,246.400 274.580,246.400 274.800 C 246.400 275.020,246.040 275.200,245.600 275.200 C 245.160 275.200,244.800 275.352,244.800 275.537 C 244.800 275.723,243.945 276.308,242.900 276.837 C 241.855 277.367,240.940 277.935,240.867 278.100 C 240.793 278.265,240.388 278.400,239.967 278.400 C 239.545 278.400,239.200 278.580,239.200 278.800 C 239.200 279.020,238.840 279.200,238.400 279.200 C 237.960 279.200,237.600 279.380,237.600 279.600 C 237.600 279.820,237.347 280.000,237.038 280.000 C 236.729 280.000,235.694 280.386,234.738 280.857 C 233.782 281.328,232.550 281.889,232.000 282.103 C 231.450 282.318,230.687 282.652,230.305 282.847 C 229.923 283.041,229.336 283.200,229.000 283.200 C 228.664 283.200,228.077 283.358,227.695 283.551 C 226.856 283.975,224.562 284.635,219.400 285.938 C 215.961 286.806,209.549 287.735,206.600 287.792 C 206.380 287.797,206.086 286.270,205.946 284.400 C 205.458 277.879,204.056 275.867,200.000 275.867 C 195.944 275.867,194.542 277.879,194.054 284.400 C 193.914 286.270,193.620 287.797,193.400 287.792 C 189.581 287.718,181.441 286.299,176.200 284.794 C 175.320 284.541,174.103 284.238,173.495 284.121 C 172.887 284.004,172.292 283.749,172.171 283.554 C 172.051 283.359,171.601 283.200,171.171 283.200 C 170.741 283.200,170.077 283.041,169.695 282.847 C 169.313 282.652,168.550 282.318,168.000 282.103 C 167.450 281.889,166.218 281.328,165.262 280.857 C 164.306 280.386,163.271 280.000,162.962 280.000 C 162.653 280.000,162.400 279.820,162.400 279.600 C 162.400 279.380,162.040 279.200,161.600 279.200 C 161.160 279.200,160.800 279.020,160.800 278.800 C 160.800 278.580,160.455 278.400,160.033 278.400 C 159.612 278.400,159.207 278.265,159.133 278.100 C 159.060 277.935,158.145 277.367,157.100 276.837 C 156.055 276.308,155.200 275.723,155.200 275.537 C 155.200 275.352,154.840 275.200,154.400 275.200 C 153.960 275.200,153.600 275.020,153.600 274.800 C 153.600 274.580,153.364 274.400,153.075 274.400 C 152.787 274.400,152.164 274.040,151.692 273.600 C 151.220 273.160,150.738 272.800,150.621 272.800 C 150.349 272.800,145.710 269.300,144.404 268.108 C 143.856 267.609,143.271 267.200,143.104 267.200 C 142.165 267.200,142.947 264.996,144.373 263.625 C 148.806 259.367,149.244 255.079,145.481 252.784 C 142.750 251.119,140.638 251.729,136.935 255.254 C 134.163 257.891,133.972 257.958,132.773 256.700 C 131.371 255.231,127.200 249.608,127.200 249.188 C 127.200 248.975,127.020 248.800,126.800 248.800 C 126.580 248.800,126.400 248.530,126.400 248.200 C 126.400 247.870,126.220 247.600,126.000 247.600 C 125.780 247.600,125.600 247.330,125.600 247.000 C 125.600 246.670,125.420 246.400,125.200 246.400 C 124.980 246.400,124.800 246.040,124.800 245.600 C 124.800 245.160,124.648 244.800,124.463 244.800 C 124.277 244.800,123.692 243.945,123.163 242.900 C 122.633 241.855,122.065 240.940,121.900 240.867 C 121.735 240.793,121.600 240.388,121.600 239.967 C 121.600 239.545,121.420 239.200,121.200 239.200 C 120.980 239.200,120.800 238.840,120.800 238.400 C 120.800 237.960,120.620 237.600,120.400 237.600 C 120.180 237.600,120.000 237.347,120.000 237.038 C 120.000 236.729,119.614 235.694,119.143 234.738 C 116.086 228.536,113.063 217.027,112.534 209.571 L 112.285 206.062 115.642 205.882 C 122.013 205.541,124.133 204.072,124.133 200.000 C 124.133 195.928,122.013 194.459,115.642 194.118 L 112.285 193.938 112.534 190.429 C 113.063 182.973,116.086 171.464,119.143 165.262 C 119.614 164.306,120.000 163.271,120.000 162.962 C 120.000 162.653,120.180 162.400,120.400 162.400 C 120.620 162.400,120.800 162.040,120.800 161.600 C 120.800 161.160,120.980 160.800,121.200 160.800 C 121.420 160.800,121.600 160.455,121.600 160.033 C 121.600 159.612,121.735 159.207,121.900 159.133 C 122.065 159.060,122.633 158.145,123.163 157.100 C 123.692 156.055,124.277 155.200,124.463 155.200 C 124.648 155.200,124.800 154.840,124.800 154.400 C 124.800 153.960,124.980 153.600,125.200 153.600 C 125.420 153.600,125.600 153.330,125.600 153.000 C 125.600 152.670,125.780 152.400,126.000 152.400 C 126.220 152.400,126.400 152.130,126.400 151.800 C 126.400 151.470,126.580 151.200,126.800 151.200 C 127.020 151.200,127.200 151.024,127.200 150.808 C 127.200 150.593,127.933 149.468,128.829 148.308 C 129.725 147.149,131.030 145.442,131.729 144.516 C 133.431 142.260,134.600 142.239,136.579 144.429 C 139.781 147.973,142.727 148.895,145.481 147.216 C 149.140 144.985,148.885 140.976,144.831 137.015 C 142.243 134.485,142.183 133.489,144.516 131.729 C 145.442 131.030,147.149 129.725,148.308 128.829 C 149.468 127.933,150.593 127.200,150.808 127.200 C 151.024 127.200,151.200 127.020,151.200 126.800 C 151.200 126.580,151.470 126.400,151.800 126.400 C 152.130 126.400,152.400 126.220,152.400 126.000 C 152.400 125.780,152.670 125.600,153.000 125.600 C 153.330 125.600,153.600 125.420,153.600 125.200 C 153.600 124.980,153.960 124.800,154.400 124.800 C 154.840 124.800,155.200 124.648,155.200 124.463 C 155.200 124.277,156.055 123.692,157.100 123.163 C 158.145 122.633,159.060 122.065,159.133 121.900 C 159.207 121.735,159.612 121.600,160.033 121.600 C 160.455 121.600,160.800 121.420,160.800 121.200 C 160.800 120.980,161.160 120.800,161.600 120.800 C 162.040 120.800,162.400 120.620,162.400 120.400 C 162.400 120.180,162.642 120.000,162.939 120.000 C 163.235 120.000,164.000 119.750,164.639 119.444 C 170.171 116.794,178.596 114.235,185.200 113.199 C 186.850 112.940,188.470 112.675,188.800 112.610 C 189.130 112.546,190.422 112.472,191.671 112.446 L 193.941 112.400 194.119 115.700 M37.600 149.337 C 38.150 149.337,39.976 149.193,41.658 149.017 L 44.716 148.697 44.969 150.849 C 45.109 152.032,45.399 156.870,45.615 161.600 C 45.831 166.330,46.181 173.800,46.395 178.200 C 46.936 189.363,47.530 201.739,47.995 211.500 C 48.212 216.065,48.570 223.580,48.790 228.200 C 49.010 232.820,49.370 240.380,49.589 245.000 C 50.036 254.378,50.596 266.102,51.186 278.400 C 51.402 282.910,51.757 290.470,51.975 295.200 C 52.194 299.930,52.553 307.580,52.774 312.200 C 52.995 316.820,53.354 324.560,53.572 329.400 C 54.074 340.586,54.715 354.122,55.193 363.615 C 55.489 369.515,55.453 371.568,55.014 373.667 C 51.437 390.764,28.330 393.318,21.241 377.400 C 20.947 376.740,20.513 375.840,20.277 375.400 C 19.800 374.510,19.829 353.789,20.309 353.037 C 20.463 352.797,20.732 348.640,20.908 343.800 C 21.208 335.502,21.455 329.991,22.401 310.400 C 22.619 305.890,22.983 298.330,23.210 293.600 C 23.437 288.870,23.794 281.490,24.003 277.200 C 24.213 272.910,24.562 265.620,24.780 261.000 C 24.998 256.380,25.365 248.640,25.596 243.800 C 26.380 227.367,26.769 219.019,27.172 210.000 C 27.393 205.050,27.746 197.310,27.957 192.800 C 28.167 188.290,28.531 179.920,28.764 174.200 C 29.302 161.004,29.997 149.529,30.286 149.061 C 30.415 148.851,31.788 148.833,33.555 149.018 C 35.230 149.194,37.050 149.337,37.600 149.337 M198.422 157.084 C 194.889 157.777,194.290 159.940,194.117 172.608 L 193.975 183.016 192.688 183.573 C 188.077 185.569,185.030 188.958,182.773 194.600 C 182.435 195.446,181.804 199.963,181.944 200.539 C 181.989 200.725,182.127 201.715,182.251 202.739 C 182.375 203.763,182.741 205.192,183.064 205.915 C 184.029 208.075,183.787 208.402,173.581 218.696 C 163.555 228.808,162.247 230.507,163.122 232.277 C 164.615 235.300,164.720 235.405,167.698 236.863 C 169.694 237.840,171.358 236.570,181.563 226.285 C 192.056 215.710,192.613 215.322,194.580 217.231 C 194.789 217.434,195.510 217.600,196.183 217.600 C 196.855 217.600,197.944 217.754,198.603 217.943 C 200.229 218.408,206.104 217.352,208.189 216.220 C 212.053 214.122,214.163 212.013,216.223 208.189 C 217.355 206.089,218.407 200.225,217.943 198.603 C 217.754 197.944,217.600 196.830,217.600 196.126 C 217.600 195.423,217.420 194.736,217.200 194.600 C 216.980 194.464,216.800 194.031,216.800 193.638 C 216.800 191.004,211.507 185.388,207.312 183.573 L 206.025 183.016 205.883 172.608 C 205.689 158.381,204.494 155.893,198.422 157.084 M204.782 195.429 C 206.559 197.170,206.565 197.184,206.565 200.000 L 206.565 202.825 204.695 204.695 L 202.825 206.565 200.000 206.565 L 197.175 206.565 195.329 204.718 L 193.482 202.872 193.482 200.011 C 193.482 193.732,200.249 190.989,204.782 195.429 M387.912 311.200 C 387.997 357.667,387.909 373.038,387.549 374.400 C 384.441 386.163,370.829 391.650,360.205 385.424 C 358.123 384.204,354.400 380.541,354.400 379.713 C 354.400 379.431,354.264 379.200,354.098 379.200 C 353.931 379.200,353.556 378.615,353.264 377.900 C 352.972 377.185,352.582 376.240,352.397 375.800 C 351.332 373.269,351.228 369.514,351.978 360.800 C 352.234 357.830,352.605 353.330,352.803 350.800 C 353.000 348.270,353.359 343.860,353.600 341.000 C 353.841 338.140,354.202 333.730,354.402 331.200 C 355.002 323.606,355.911 312.352,356.786 301.700 C 357.387 294.376,358.567 279.815,359.176 272.200 C 359.387 269.560,359.740 264.970,359.960 262.000 C 360.580 253.645,360.847 250.644,361.020 250.095 C 361.145 249.698,364.042 249.612,374.490 249.695 L 387.800 249.800 387.912 311.200 " stroke="none" fill="#000000" fill-rule="evenodd"></path></g></svg>