<svg id="svg" xmlns="http://www.w3.org/2000/svg" xmlns:xlink="http://www.w3.org/1999/xlink" width="400" height="400" viewBox="0, 0, 400,400" version="1.1"><g id="svgg"><path id="path0" d="" stroke="none" fill="#040404" fill-rule="evenodd"></path><path id="path1" d="M69.455 0.600 C 69.286 1.042,68.588 1.200,66.813 1.200 C 65.471 1.200,64.400 1.378,64.400 1.600 C 64.400 1.820,63.860 2.000,63.200 2.000 C 62.540 2.000,62.000 2.180,62.000 2.400 C 62.000 2.620,61.640 2.800,61.200 2.800 C 60.760 2.800,60.400 2.980,60.400 3.200 C 60.400 3.420,60.150 3.600,59.846 3.600 C 59.319 3.600,54.400 8.061,54.400 8.539 C 54.400 8.663,53.860 9.681,53.200 10.800 C 52.540 11.919,52.000 13.267,52.000 13.794 C 52.000 14.321,51.820 14.864,51.600 15.000 C 51.045 15.343,51.045 384.657,51.600 385.000 C 51.820 385.136,52.000 385.681,52.000 386.211 C 52.000 386.742,52.343 387.786,52.762 388.533 C 53.182 389.280,53.767 390.317,54.062 390.838 C 54.843 392.216,59.195 396.400,59.846 396.400 C 60.150 396.400,60.400 396.580,60.400 396.800 C 60.400 397.020,60.760 397.200,61.200 397.200 C 61.640 397.200,62.000 397.380,62.000 397.600 C 62.000 397.820,62.540 398.000,63.200 398.000 C 63.860 398.000,64.400 398.180,64.400 398.400 C 64.400 398.622,65.471 398.800,66.813 398.800 C 68.588 398.800,69.286 398.958,69.455 399.400 C 69.805 400.311,135.106 400.311,135.455 399.400 C 135.624 398.961,136.316 398.800,138.043 398.800 C 139.348 398.800,140.400 398.621,140.400 398.400 C 140.400 398.180,140.940 398.000,141.600 398.000 C 142.260 398.000,142.800 397.862,142.800 397.694 C 142.800 397.526,143.475 397.089,144.300 396.724 C 146.120 395.916,151.200 391.148,151.200 390.247 C 151.200 389.891,151.380 389.600,151.600 389.600 C 151.820 389.600,152.000 389.240,152.000 388.800 C 152.000 388.360,152.180 388.000,152.400 388.000 C 152.620 388.000,152.800 387.460,152.800 386.800 C 152.800 386.140,152.980 385.600,153.200 385.600 C 153.422 385.600,153.600 384.533,153.600 383.200 C 153.600 381.867,153.778 380.800,154.000 380.800 C 154.266 380.800,154.400 320.267,154.400 200.000 C 154.400 79.733,154.266 19.200,154.000 19.200 C 153.778 19.200,153.600 18.133,153.600 16.800 C 153.600 15.467,153.422 14.400,153.200 14.400 C 152.980 14.400,152.800 13.860,152.800 13.200 C 152.800 12.540,152.620 12.000,152.400 12.000 C 152.180 12.000,152.000 11.640,152.000 11.200 C 152.000 10.760,151.820 10.400,151.600 10.400 C 151.380 10.400,151.200 10.116,151.200 9.769 C 151.200 8.790,146.110 4.070,144.092 3.177 C 143.382 2.862,142.800 2.469,142.800 2.302 C 142.800 2.136,142.260 2.000,141.600 2.000 C 140.940 2.000,140.400 1.820,140.400 1.600 C 140.400 1.379,139.348 1.200,138.043 1.200 C 136.316 1.200,135.624 1.039,135.455 0.600 C 135.106 -0.311,69.805 -0.311,69.455 0.600 M263.300 1.115 C 261.265 1.178,259.600 1.403,259.600 1.615 C 259.600 1.827,259.060 2.000,258.400 2.000 C 257.740 2.000,257.200 2.180,257.200 2.400 C 257.200 2.620,256.671 2.800,256.024 2.800 C 255.377 2.800,254.736 2.980,254.600 3.200 C 254.464 3.420,254.011 3.600,253.594 3.600 C 253.177 3.600,251.972 4.097,250.918 4.704 C 249.863 5.311,248.460 6.073,247.800 6.396 C 247.140 6.719,246.043 7.392,245.362 7.892 C 244.681 8.391,243.995 8.800,243.836 8.800 C 243.294 8.800,238.015 14.486,236.410 16.800 C 235.876 17.570,235.340 18.290,235.219 18.400 C 235.002 18.598,234.684 19.138,233.125 21.955 C 232.685 22.750,232.162 23.571,231.962 23.780 C 231.763 23.989,231.600 24.574,231.600 25.080 C 231.600 25.586,231.420 26.000,231.200 26.000 C 230.980 26.000,230.800 26.540,230.800 27.200 C 230.800 27.860,230.620 28.400,230.400 28.400 C 230.180 28.400,230.000 28.929,230.000 29.576 C 230.000 30.223,229.820 30.864,229.600 31.000 C 229.380 31.136,229.200 32.126,229.200 33.200 C 229.200 34.274,229.020 35.264,228.800 35.400 C 228.579 35.536,228.400 37.330,228.400 39.400 C 228.400 41.470,228.579 43.264,228.800 43.400 C 229.020 43.536,229.200 44.436,229.200 45.400 C 229.200 46.364,229.380 47.264,229.600 47.400 C 229.820 47.536,230.000 48.177,230.000 48.824 C 230.000 49.471,230.180 50.000,230.400 50.000 C 230.620 50.000,230.800 50.630,230.800 51.400 C 230.800 52.170,230.980 52.800,231.200 52.800 C 231.420 52.800,231.600 53.160,231.600 53.600 C 231.600 54.040,231.780 54.400,232.000 54.400 C 232.220 54.400,232.400 54.760,232.400 55.200 C 232.400 55.640,232.580 56.000,232.800 56.000 C 233.020 56.000,233.200 56.360,233.200 56.800 C 233.200 57.240,233.380 57.600,233.600 57.600 C 233.820 57.600,234.000 57.960,234.000 58.400 C 234.000 58.840,234.180 59.200,234.400 59.200 C 234.620 59.200,234.800 59.403,234.800 59.652 C 234.800 59.900,235.385 60.766,236.100 61.576 C 236.815 62.387,237.940 63.749,238.600 64.604 C 240.179 66.649,242.332 68.800,242.800 68.800 C 243.005 68.800,243.803 69.430,244.573 70.200 C 245.343 70.970,246.234 71.600,246.553 71.600 C 246.872 71.600,247.193 71.735,247.267 71.900 C 247.340 72.065,248.255 72.633,249.300 73.163 C 250.345 73.692,251.200 74.257,251.200 74.417 C 251.200 74.578,251.695 74.802,252.300 74.916 C 252.905 75.030,254.390 75.432,255.600 75.808 C 256.810 76.184,258.476 76.581,259.303 76.688 C 260.129 76.796,260.905 77.045,261.026 77.242 C 261.148 77.439,263.926 77.600,267.200 77.600 C 270.474 77.600,273.252 77.439,273.374 77.242 C 273.495 77.045,274.271 76.796,275.097 76.688 C 275.924 76.581,277.590 76.184,278.800 75.808 C 280.010 75.432,281.495 75.030,282.100 74.916 C 282.705 74.802,283.200 74.550,283.200 74.355 C 283.200 74.160,283.470 74.000,283.800 74.000 C 284.130 74.000,284.400 73.854,284.400 73.675 C 284.400 73.496,285.030 73.102,285.800 72.800 C 286.570 72.498,287.200 72.104,287.200 71.925 C 287.200 71.746,287.467 71.600,287.793 71.600 C 289.215 71.600,299.600 61.070,299.600 59.628 C 299.600 59.393,299.780 59.200,300.000 59.200 C 300.220 59.200,300.400 58.855,300.400 58.433 C 300.400 58.012,300.535 57.607,300.700 57.533 C 301.132 57.341,302.800 54.028,302.800 53.362 C 302.800 53.053,302.980 52.800,303.200 52.800 C 303.420 52.800,303.600 52.260,303.600 51.600 C 303.600 50.940,303.780 50.400,304.000 50.400 C 304.220 50.400,304.400 49.770,304.400 49.000 C 304.400 48.230,304.580 47.600,304.800 47.600 C 305.020 47.600,305.200 46.700,305.200 45.600 C 305.200 44.500,305.380 43.600,305.600 43.600 C 305.841 43.600,306.000 41.933,306.000 39.400 C 306.000 36.867,305.841 35.200,305.600 35.200 C 305.380 35.200,305.200 34.210,305.200 33.000 C 305.200 31.790,305.020 30.800,304.800 30.800 C 304.580 30.800,304.400 30.260,304.400 29.600 C 304.400 28.940,304.220 28.400,304.000 28.400 C 303.780 28.400,303.600 27.860,303.600 27.200 C 303.600 26.540,303.420 26.000,303.200 26.000 C 302.980 26.000,302.800 25.638,302.800 25.195 C 302.800 24.477,302.140 22.940,301.600 22.400 C 301.407 22.207,300.724 21.054,299.822 19.400 C 297.983 16.025,290.618 8.000,289.360 8.000 C 289.052 8.000,288.800 7.855,288.800 7.677 C 288.800 7.499,288.035 7.017,287.100 6.606 C 286.165 6.194,284.537 5.349,283.482 4.729 C 282.428 4.108,281.223 3.600,280.806 3.600 C 280.389 3.600,279.936 3.420,279.800 3.200 C 279.664 2.980,279.023 2.800,278.376 2.800 C 277.729 2.800,277.200 2.620,277.200 2.400 C 277.200 2.180,276.675 2.000,276.033 2.000 C 275.392 2.000,274.807 1.837,274.733 1.638 C 274.579 1.219,268.661 0.948,263.300 1.115 M136.307 28.900 L 136.200 39.400 123.400 39.635 C 108.543 39.908,105.982 40.342,104.715 42.800 C 104.432 43.350,103.885 44.149,103.500 44.575 C 102.316 45.888,102.510 51.062,103.800 52.562 C 104.350 53.201,104.800 53.868,104.800 54.043 C 104.800 54.804,108.399 56.800,109.772 56.800 C 110.557 56.800,111.200 56.980,111.200 57.200 C 111.200 57.458,115.669 57.600,123.808 57.600 L 136.417 57.600 136.308 65.700 L 136.200 73.800 125.320 74.000 C 117.375 74.146,114.304 74.335,113.940 74.700 C 113.665 74.975,113.200 75.200,112.907 75.200 C 111.832 75.200,108.800 78.888,108.800 80.195 C 108.800 80.528,108.620 80.800,108.400 80.800 C 108.180 80.800,108.000 81.509,108.000 82.376 C 108.000 83.243,108.180 84.064,108.400 84.200 C 108.620 84.336,108.800 84.887,108.800 85.424 C 108.800 85.961,108.980 86.400,109.200 86.400 C 109.420 86.400,109.600 86.678,109.600 87.018 C 109.600 87.774,111.363 89.600,112.094 89.600 C 112.385 89.600,112.883 89.960,113.200 90.400 C 113.753 91.167,114.235 91.200,124.846 91.200 C 134.570 91.200,135.944 91.277,136.157 91.833 C 136.291 92.181,136.400 95.961,136.400 100.233 L 136.400 108.000 123.224 108.000 C 114.871 108.000,109.957 108.146,109.800 108.400 C 109.664 108.620,109.063 108.800,108.465 108.800 C 107.835 108.800,107.133 109.137,106.800 109.600 C 106.483 110.040,106.070 110.400,105.883 110.400 C 105.409 110.400,104.702 111.203,104.032 112.500 C 103.720 113.105,103.315 113.600,103.132 113.600 C 102.603 113.600,102.747 119.516,103.300 120.505 C 103.988 121.737,106.826 124.585,107.800 125.021 C 108.240 125.218,114.810 125.474,122.400 125.590 L 136.200 125.800 136.200 134.000 L 136.200 142.200 125.400 142.412 C 115.132 142.613,112.800 142.842,112.800 143.647 C 112.800 143.841,112.506 144.000,112.147 144.000 C 111.416 144.000,109.601 145.925,109.600 146.700 C 109.600 146.975,109.420 147.200,109.200 147.200 C 108.980 147.200,108.800 147.639,108.800 148.176 C 108.800 148.713,108.620 149.264,108.400 149.400 C 107.878 149.722,107.878 152.800,108.400 152.800 C 108.620 152.800,108.800 153.259,108.800 153.819 C 108.800 155.107,111.832 158.264,113.677 158.896 C 114.455 159.163,119.365 159.442,125.600 159.575 L 136.200 159.800 136.314 167.400 C 136.376 171.580,136.328 175.405,136.206 175.900 L 135.985 176.800 121.992 176.800 C 112.931 176.800,108.000 176.941,108.000 177.200 C 108.000 177.420,107.757 177.600,107.459 177.600 C 106.974 177.600,105.339 179.034,104.154 180.499 C 102.513 182.528,102.155 188.158,103.600 189.200 C 104.040 189.517,104.400 190.020,104.400 190.317 C 104.400 190.938,105.361 192.000,105.922 192.000 C 106.131 192.000,106.510 192.251,106.765 192.558 C 107.555 193.509,109.781 193.698,123.200 193.953 L 136.200 194.200 136.308 202.300 L 136.417 210.400 126.832 210.400 C 120.874 210.400,117.154 210.551,117.000 210.800 C 116.864 211.020,116.043 211.200,115.176 211.200 C 114.309 211.200,113.600 211.380,113.600 211.600 C 113.600 211.820,113.365 212.000,113.078 212.000 C 112.303 212.000,109.600 214.607,109.600 215.354 C 109.600 215.709,109.420 216.000,109.200 216.000 C 108.980 216.000,108.800 216.349,108.800 216.776 C 108.800 217.203,108.620 217.664,108.400 217.800 C 107.880 218.122,107.880 221.078,108.400 221.400 C 108.620 221.536,108.800 221.997,108.800 222.424 C 108.800 222.851,108.980 223.200,109.200 223.200 C 109.420 223.200,109.600 223.520,109.600 223.912 C 109.600 224.303,109.982 224.888,110.449 225.212 C 110.916 225.535,111.505 225.997,111.757 226.237 C 112.621 227.058,113.947 227.600,115.094 227.600 C 115.724 227.600,116.417 227.777,116.633 227.993 C 116.861 228.221,121.029 228.430,126.613 228.493 L 136.200 228.600 136.308 236.700 L 136.417 244.800 123.408 244.800 C 115.003 244.800,110.400 244.942,110.400 245.200 C 110.400 245.420,109.804 245.600,109.075 245.600 C 108.304 245.600,107.392 245.934,106.892 246.400 C 106.420 246.840,105.923 247.200,105.788 247.200 C 105.403 247.200,104.653 248.098,104.032 249.300 C 103.720 249.905,103.315 250.400,103.132 250.400 C 102.643 250.400,102.728 256.317,103.231 257.258 C 103.964 258.627,104.928 259.620,106.800 260.936 L 108.600 262.200 121.600 262.311 C 128.750 262.372,135.005 262.510,135.500 262.618 C 136.398 262.815,136.400 262.837,136.400 271.008 L 136.400 279.200 125.824 279.200 C 119.204 279.200,115.155 279.350,115.000 279.600 C 114.864 279.820,114.396 280.000,113.960 280.000 C 113.523 280.000,112.780 280.360,112.308 280.800 C 111.836 281.240,111.213 281.600,110.925 281.600 C 110.636 281.600,110.400 281.920,110.400 282.312 C 110.400 282.703,110.040 283.283,109.600 283.600 C 109.160 283.917,108.800 284.576,108.800 285.065 C 108.800 285.553,108.620 286.064,108.400 286.200 C 107.878 286.522,107.878 289.600,108.400 289.600 C 108.620 289.600,108.800 290.100,108.800 290.712 C 108.800 291.365,109.130 292.061,109.600 292.400 C 110.040 292.717,110.400 293.185,110.400 293.440 C 110.400 293.695,110.940 294.127,111.600 294.400 C 112.260 294.673,112.800 295.055,112.800 295.249 C 112.800 295.442,113.214 295.600,113.720 295.600 C 114.226 295.600,114.817 295.777,115.033 295.993 C 115.265 296.225,119.696 296.430,125.813 296.493 L 136.200 296.600 136.200 305.000 L 136.200 313.400 122.800 313.498 C 106.968 313.614,106.095 313.848,103.300 318.718 C 102.597 319.942,102.648 325.004,103.372 325.895 C 103.687 326.283,104.423 327.185,105.008 327.900 C 105.593 328.615,106.325 329.200,106.636 329.200 C 106.946 329.200,107.200 329.380,107.200 329.600 C 107.200 329.820,107.740 330.000,108.400 330.000 C 109.060 330.000,109.600 330.178,109.600 330.395 C 109.600 330.644,114.492 330.828,122.900 330.895 L 136.200 331.000 136.200 339.400 L 136.200 347.800 125.041 347.906 C 114.482 348.007,113.846 348.056,113.194 348.806 C 112.816 349.243,112.294 349.600,112.035 349.600 C 111.351 349.600,109.600 351.457,109.600 352.182 C 109.600 352.522,109.420 352.800,109.200 352.800 C 108.980 352.800,108.800 353.239,108.800 353.776 C 108.800 354.313,108.620 354.864,108.400 355.000 C 107.878 355.322,107.878 358.400,108.400 358.400 C 108.620 358.400,108.800 358.726,108.800 359.125 C 108.800 359.523,109.160 360.236,109.600 360.708 C 110.040 361.180,110.400 361.742,110.400 361.956 C 110.400 362.171,110.760 362.460,111.200 362.600 C 111.640 362.740,112.000 362.993,112.000 363.163 C 112.000 363.623,113.896 364.400,115.019 364.400 C 115.558 364.400,116.000 364.580,116.000 364.800 C 116.000 365.056,119.667 365.200,126.200 365.200 L 136.400 365.200 136.400 373.400 L 136.400 381.600 102.400 381.600 L 68.400 381.600 68.400 200.000 L 68.400 18.400 102.407 18.400 L 136.413 18.400 136.307 28.900 M272.600 18.800 C 272.736 19.020,273.276 19.200,273.800 19.200 C 274.324 19.200,274.864 19.380,275.000 19.600 C 275.136 19.820,275.597 20.000,276.024 20.000 C 276.451 20.000,276.800 20.180,276.800 20.400 C 276.800 20.620,277.160 20.800,277.600 20.800 C 278.040 20.800,278.400 20.941,278.400 21.114 C 278.400 21.286,278.918 21.733,279.551 22.107 C 282.611 23.915,287.200 30.116,287.200 32.444 C 287.200 32.834,287.357 33.250,287.550 33.369 C 288.605 34.021,288.606 44.778,287.551 45.430 C 287.358 45.549,287.200 45.991,287.200 46.411 C 287.200 47.102,286.879 47.790,285.138 50.829 C 283.672 53.387,278.273 58.000,276.744 58.000 C 276.335 58.000,276.000 58.180,276.000 58.400 C 276.000 58.620,275.651 58.800,275.224 58.800 C 274.797 58.800,274.336 58.980,274.200 59.200 C 274.064 59.420,273.434 59.600,272.800 59.600 C 272.166 59.600,271.536 59.780,271.400 60.000 C 271.262 60.223,269.404 60.400,267.200 60.400 C 264.996 60.400,263.138 60.223,263.000 60.000 C 262.864 59.780,262.133 59.600,261.376 59.600 C 260.619 59.600,260.000 59.420,260.000 59.200 C 260.000 58.980,259.640 58.800,259.200 58.800 C 258.760 58.800,258.400 58.620,258.400 58.400 C 258.400 58.180,258.065 58.000,257.656 58.000 C 256.127 58.000,250.728 53.387,249.262 50.829 C 247.116 47.082,247.035 46.853,246.357 42.600 C 245.922 39.870,245.915 39.503,246.237 36.200 C 246.365 34.880,246.635 33.629,246.835 33.420 C 247.036 33.211,247.200 32.747,247.200 32.388 C 247.200 30.216,252.983 22.400,254.590 22.400 C 254.828 22.400,255.283 22.040,255.600 21.600 C 255.917 21.160,256.497 20.800,256.888 20.800 C 257.280 20.800,257.600 20.620,257.600 20.400 C 257.600 20.180,257.949 20.000,258.376 20.000 C 258.803 20.000,259.264 19.820,259.400 19.600 C 259.536 19.380,260.076 19.200,260.600 19.200 C 261.124 19.200,261.664 19.020,261.800 18.800 C 261.944 18.567,264.196 18.400,267.200 18.400 C 270.204 18.400,272.456 18.567,272.600 18.800 M232.000 87.598 C 231.670 87.812,230.376 87.991,229.124 87.994 C 227.872 87.997,226.736 88.180,226.600 88.400 C 226.464 88.620,225.821 88.800,225.171 88.800 C 224.521 88.800,223.677 88.963,223.295 89.163 C 222.913 89.363,220.980 90.038,219.000 90.663 C 217.020 91.288,215.340 91.935,215.267 92.100 C 215.193 92.265,214.788 92.400,214.367 92.400 C 213.945 92.400,213.600 92.580,213.600 92.800 C 213.600 93.020,213.322 93.200,212.983 93.200 C 212.644 93.200,211.980 93.560,211.508 94.000 C 211.036 94.440,210.413 94.800,210.125 94.800 C 209.836 94.800,209.600 94.980,209.600 95.200 C 209.600 95.420,209.312 95.600,208.960 95.600 C 208.609 95.600,207.817 96.140,207.200 96.800 C 206.583 97.460,205.941 98.000,205.772 98.000 C 205.378 98.000,196.400 107.016,196.400 107.410 C 196.400 107.573,196.084 107.997,195.697 108.353 C 195.311 108.709,194.740 109.495,194.430 110.100 C 194.119 110.705,193.715 111.200,193.532 111.200 C 193.350 111.200,193.200 111.560,193.200 112.000 C 193.200 112.440,193.050 112.800,192.868 112.800 C 192.445 112.800,192.014 113.705,190.195 118.400 C 189.386 120.490,188.561 122.513,188.362 122.895 C 188.163 123.277,188.000 124.132,188.000 124.795 C 188.000 125.458,187.820 126.000,187.600 126.000 C 187.380 126.000,187.200 126.889,187.200 127.976 C 187.200 129.063,187.020 130.064,186.800 130.200 C 186.537 130.362,186.400 144.796,186.400 172.200 C 186.400 199.604,186.537 214.038,186.800 214.200 C 187.020 214.336,187.200 214.799,187.200 215.229 C 187.200 215.659,187.360 216.323,187.556 216.705 C 187.752 217.087,188.332 218.300,188.845 219.400 C 189.357 220.500,190.187 221.957,190.688 222.638 C 191.190 223.319,191.600 224.017,191.600 224.191 C 191.600 224.603,192.961 225.784,195.200 227.316 C 196.190 227.993,197.090 228.650,197.200 228.776 C 197.659 229.301,202.570 231.600,203.233 231.600 C 203.629 231.600,204.064 231.780,204.200 232.000 C 204.336 232.220,204.876 232.400,205.400 232.400 C 205.924 232.400,206.464 232.580,206.600 232.800 C 206.940 233.350,215.718 233.322,216.271 232.769 C 216.508 232.532,217.219 232.397,217.851 232.469 L 219.000 232.600 219.101 302.181 C 219.167 347.768,219.340 371.900,219.601 372.161 C 219.821 372.381,220.000 373.683,220.000 375.056 C 220.000 376.429,220.180 377.664,220.400 377.800 C 220.620 377.936,220.800 378.399,220.800 378.829 C 220.800 379.259,220.960 379.923,221.156 380.305 C 221.352 380.687,222.207 382.395,223.056 384.099 C 223.905 385.804,224.735 387.199,224.900 387.199 C 225.065 387.200,225.200 387.452,225.200 387.759 C 225.200 389.617,235.839 397.200,238.444 397.200 C 238.834 397.200,239.264 397.380,239.400 397.600 C 239.536 397.820,240.267 398.000,241.024 398.000 C 241.781 398.000,242.400 398.180,242.400 398.400 C 242.400 398.646,244.400 398.800,247.600 398.800 C 250.800 398.800,252.800 398.646,252.800 398.400 C 252.800 398.180,253.520 398.000,254.400 398.000 C 255.280 398.000,256.000 397.820,256.000 397.600 C 256.000 397.380,256.540 397.200,257.200 397.200 C 257.860 397.200,258.400 397.020,258.400 396.800 C 258.400 396.580,258.760 396.400,259.200 396.400 C 259.640 396.400,260.000 396.220,260.000 396.000 C 260.000 395.780,260.193 395.600,260.428 395.600 C 260.663 395.600,261.698 395.015,262.728 394.301 C 266.793 391.479,267.494 391.408,270.641 393.500 C 274.677 396.183,278.807 398.000,280.871 398.000 C 281.466 398.000,282.064 398.180,282.200 398.400 C 282.531 398.935,292.000 398.935,292.000 398.400 C 292.000 398.180,292.619 398.000,293.376 398.000 C 294.133 398.000,294.864 397.820,295.000 397.600 C 295.136 397.380,295.571 397.200,295.967 397.200 C 296.840 397.200,301.495 394.875,302.575 393.900 C 303.002 393.515,303.505 393.200,303.692 393.200 C 304.498 393.200,309.039 388.676,309.878 387.036 C 310.227 386.356,310.624 385.710,310.761 385.600 C 310.898 385.490,311.433 384.500,311.949 383.400 C 312.465 382.300,313.048 381.087,313.244 380.705 C 313.440 380.323,313.600 379.659,313.600 379.229 C 313.600 378.799,313.780 378.336,314.000 378.200 C 314.220 378.064,314.400 377.074,314.400 376.000 C 314.400 374.926,314.580 373.936,314.800 373.800 C 315.064 373.637,315.200 349.596,315.200 302.976 L 315.200 232.400 316.976 232.400 C 317.953 232.400,318.864 232.580,319.000 232.800 C 319.136 233.021,320.930 233.200,323.000 233.200 C 325.070 233.200,326.864 233.021,327.000 232.800 C 327.136 232.580,327.856 232.400,328.600 232.400 C 329.344 232.400,330.064 232.220,330.200 232.000 C 330.336 231.780,330.876 231.600,331.399 231.600 C 333.353 231.600,339.781 227.568,342.165 224.847 C 342.624 224.323,343.180 223.693,343.400 223.447 C 343.778 223.024,345.354 220.223,346.071 218.700 C 346.252 218.315,346.580 217.642,346.800 217.205 C 347.020 216.768,347.200 216.059,347.200 215.629 C 347.200 215.199,347.380 214.736,347.600 214.600 C 347.863 214.438,348.000 199.870,348.000 172.200 C 348.000 144.530,347.863 129.962,347.600 129.800 C 347.380 129.664,347.200 128.764,347.200 127.800 C 347.200 126.836,347.020 125.936,346.800 125.800 C 346.580 125.664,346.400 125.059,346.400 124.456 C 346.400 123.853,346.257 123.189,346.082 122.980 C 345.907 122.771,345.521 121.880,345.225 121.000 C 344.929 120.120,344.197 118.320,343.598 117.000 C 342.999 115.680,342.383 114.195,342.228 113.700 C 342.073 113.205,341.778 112.800,341.573 112.800 C 341.368 112.800,341.200 112.440,341.200 112.000 C 341.200 111.560,341.050 111.200,340.868 111.200 C 340.685 111.200,340.281 110.705,339.970 110.100 C 339.660 109.495,339.089 108.709,338.703 108.353 C 338.316 107.997,338.000 107.573,338.000 107.410 C 338.000 107.044,329.036 98.000,328.672 98.000 C 328.416 98.000,327.241 97.103,326.184 96.100 C 325.894 95.825,325.464 95.600,325.229 95.600 C 324.993 95.600,324.800 95.420,324.800 95.200 C 324.800 94.980,324.480 94.800,324.088 94.800 C 323.697 94.800,323.117 94.440,322.800 94.000 C 322.483 93.560,321.903 93.200,321.512 93.200 C 321.120 93.200,320.800 93.020,320.800 92.800 C 320.800 92.580,320.455 92.400,320.033 92.400 C 319.612 92.400,319.207 92.265,319.133 92.100 C 319.060 91.935,317.380 91.288,315.400 90.663 C 313.420 90.038,311.487 89.363,311.105 89.163 C 310.723 88.963,309.904 88.800,309.285 88.800 C 308.666 88.800,307.989 88.635,307.780 88.434 C 306.796 87.485,233.418 86.675,232.000 87.598 M298.600 104.800 C 298.736 105.020,300.266 105.200,302.000 105.200 C 303.734 105.200,305.264 105.380,305.400 105.600 C 305.536 105.820,306.177 106.000,306.824 106.000 C 307.471 106.000,308.000 106.180,308.000 106.400 C 308.000 106.620,308.540 106.800,309.200 106.800 C 309.860 106.800,310.400 106.980,310.400 107.200 C 310.400 107.420,310.760 107.600,311.200 107.600 C 311.640 107.600,312.000 107.780,312.000 108.000 C 312.000 108.220,312.253 108.400,312.562 108.400 C 313.446 108.400,316.206 109.993,318.252 111.684 C 319.280 112.533,320.325 113.357,320.575 113.514 C 320.825 113.671,321.833 114.790,322.815 116.000 C 323.797 117.210,324.735 118.260,324.900 118.333 C 325.065 118.407,325.200 118.729,325.200 119.050 C 325.200 119.371,325.560 120.020,326.000 120.492 C 326.440 120.964,326.800 121.587,326.800 121.875 C 326.800 122.164,326.980 122.400,327.200 122.400 C 327.420 122.400,327.600 122.760,327.600 123.200 C 327.600 123.640,327.780 124.000,328.000 124.000 C 328.220 124.000,328.400 124.540,328.400 125.200 C 328.400 125.860,328.580 126.400,328.800 126.400 C 329.020 126.400,329.200 126.839,329.200 127.376 C 329.200 127.913,329.380 128.464,329.600 128.600 C 329.820 128.736,330.000 129.456,330.000 130.200 C 330.000 130.944,330.180 131.664,330.400 131.800 C 330.662 131.962,330.800 145.719,330.800 171.768 L 330.800 211.489 329.072 213.344 C 328.065 214.426,326.990 215.200,326.496 215.200 C 326.029 215.200,325.536 215.380,325.400 215.600 C 325.264 215.820,324.274 216.000,323.200 216.000 C 322.126 216.000,321.136 215.820,321.000 215.600 C 320.864 215.380,320.342 215.200,319.840 215.200 C 319.310 215.200,318.145 214.461,317.064 213.440 L 315.200 211.679 315.200 174.863 C 315.200 150.751,315.062 137.962,314.800 137.800 C 314.580 137.664,314.400 137.012,314.400 136.350 C 314.400 134.844,313.797 133.650,312.145 131.886 C 311.262 130.944,309.986 130.000,309.595 130.000 C 309.378 130.000,309.200 129.820,309.200 129.600 C 309.200 129.022,304.156 129.105,303.116 129.700 C 300.559 131.164,298.000 134.500,298.000 136.371 C 298.000 137.021,297.820 137.664,297.600 137.800 C 297.335 137.964,297.200 178.004,297.200 256.624 C 297.200 335.408,297.066 375.200,296.800 375.200 C 296.580 375.200,296.400 375.488,296.400 375.840 C 296.400 376.815,292.531 380.394,291.185 380.663 C 290.533 380.793,290.000 381.058,290.000 381.250 C 290.000 381.778,285.011 381.670,283.194 381.103 C 282.317 380.829,281.600 380.469,281.600 380.303 C 281.600 380.136,281.348 380.000,281.040 380.000 C 280.234 380.000,277.699 377.348,276.675 375.435 L 275.800 373.800 275.589 309.000 C 275.474 273.360,275.339 244.183,275.289 244.161 C 275.150 244.101,273.561 242.248,273.265 241.800 C 272.653 240.877,270.350 239.600,269.296 239.600 C 268.671 239.600,267.963 239.403,267.723 239.163 C 267.407 238.847,267.060 238.847,266.469 239.163 C 266.020 239.403,265.201 239.600,264.650 239.600 C 264.098 239.600,263.539 239.775,263.407 239.989 C 263.274 240.203,262.544 240.674,261.783 241.035 C 261.022 241.396,260.400 241.991,260.400 242.357 C 260.400 242.724,260.040 243.283,259.600 243.600 C 259.043 244.002,258.800 244.635,258.800 245.688 C 258.800 246.520,258.620 247.200,258.400 247.200 C 258.135 247.200,258.000 268.650,258.000 310.751 C 258.000 364.856,257.915 374.503,257.430 375.651 C 256.707 377.361,254.557 379.642,253.000 380.349 C 252.340 380.648,251.487 381.052,251.105 381.247 C 250.141 381.738,244.400 381.698,244.400 381.200 C 244.400 380.980,244.128 380.800,243.795 380.800 C 242.433 380.800,238.000 377.001,238.000 375.834 C 238.000 375.511,237.820 375.136,237.600 375.000 C 237.335 374.836,237.200 334.804,237.200 256.200 C 237.200 177.596,237.065 137.564,236.800 137.400 C 236.580 137.264,236.400 136.483,236.400 135.665 C 236.400 134.635,236.153 133.999,235.600 133.600 C 235.160 133.283,234.800 132.780,234.800 132.483 C 234.800 131.787,233.813 130.800,233.117 130.800 C 232.820 130.800,232.317 130.440,232.000 130.000 C 231.505 129.313,230.965 129.200,228.187 129.200 C 225.504 129.200,224.804 129.337,224.092 130.000 C 223.620 130.440,223.088 130.800,222.911 130.800 C 222.734 130.800,222.144 131.520,221.600 132.400 C 221.056 133.280,220.474 134.000,220.306 134.000 C 220.138 134.000,220.000 134.799,220.000 135.776 C 220.000 136.753,219.820 137.664,219.600 137.800 C 219.338 137.962,219.200 150.743,219.200 174.840 C 219.200 203.682,219.092 211.766,218.700 212.245 C 218.425 212.581,217.865 213.159,217.455 213.528 C 217.046 213.898,216.474 214.425,216.184 214.700 C 215.894 214.975,215.295 215.200,214.852 215.200 C 214.409 215.200,213.936 215.380,213.800 215.600 C 213.664 215.820,212.573 216.000,211.376 216.000 C 210.179 216.000,209.200 215.820,209.200 215.600 C 209.200 215.380,208.785 215.200,208.278 215.200 C 207.316 215.200,204.961 213.226,204.100 211.698 C 203.458 210.559,203.360 132.596,204.000 132.200 C 204.220 132.064,204.400 131.254,204.400 130.400 C 204.400 129.546,204.580 128.736,204.800 128.600 C 205.020 128.464,205.200 127.913,205.200 127.376 C 205.200 126.839,205.380 126.400,205.600 126.400 C 205.820 126.400,206.000 125.860,206.000 125.200 C 206.000 124.540,206.180 124.000,206.400 124.000 C 206.620 124.000,206.800 123.640,206.800 123.200 C 206.800 122.760,206.959 122.400,207.153 122.400 C 207.348 122.400,207.607 122.085,207.729 121.700 C 207.978 120.914,209.190 118.856,209.800 118.183 C 210.020 117.940,210.740 117.047,211.400 116.199 C 212.901 114.270,213.470 113.701,215.399 112.200 C 216.247 111.540,217.135 110.820,217.371 110.600 C 218.142 109.881,221.094 108.400,221.754 108.400 C 222.110 108.400,222.400 108.220,222.400 108.000 C 222.400 107.780,222.760 107.600,223.200 107.600 C 223.640 107.600,224.000 107.420,224.000 107.200 C 224.000 106.980,224.540 106.800,225.200 106.800 C 225.860 106.800,226.400 106.620,226.400 106.400 C 226.400 106.180,226.940 106.000,227.600 106.000 C 228.260 106.000,228.800 105.820,228.800 105.600 C 228.800 105.367,230.125 105.200,231.976 105.200 C 233.723 105.200,235.264 105.020,235.400 104.800 C 235.561 104.539,246.530 104.400,267.000 104.400 C 287.470 104.400,298.439 104.539,298.600 104.800 " stroke="none" fill="#000000" fill-rule="evenodd"></path><path id="path2" d="M69.455 0.600 C 69.286 1.042,68.588 1.200,66.813 1.200 C 65.471 1.200,64.400 1.378,64.400 1.600 C 64.400 1.820,63.860 2.000,63.200 2.000 C 62.540 2.000,62.000 2.180,62.000 2.400 C 62.000 2.620,61.640 2.800,61.200 2.800 C 60.760 2.800,60.400 2.980,60.400 3.200 C 60.400 3.420,60.150 3.600,59.846 3.600 C 59.319 3.600,54.400 8.061,54.400 8.539 C 54.400 8.663,53.860 9.681,53.200 10.800 C 52.540 11.919,52.000 13.267,52.000 13.794 C 52.000 14.321,51.820 14.864,51.600 15.000 C 51.045 15.343,51.045 384.657,51.600 385.000 C 51.820 385.136,52.000 385.681,52.000 386.211 C 52.000 386.742,52.343 387.786,52.762 388.533 C 53.182 389.280,53.767 390.317,54.062 390.838 C 54.843 392.216,59.195 396.400,59.846 396.400 C 60.150 396.400,60.400 396.580,60.400 396.800 C 60.400 397.020,60.760 397.200,61.200 397.200 C 61.640 397.200,62.000 397.380,62.000 397.600 C 62.000 397.820,62.540 398.000,63.200 398.000 C 63.860 398.000,64.400 398.180,64.400 398.400 C 64.400 398.622,65.471 398.800,66.813 398.800 C 68.588 398.800,69.286 398.958,69.455 399.400 C 69.805 400.311,135.106 400.311,135.455 399.400 C 135.624 398.961,136.316 398.800,138.043 398.800 C 139.348 398.800,140.400 398.621,140.400 398.400 C 140.400 398.180,140.940 398.000,141.600 398.000 C 142.260 398.000,142.800 397.862,142.800 397.694 C 142.800 397.526,143.475 397.089,144.300 396.724 C 146.120 395.916,151.200 391.148,151.200 390.247 C 151.200 389.891,151.380 389.600,151.600 389.600 C 151.820 389.600,152.000 389.240,152.000 388.800 C 152.000 388.360,152.180 388.000,152.400 388.000 C 152.620 388.000,152.800 387.460,152.800 386.800 C 152.800 386.140,152.980 385.600,153.200 385.600 C 153.422 385.600,153.600 384.533,153.600 383.200 C 153.600 381.867,153.778 380.800,154.000 380.800 C 154.266 380.800,154.400 320.267,154.400 200.000 C 154.400 79.733,154.266 19.200,154.000 19.200 C 153.778 19.200,153.600 18.133,153.600 16.800 C 153.600 15.467,153.422 14.400,153.200 14.400 C 152.980 14.400,152.800 13.860,152.800 13.200 C 152.800 12.540,152.620 12.000,152.400 12.000 C 152.180 12.000,152.000 11.640,152.000 11.200 C 152.000 10.760,151.820 10.400,151.600 10.400 C 151.380 10.400,151.200 10.116,151.200 9.769 C 151.200 8.790,146.110 4.070,144.092 3.177 C 143.382 2.862,142.800 2.469,142.800 2.302 C 142.800 2.136,142.260 2.000,141.600 2.000 C 140.940 2.000,140.400 1.820,140.400 1.600 C 140.400 1.379,139.348 1.200,138.043 1.200 C 136.316 1.200,135.624 1.039,135.455 0.600 C 135.106 -0.311,69.805 -0.311,69.455 0.600 M263.300 1.115 C 261.265 1.178,259.600 1.403,259.600 1.615 C 259.600 1.827,259.060 2.000,258.400 2.000 C 257.740 2.000,257.200 2.180,257.200 2.400 C 257.200 2.620,256.671 2.800,256.024 2.800 C 255.377 2.800,254.736 2.980,254.600 3.200 C 254.464 3.420,254.011 3.600,253.594 3.600 C 253.177 3.600,251.972 4.097,250.918 4.704 C 249.863 5.311,248.460 6.073,247.800 6.396 C 247.140 6.719,246.043 7.392,245.362 7.892 C 244.681 8.391,243.995 8.800,243.836 8.800 C 243.294 8.800,238.015 14.486,236.410 16.800 C 235.876 17.570,235.340 18.290,235.219 18.400 C 235.002 18.598,234.684 19.138,233.125 21.955 C 232.685 22.750,232.162 23.571,231.962 23.780 C 231.763 23.989,231.600 24.574,231.600 25.080 C 231.600 25.586,231.420 26.000,231.200 26.000 C 230.980 26.000,230.800 26.540,230.800 27.200 C 230.800 27.860,230.620 28.400,230.400 28.400 C 230.180 28.400,230.000 28.929,230.000 29.576 C 230.000 30.223,229.820 30.864,229.600 31.000 C 229.380 31.136,229.200 32.126,229.200 33.200 C 229.200 34.274,229.020 35.264,228.800 35.400 C 228.579 35.536,228.400 37.330,228.400 39.400 C 228.400 41.470,228.579 43.264,228.800 43.400 C 229.020 43.536,229.200 44.436,229.200 45.400 C 229.200 46.364,229.380 47.264,229.600 47.400 C 229.820 47.536,230.000 48.177,230.000 48.824 C 230.000 49.471,230.180 50.000,230.400 50.000 C 230.620 50.000,230.800 50.630,230.800 51.400 C 230.800 52.170,230.980 52.800,231.200 52.800 C 231.420 52.800,231.600 53.160,231.600 53.600 C 231.600 54.040,231.780 54.400,232.000 54.400 C 232.220 54.400,232.400 54.760,232.400 55.200 C 232.400 55.640,232.580 56.000,232.800 56.000 C 233.020 56.000,233.200 56.360,233.200 56.800 C 233.200 57.240,233.380 57.600,233.600 57.600 C 233.820 57.600,234.000 57.960,234.000 58.400 C 234.000 58.840,234.180 59.200,234.400 59.200 C 234.620 59.200,234.800 59.403,234.800 59.652 C 234.800 59.900,235.385 60.766,236.100 61.576 C 236.815 62.387,237.940 63.749,238.600 64.604 C 240.179 66.649,242.332 68.800,242.800 68.800 C 243.005 68.800,243.803 69.430,244.573 70.200 C 245.343 70.970,246.234 71.600,246.553 71.600 C 246.872 71.600,247.193 71.735,247.267 71.900 C 247.340 72.065,248.255 72.633,249.300 73.163 C 250.345 73.692,251.200 74.257,251.200 74.417 C 251.200 74.578,251.695 74.802,252.300 74.916 C 252.905 75.030,254.390 75.432,255.600 75.808 C 256.810 76.184,258.476 76.581,259.303 76.688 C 260.129 76.796,260.905 77.045,261.026 77.242 C 261.148 77.439,263.926 77.600,267.200 77.600 C 270.474 77.600,273.252 77.439,273.374 77.242 C 273.495 77.045,274.271 76.796,275.097 76.688 C 275.924 76.581,277.590 76.184,278.800 75.808 C 280.010 75.432,281.495 75.030,282.100 74.916 C 282.705 74.802,283.200 74.550,283.200 74.355 C 283.200 74.160,283.470 74.000,283.800 74.000 C 284.130 74.000,284.400 73.854,284.400 73.675 C 284.400 73.496,285.030 73.102,285.800 72.800 C 286.570 72.498,287.200 72.104,287.200 71.925 C 287.200 71.746,287.467 71.600,287.793 71.600 C 289.215 71.600,299.600 61.070,299.600 59.628 C 299.600 59.393,299.780 59.200,300.000 59.200 C 300.220 59.200,300.400 58.855,300.400 58.433 C 300.400 58.012,300.535 57.607,300.700 57.533 C 301.132 57.341,302.800 54.028,302.800 53.362 C 302.800 53.053,302.980 52.800,303.200 52.800 C 303.420 52.800,303.600 52.260,303.600 51.600 C 303.600 50.940,303.780 50.400,304.000 50.400 C 304.220 50.400,304.400 49.770,304.400 49.000 C 304.400 48.230,304.580 47.600,304.800 47.600 C 305.020 47.600,305.200 46.700,305.200 45.600 C 305.200 44.500,305.380 43.600,305.600 43.600 C 305.841 43.600,306.000 41.933,306.000 39.400 C 306.000 36.867,305.841 35.200,305.600 35.200 C 305.380 35.200,305.200 34.210,305.200 33.000 C 305.200 31.790,305.020 30.800,304.800 30.800 C 304.580 30.800,304.400 30.260,304.400 29.600 C 304.400 28.940,304.220 28.400,304.000 28.400 C 303.780 28.400,303.600 27.860,303.600 27.200 C 303.600 26.540,303.420 26.000,303.200 26.000 C 302.980 26.000,302.800 25.638,302.800 25.195 C 302.800 24.477,302.140 22.940,301.600 22.400 C 301.407 22.207,300.724 21.054,299.822 19.400 C 297.983 16.025,290.618 8.000,289.360 8.000 C 289.052 8.000,288.800 7.855,288.800 7.677 C 288.800 7.499,288.035 7.017,287.100 6.606 C 286.165 6.194,284.537 5.349,283.482 4.729 C 282.428 4.108,281.223 3.600,280.806 3.600 C 280.389 3.600,279.936 3.420,279.800 3.200 C 279.664 2.980,279.023 2.800,278.376 2.800 C 277.729 2.800,277.200 2.620,277.200 2.400 C 277.200 2.180,276.675 2.000,276.033 2.000 C 275.392 2.000,274.807 1.837,274.733 1.638 C 274.579 1.219,268.661 0.948,263.300 1.115 M136.307 28.900 L 136.200 39.400 123.400 39.635 C 108.543 39.908,105.982 40.342,104.715 42.800 C 104.432 43.350,103.885 44.149,103.500 44.575 C 102.316 45.888,102.510 51.062,103.800 52.562 C 104.350 53.201,104.800 53.868,104.800 54.043 C 104.800 54.804,108.399 56.800,109.772 56.800 C 110.557 56.800,111.200 56.980,111.200 57.200 C 111.200 57.458,115.669 57.600,123.808 57.600 L 136.417 57.600 136.308 65.700 L 136.200 73.800 125.320 74.000 C 117.375 74.146,114.304 74.335,113.940 74.700 C 113.665 74.975,113.200 75.200,112.907 75.200 C 111.832 75.200,108.800 78.888,108.800 80.195 C 108.800 80.528,108.620 80.800,108.400 80.800 C 108.180 80.800,108.000 81.509,108.000 82.376 C 108.000 83.243,108.180 84.064,108.400 84.200 C 108.620 84.336,108.800 84.887,108.800 85.424 C 108.800 85.961,108.980 86.400,109.200 86.400 C 109.420 86.400,109.600 86.678,109.600 87.018 C 109.600 87.774,111.363 89.600,112.094 89.600 C 112.385 89.600,112.883 89.960,113.200 90.400 C 113.753 91.167,114.235 91.200,124.846 91.200 C 134.570 91.200,135.944 91.277,136.157 91.833 C 136.291 92.181,136.400 95.961,136.400 100.233 L 136.400 108.000 123.224 108.000 C 114.871 108.000,109.957 108.146,109.800 108.400 C 109.664 108.620,109.063 108.800,108.465 108.800 C 107.835 108.800,107.133 109.137,106.800 109.600 C 106.483 110.040,106.070 110.400,105.883 110.400 C 105.409 110.400,104.702 111.203,104.032 112.500 C 103.720 113.105,103.315 113.600,103.132 113.600 C 102.603 113.600,102.747 119.516,103.300 120.505 C 103.988 121.737,106.826 124.585,107.800 125.021 C 108.240 125.218,114.810 125.474,122.400 125.590 L 136.200 125.800 136.200 134.000 L 136.200 142.200 125.400 142.412 C 115.132 142.613,112.800 142.842,112.800 143.647 C 112.800 143.841,112.506 144.000,112.147 144.000 C 111.416 144.000,109.601 145.925,109.600 146.700 C 109.600 146.975,109.420 147.200,109.200 147.200 C 108.980 147.200,108.800 147.639,108.800 148.176 C 108.800 148.713,108.620 149.264,108.400 149.400 C 107.878 149.722,107.878 152.800,108.400 152.800 C 108.620 152.800,108.800 153.259,108.800 153.819 C 108.800 155.107,111.832 158.264,113.677 158.896 C 114.455 159.163,119.365 159.442,125.600 159.575 L 136.200 159.800 136.314 167.400 C 136.376 171.580,136.328 175.405,136.206 175.900 L 135.985 176.800 121.992 176.800 C 112.931 176.800,108.000 176.941,108.000 177.200 C 108.000 177.420,107.757 177.600,107.459 177.600 C 106.974 177.600,105.339 179.034,104.154 180.499 C 102.513 182.528,102.155 188.158,103.600 189.200 C 104.040 189.517,104.400 190.020,104.400 190.317 C 104.400 190.938,105.361 192.000,105.922 192.000 C 106.131 192.000,106.510 192.251,106.765 192.558 C 107.555 193.509,109.781 193.698,123.200 193.953 L 136.200 194.200 136.308 202.300 L 136.417 210.400 126.832 210.400 C 120.874 210.400,117.154 210.551,117.000 210.800 C 116.864 211.020,116.043 211.200,115.176 211.200 C 114.309 211.200,113.600 211.380,113.600 211.600 C 113.600 211.820,113.365 212.000,113.078 212.000 C 112.303 212.000,109.600 214.607,109.600 215.354 C 109.600 215.709,109.420 216.000,109.200 216.000 C 108.980 216.000,108.800 216.349,108.800 216.776 C 108.800 217.203,108.620 217.664,108.400 217.800 C 107.880 218.122,107.880 221.078,108.400 221.400 C 108.620 221.536,108.800 221.997,108.800 222.424 C 108.800 222.851,108.980 223.200,109.200 223.200 C 109.420 223.200,109.600 223.520,109.600 223.912 C 109.600 224.303,109.982 224.888,110.449 225.212 C 110.916 225.535,111.505 225.997,111.757 226.237 C 112.621 227.058,113.947 227.600,115.094 227.600 C 115.724 227.600,116.417 227.777,116.633 227.993 C 116.861 228.221,121.029 228.430,126.613 228.493 L 136.200 228.600 136.308 236.700 L 136.417 244.800 123.408 244.800 C 115.003 244.800,110.400 244.942,110.400 245.200 C 110.400 245.420,109.804 245.600,109.075 245.600 C 108.304 245.600,107.392 245.934,106.892 246.400 C 106.420 246.840,105.923 247.200,105.788 247.200 C 105.403 247.200,104.653 248.098,104.032 249.300 C 103.720 249.905,103.315 250.400,103.132 250.400 C 102.643 250.400,102.728 256.317,103.231 257.258 C 103.964 258.627,104.928 259.620,106.800 260.936 L 108.600 262.200 121.600 262.311 C 128.750 262.372,135.005 262.510,135.500 262.618 C 136.398 262.815,136.400 262.837,136.400 271.008 L 136.400 279.200 125.824 279.200 C 119.204 279.200,115.155 279.350,115.000 279.600 C 114.864 279.820,114.396 280.000,113.960 280.000 C 113.523 280.000,112.780 280.360,112.308 280.800 C 111.836 281.240,111.213 281.600,110.925 281.600 C 110.636 281.600,110.400 281.920,110.400 282.312 C 110.400 282.703,110.040 283.283,109.600 283.600 C 109.160 283.917,108.800 284.576,108.800 285.065 C 108.800 285.553,108.620 286.064,108.400 286.200 C 107.878 286.522,107.878 289.600,108.400 289.600 C 108.620 289.600,108.800 290.100,108.800 290.712 C 108.800 291.365,109.130 292.061,109.600 292.400 C 110.040 292.717,110.400 293.185,110.400 293.440 C 110.400 293.695,110.940 294.127,111.600 294.400 C 112.260 294.673,112.800 295.055,112.800 295.249 C 112.800 295.442,113.214 295.600,113.720 295.600 C 114.226 295.600,114.817 295.777,115.033 295.993 C 115.265 296.225,119.696 296.430,125.813 296.493 L 136.200 296.600 136.200 305.000 L 136.200 313.400 122.800 313.498 C 106.968 313.614,106.095 313.848,103.300 318.718 C 102.597 319.942,102.648 325.004,103.372 325.895 C 103.687 326.283,104.423 327.185,105.008 327.900 C 105.593 328.615,106.325 329.200,106.636 329.200 C 106.946 329.200,107.200 329.380,107.200 329.600 C 107.200 329.820,107.740 330.000,108.400 330.000 C 109.060 330.000,109.600 330.178,109.600 330.395 C 109.600 330.644,114.492 330.828,122.900 330.895 L 136.200 331.000 136.200 339.400 L 136.200 347.800 125.041 347.906 C 114.482 348.007,113.846 348.056,113.194 348.806 C 112.816 349.243,112.294 349.600,112.035 349.600 C 111.351 349.600,109.600 351.457,109.600 352.182 C 109.600 352.522,109.420 352.800,109.200 352.800 C 108.980 352.800,108.800 353.239,108.800 353.776 C 108.800 354.313,108.620 354.864,108.400 355.000 C 107.878 355.322,107.878 358.400,108.400 358.400 C 108.620 358.400,108.800 358.726,108.800 359.125 C 108.800 359.523,109.160 360.236,109.600 360.708 C 110.040 361.180,110.400 361.742,110.400 361.956 C 110.400 362.171,110.760 362.460,111.200 362.600 C 111.640 362.740,112.000 362.993,112.000 363.163 C 112.000 363.623,113.896 364.400,115.019 364.400 C 115.558 364.400,116.000 364.580,116.000 364.800 C 116.000 365.056,119.667 365.200,126.200 365.200 L 136.400 365.200 136.400 373.400 L 136.400 381.600 102.400 381.600 L 68.400 381.600 68.400 200.000 L 68.400 18.400 102.407 18.400 L 136.413 18.400 136.307 28.900 M272.600 18.800 C 272.736 19.020,273.276 19.200,273.800 19.200 C 274.324 19.200,274.864 19.380,275.000 19.600 C 275.136 19.820,275.597 20.000,276.024 20.000 C 276.451 20.000,276.800 20.180,276.800 20.400 C 276.800 20.620,277.160 20.800,277.600 20.800 C 278.040 20.800,278.400 20.941,278.400 21.114 C 278.400 21.286,278.918 21.733,279.551 22.107 C 282.611 23.915,287.200 30.116,287.200 32.444 C 287.200 32.834,287.357 33.250,287.550 33.369 C 288.605 34.021,288.606 44.778,287.551 45.430 C 287.358 45.549,287.200 45.991,287.200 46.411 C 287.200 47.102,286.879 47.790,285.138 50.829 C 283.672 53.387,278.273 58.000,276.744 58.000 C 276.335 58.000,276.000 58.180,276.000 58.400 C 276.000 58.620,275.651 58.800,275.224 58.800 C 274.797 58.800,274.336 58.980,274.200 59.200 C 274.064 59.420,273.434 59.600,272.800 59.600 C 272.166 59.600,271.536 59.780,271.400 60.000 C 271.262 60.223,269.404 60.400,267.200 60.400 C 264.996 60.400,263.138 60.223,263.000 60.000 C 262.864 59.780,262.133 59.600,261.376 59.600 C 260.619 59.600,260.000 59.420,260.000 59.200 C 260.000 58.980,259.640 58.800,259.200 58.800 C 258.760 58.800,258.400 58.620,258.400 58.400 C 258.400 58.180,258.065 58.000,257.656 58.000 C 256.127 58.000,250.728 53.387,249.262 50.829 C 247.116 47.082,247.035 46.853,246.357 42.600 C 245.922 39.870,245.915 39.503,246.237 36.200 C 246.365 34.880,246.635 33.629,246.835 33.420 C 247.036 33.211,247.200 32.747,247.200 32.388 C 247.200 30.216,252.983 22.400,254.590 22.400 C 254.828 22.400,255.283 22.040,255.600 21.600 C 255.917 21.160,256.497 20.800,256.888 20.800 C 257.280 20.800,257.600 20.620,257.600 20.400 C 257.600 20.180,257.949 20.000,258.376 20.000 C 258.803 20.000,259.264 19.820,259.400 19.600 C 259.536 19.380,260.076 19.200,260.600 19.200 C 261.124 19.200,261.664 19.020,261.800 18.800 C 261.944 18.567,264.196 18.400,267.200 18.400 C 270.204 18.400,272.456 18.567,272.600 18.800 M232.000 87.598 C 231.670 87.812,230.376 87.991,229.124 87.994 C 227.872 87.997,226.736 88.180,226.600 88.400 C 226.464 88.620,225.821 88.800,225.171 88.800 C 224.521 88.800,223.677 88.963,223.295 89.163 C 222.913 89.363,220.980 90.038,219.000 90.663 C 217.020 91.288,215.340 91.935,215.267 92.100 C 215.193 92.265,214.788 92.400,214.367 92.400 C 213.945 92.400,213.600 92.580,213.600 92.800 C 213.600 93.020,213.322 93.200,212.983 93.200 C 212.644 93.200,211.980 93.560,211.508 94.000 C 211.036 94.440,210.413 94.800,210.125 94.800 C 209.836 94.800,209.600 94.980,209.600 95.200 C 209.600 95.420,209.312 95.600,208.960 95.600 C 208.609 95.600,207.817 96.140,207.200 96.800 C 206.583 97.460,205.941 98.000,205.772 98.000 C 205.378 98.000,196.400 107.016,196.400 107.410 C 196.400 107.573,196.084 107.997,195.697 108.353 C 195.311 108.709,194.740 109.495,194.430 110.100 C 194.119 110.705,193.715 111.200,193.532 111.200 C 193.350 111.200,193.200 111.560,193.200 112.000 C 193.200 112.440,193.050 112.800,192.868 112.800 C 192.445 112.800,192.014 113.705,190.195 118.400 C 189.386 120.490,188.561 122.513,188.362 122.895 C 188.163 123.277,188.000 124.132,188.000 124.795 C 188.000 125.458,187.820 126.000,187.600 126.000 C 187.380 126.000,187.200 126.889,187.200 127.976 C 187.200 129.063,187.020 130.064,186.800 130.200 C 186.537 130.362,186.400 144.796,186.400 172.200 C 186.400 199.604,186.537 214.038,186.800 214.200 C 187.020 214.336,187.200 214.799,187.200 215.229 C 187.200 215.659,187.360 216.323,187.556 216.705 C 187.752 217.087,188.332 218.300,188.845 219.400 C 189.357 220.500,190.187 221.957,190.688 222.638 C 191.190 223.319,191.600 224.017,191.600 224.191 C 191.600 224.603,192.961 225.784,195.200 227.316 C 196.190 227.993,197.090 228.650,197.200 228.776 C 197.659 229.301,202.570 231.600,203.233 231.600 C 203.629 231.600,204.064 231.780,204.200 232.000 C 204.336 232.220,204.876 232.400,205.400 232.400 C 205.924 232.400,206.464 232.580,206.600 232.800 C 206.940 233.350,215.718 233.322,216.271 232.769 C 216.508 232.532,217.219 232.397,217.851 232.469 L 219.000 232.600 219.101 302.181 C 219.167 347.768,219.340 371.900,219.601 372.161 C 219.821 372.381,220.000 373.683,220.000 375.056 C 220.000 376.429,220.180 377.664,220.400 377.800 C 220.620 377.936,220.800 378.399,220.800 378.829 C 220.800 379.259,220.960 379.923,221.156 380.305 C 221.352 380.687,222.207 382.395,223.056 384.099 C 223.905 385.804,224.735 387.199,224.900 387.199 C 225.065 387.200,225.200 387.452,225.200 387.759 C 225.200 389.617,235.839 397.200,238.444 397.200 C 238.834 397.200,239.264 397.380,239.400 397.600 C 239.536 397.820,240.267 398.000,241.024 398.000 C 241.781 398.000,242.400 398.180,242.400 398.400 C 242.400 398.646,244.400 398.800,247.600 398.800 C 250.800 398.800,252.800 398.646,252.800 398.400 C 252.800 398.180,253.520 398.000,254.400 398.000 C 255.280 398.000,256.000 397.820,256.000 397.600 C 256.000 397.380,256.540 397.200,257.200 397.200 C 257.860 397.200,258.400 397.020,258.400 396.800 C 258.400 396.580,258.760 396.400,259.200 396.400 C 259.640 396.400,260.000 396.220,260.000 396.000 C 260.000 395.780,260.193 395.600,260.428 395.600 C 260.663 395.600,261.698 395.015,262.728 394.301 C 266.793 391.479,267.494 391.408,270.641 393.500 C 274.677 396.183,278.807 398.000,280.871 398.000 C 281.466 398.000,282.064 398.180,282.200 398.400 C 282.531 398.935,292.000 398.935,292.000 398.400 C 292.000 398.180,292.619 398.000,293.376 398.000 C 294.133 398.000,294.864 397.820,295.000 397.600 C 295.136 397.380,295.571 397.200,295.967 397.200 C 296.840 397.200,301.495 394.875,302.575 393.900 C 303.002 393.515,303.505 393.200,303.692 393.200 C 304.498 393.200,309.039 388.676,309.878 387.036 C 310.227 386.356,310.624 385.710,310.761 385.600 C 310.898 385.490,311.433 384.500,311.949 383.400 C 312.465 382.300,313.048 381.087,313.244 380.705 C 313.440 380.323,313.600 379.659,313.600 379.229 C 313.600 378.799,313.780 378.336,314.000 378.200 C 314.220 378.064,314.400 377.074,314.400 376.000 C 314.400 374.926,314.580 373.936,314.800 373.800 C 315.064 373.637,315.200 349.596,315.200 302.976 L 315.200 232.400 316.976 232.400 C 317.953 232.400,318.864 232.580,319.000 232.800 C 319.136 233.021,320.930 233.200,323.000 233.200 C 325.070 233.200,326.864 233.021,327.000 232.800 C 327.136 232.580,327.856 232.400,328.600 232.400 C 329.344 232.400,330.064 232.220,330.200 232.000 C 330.336 231.780,330.876 231.600,331.399 231.600 C 333.353 231.600,339.781 227.568,342.165 224.847 C 342.624 224.323,343.180 223.693,343.400 223.447 C 343.778 223.024,345.354 220.223,346.071 218.700 C 346.252 218.315,346.580 217.642,346.800 217.205 C 347.020 216.768,347.200 216.059,347.200 215.629 C 347.200 215.199,347.380 214.736,347.600 214.600 C 347.863 214.438,348.000 199.870,348.000 172.200 C 348.000 144.530,347.863 129.962,347.600 129.800 C 347.380 129.664,347.200 128.764,347.200 127.800 C 347.200 126.836,347.020 125.936,346.800 125.800 C 346.580 125.664,346.400 125.059,346.400 124.456 C 346.400 123.853,346.257 123.189,346.082 122.980 C 345.907 122.771,345.521 121.880,345.225 121.000 C 344.929 120.120,344.197 118.320,343.598 117.000 C 342.999 115.680,342.383 114.195,342.228 113.700 C 342.073 113.205,341.778 112.800,341.573 112.800 C 341.368 112.800,341.200 112.440,341.200 112.000 C 341.200 111.560,341.050 111.200,340.868 111.200 C 340.685 111.200,340.281 110.705,339.970 110.100 C 339.660 109.495,339.089 108.709,338.703 108.353 C 338.316 107.997,338.000 107.573,338.000 107.410 C 338.000 107.044,329.036 98.000,328.672 98.000 C 328.416 98.000,327.241 97.103,326.184 96.100 C 325.894 95.825,325.464 95.600,325.229 95.600 C 324.993 95.600,324.800 95.420,324.800 95.200 C 324.800 94.980,324.480 94.800,324.088 94.800 C 323.697 94.800,323.117 94.440,322.800 94.000 C 322.483 93.560,321.903 93.200,321.512 93.200 C 321.120 93.200,320.800 93.020,320.800 92.800 C 320.800 92.580,320.455 92.400,320.033 92.400 C 319.612 92.400,319.207 92.265,319.133 92.100 C 319.060 91.935,317.380 91.288,315.400 90.663 C 313.420 90.038,311.487 89.363,311.105 89.163 C 310.723 88.963,309.904 88.800,309.285 88.800 C 308.666 88.800,307.989 88.635,307.780 88.434 C 306.796 87.485,233.418 86.675,232.000 87.598 M298.600 104.800 C 298.736 105.020,300.266 105.200,302.000 105.200 C 303.734 105.200,305.264 105.380,305.400 105.600 C 305.536 105.820,306.177 106.000,306.824 106.000 C 307.471 106.000,308.000 106.180,308.000 106.400 C 308.000 106.620,308.540 106.800,309.200 106.800 C 309.860 106.800,310.400 106.980,310.400 107.200 C 310.400 107.420,310.760 107.600,311.200 107.600 C 311.640 107.600,312.000 107.780,312.000 108.000 C 312.000 108.220,312.253 108.400,312.562 108.400 C 313.446 108.400,316.206 109.993,318.252 111.684 C 319.280 112.533,320.325 113.357,320.575 113.514 C 320.825 113.671,321.833 114.790,322.815 116.000 C 323.797 117.210,324.735 118.260,324.900 118.333 C 325.065 118.407,325.200 118.729,325.200 119.050 C 325.200 119.371,325.560 120.020,326.000 120.492 C 326.440 120.964,326.800 121.587,326.800 121.875 C 326.800 122.164,326.980 122.400,327.200 122.400 C 327.420 122.400,327.600 122.760,327.600 123.200 C 327.600 123.640,327.780 124.000,328.000 124.000 C 328.220 124.000,328.400 124.540,328.400 125.200 C 328.400 125.860,328.580 126.400,328.800 126.400 C 329.020 126.400,329.200 126.839,329.200 127.376 C 329.200 127.913,329.380 128.464,329.600 128.600 C 329.820 128.736,330.000 129.456,330.000 130.200 C 330.000 130.944,330.180 131.664,330.400 131.800 C 330.662 131.962,330.800 145.719,330.800 171.768 L 330.800 211.489 329.072 213.344 C 328.065 214.426,326.990 215.200,326.496 215.200 C 326.029 215.200,325.536 215.380,325.400 215.600 C 325.264 215.820,324.274 216.000,323.200 216.000 C 322.126 216.000,321.136 215.820,321.000 215.600 C 320.864 215.380,320.342 215.200,319.840 215.200 C 319.310 215.200,318.145 214.461,317.064 213.440 L 315.200 211.679 315.200 174.863 C 315.200 150.751,315.062 137.962,314.800 137.800 C 314.580 137.664,314.400 137.012,314.400 136.350 C 314.400 134.844,313.797 133.650,312.145 131.886 C 311.262 130.944,309.986 130.000,309.595 130.000 C 309.378 130.000,309.200 129.820,309.200 129.600 C 309.200 129.022,304.156 129.105,303.116 129.700 C 300.559 131.164,298.000 134.500,298.000 136.371 C 298.000 137.021,297.820 137.664,297.600 137.800 C 297.335 137.964,297.200 178.004,297.200 256.624 C 297.200 335.408,297.066 375.200,296.800 375.200 C 296.580 375.200,296.400 375.488,296.400 375.840 C 296.400 376.815,292.531 380.394,291.185 380.663 C 290.533 380.793,290.000 381.058,290.000 381.250 C 290.000 381.778,285.011 381.670,283.194 381.103 C 282.317 380.829,281.600 380.469,281.600 380.303 C 281.600 380.136,281.348 380.000,281.040 380.000 C 280.234 380.000,277.699 377.348,276.675 375.435 L 275.800 373.800 275.589 309.000 C 275.474 273.360,275.339 244.183,275.289 244.161 C 275.150 244.101,273.561 242.248,273.265 241.800 C 272.653 240.877,270.350 239.600,269.296 239.600 C 268.671 239.600,267.963 239.403,267.723 239.163 C 267.407 238.847,267.060 238.847,266.469 239.163 C 266.020 239.403,265.201 239.600,264.650 239.600 C 264.098 239.600,263.539 239.775,263.407 239.989 C 263.274 240.203,262.544 240.674,261.783 241.035 C 261.022 241.396,260.400 241.991,260.400 242.357 C 260.400 242.724,260.040 243.283,259.600 243.600 C 259.043 244.002,258.800 244.635,258.800 245.688 C 258.800 246.520,258.620 247.200,258.400 247.200 C 258.135 247.200,258.000 268.650,258.000 310.751 C 258.000 364.856,257.915 374.503,257.430 375.651 C 256.707 377.361,254.557 379.642,253.000 380.349 C 252.340 380.648,251.487 381.052,251.105 381.247 C 250.141 381.738,244.400 381.698,244.400 381.200 C 244.400 380.980,244.128 380.800,243.795 380.800 C 242.433 380.800,238.000 377.001,238.000 375.834 C 238.000 375.511,237.820 375.136,237.600 375.000 C 237.335 374.836,237.200 334.804,237.200 256.200 C 237.200 177.596,237.065 137.564,236.800 137.400 C 236.580 137.264,236.400 136.483,236.400 135.665 C 236.400 134.635,236.153 133.999,235.600 133.600 C 235.160 133.283,234.800 132.780,234.800 132.483 C 234.800 131.787,233.813 130.800,233.117 130.800 C 232.820 130.800,232.317 130.440,232.000 130.000 C 231.505 129.313,230.965 129.200,228.187 129.200 C 225.504 129.200,224.804 129.337,224.092 130.000 C 223.620 130.440,223.088 130.800,222.911 130.800 C 222.734 130.800,222.144 131.520,221.600 132.400 C 221.056 133.280,220.474 134.000,220.306 134.000 C 220.138 134.000,220.000 134.799,220.000 135.776 C 220.000 136.753,219.820 137.664,219.600 137.800 C 219.338 137.962,219.200 150.743,219.200 174.840 C 219.200 203.682,219.092 211.766,218.700 212.245 C 218.425 212.581,217.865 213.159,217.455 213.528 C 217.046 213.898,216.474 214.425,216.184 214.700 C 215.894 214.975,215.295 215.200,214.852 215.200 C 214.409 215.200,213.936 215.380,213.800 215.600 C 213.664 215.820,212.573 216.000,211.376 216.000 C 210.179 216.000,209.200 215.820,209.200 215.600 C 209.200 215.380,208.785 215.200,208.278 215.200 C 207.316 215.200,204.961 213.226,204.100 211.698 C 203.458 210.559,203.360 132.596,204.000 132.200 C 204.220 132.064,204.400 131.254,204.400 130.400 C 204.400 129.546,204.580 128.736,204.800 128.600 C 205.020 128.464,205.200 127.913,205.200 127.376 C 205.200 126.839,205.380 126.400,205.600 126.400 C 205.820 126.400,206.000 125.860,206.000 125.200 C 206.000 124.540,206.180 124.000,206.400 124.000 C 206.620 124.000,206.800 123.640,206.800 123.200 C 206.800 122.760,206.959 122.400,207.153 122.400 C 207.348 122.400,207.607 122.085,207.729 121.700 C 207.978 120.914,209.190 118.856,209.800 118.183 C 210.020 117.940,210.740 117.047,211.400 116.199 C 212.901 114.270,213.470 113.701,215.399 112.200 C 216.247 111.540,217.135 110.820,217.371 110.600 C 218.142 109.881,221.094 108.400,221.754 108.400 C 222.110 108.400,222.400 108.220,222.400 108.000 C 222.400 107.780,222.760 107.600,223.200 107.600 C 223.640 107.600,224.000 107.420,224.000 107.200 C 224.000 106.980,224.540 106.800,225.200 106.800 C 225.860 106.800,226.400 106.620,226.400 106.400 C 226.400 106.180,226.940 106.000,227.600 106.000 C 228.260 106.000,228.800 105.820,228.800 105.600 C 228.800 105.367,230.125 105.200,231.976 105.200 C 233.723 105.200,235.264 105.020,235.400 104.800 C 235.561 104.539,246.530 104.400,267.000 104.400 C 287.470 104.400,298.439 104.539,298.600 104.800 " stroke="none" fill="#000000" fill-rule="evenodd"></path></g></svg>