<svg id="svg" version="1.1" xmlns="http://www.w3.org/2000/svg" xmlns:xlink="http://www.w3.org/1999/xlink" width="400" height="400" viewBox="0, 0, 400,400"><g id="svgg"><path id="path0" d="M196.686 72.957 C 192.611 75.689,183.522 82.798,174.991 89.924 C 173.243 91.385,168.818 95.127,165.200 98.204 C 153.170 108.439,150.180 110.996,150.000 111.206 C 148.787 112.622,131.398 127.199,131.058 127.086 C 130.728 126.976,130.575 123.001,130.511 112.846 C 130.462 105.098,130.316 98.588,130.187 98.379 C 129.930 97.963,94.903 97.832,93.833 98.243 C 93.263 98.461,93.200 101.615,93.200 129.807 L 93.200 161.129 91.900 162.218 C 91.185 162.817,89.340 164.430,87.800 165.803 C 86.260 167.176,80.770 172.037,75.600 176.605 C 70.430 181.174,65.293 185.742,64.185 186.756 C 63.076 187.770,61.017 189.590,59.609 190.800 C 49.980 199.071,49.169 200.400,51.824 203.556 C 54.139 206.307,56.468 205.632,62.200 200.546 C 64.400 198.594,69.144 194.478,72.743 191.398 C 76.342 188.319,79.598 185.530,79.980 185.200 C 80.361 184.870,81.818 183.610,83.218 182.400 C 84.618 181.190,86.582 179.472,87.582 178.583 C 89.449 176.923,95.981 171.310,106.579 162.258 C 109.891 159.430,113.680 156.175,115.000 155.025 C 121.434 149.418,124.784 146.514,125.841 145.628 C 127.694 144.076,135.380 137.441,135.600 137.205 C 135.710 137.087,140.210 133.213,145.600 128.596 C 155.119 120.442,166.563 110.580,169.000 108.430 C 169.660 107.848,175.420 102.891,181.800 97.415 C 188.180 91.939,194.660 86.360,196.200 85.017 C 197.740 83.674,199.295 82.351,199.655 82.076 C 200.215 81.649,200.798 81.998,203.679 84.488 C 205.531 86.090,210.166 90.100,213.978 93.400 C 217.791 96.700,221.671 100.030,222.601 100.800 C 223.532 101.570,226.144 103.820,228.407 105.800 C 230.669 107.780,233.348 110.092,234.360 110.937 C 235.372 111.783,236.742 112.953,237.404 113.537 C 238.066 114.122,239.776 115.579,241.204 116.776 C 242.632 117.972,243.980 119.142,244.200 119.376 C 244.633 119.835,246.505 121.460,250.218 124.600 C 251.519 125.700,253.397 127.330,254.392 128.223 C 255.386 129.115,256.847 130.375,257.639 131.023 C 259.258 132.347,267.291 139.253,267.600 139.586 C 267.710 139.705,269.690 141.421,272.000 143.401 C 274.310 145.380,277.730 148.332,279.600 149.959 C 281.470 151.587,283.456 153.297,284.013 153.759 C 285.548 155.033,290.573 159.359,290.800 159.602 C 290.910 159.720,294.150 162.509,298.000 165.800 C 301.850 169.091,305.090 171.884,305.200 172.007 C 305.310 172.129,307.290 173.836,309.600 175.800 C 311.910 177.764,313.890 179.471,314.000 179.593 C 314.110 179.715,316.630 181.880,319.600 184.404 C 322.570 186.928,325.180 189.186,325.400 189.421 C 325.620 189.656,326.970 190.828,328.400 192.024 C 329.830 193.221,331.197 194.380,331.439 194.600 C 331.680 194.820,333.553 196.440,335.601 198.200 C 337.649 199.960,340.183 202.148,341.232 203.062 C 346.284 207.461,352.588 203.293,348.797 198.060 C 348.136 197.147,347.461 196.395,347.297 196.389 C 347.134 196.382,346.177 195.617,345.172 194.689 C 344.166 193.760,342.096 191.903,340.572 190.562 C 339.047 189.222,334.650 185.356,330.800 181.973 C 326.950 178.589,323.601 175.636,323.357 175.410 C 323.114 175.185,321.679 173.920,320.169 172.600 C 318.658 171.280,315.707 168.669,313.611 166.797 C 311.515 164.925,307.943 161.775,305.673 159.797 C 303.404 157.819,300.344 155.144,298.873 153.853 C 297.403 152.562,291.530 147.432,285.823 142.453 C 280.115 137.474,274.443 132.500,273.219 131.400 C 271.995 130.300,267.226 126.160,262.622 122.200 C 258.018 118.240,252.700 113.650,250.804 112.000 C 244.486 106.502,239.201 101.982,232.800 96.600 C 230.969 95.060,227.654 92.256,225.435 90.369 C 212.901 79.710,201.661 71.200,200.117 71.200 C 199.671 71.200,198.127 71.991,196.686 72.957 M196.991 102.079 C 196.116 102.782,193.330 105.086,190.800 107.199 C 188.270 109.313,178.460 117.489,169.000 125.370 C 159.540 133.250,151.349 140.081,150.799 140.549 C 150.248 141.017,148.718 142.300,147.399 143.400 C 146.079 144.500,144.910 145.492,144.800 145.605 C 144.690 145.718,142.638 147.428,140.240 149.405 C 137.842 151.382,134.962 153.788,133.840 154.750 C 130.173 157.896,129.835 158.178,126.600 160.788 C 124.840 162.209,123.310 163.479,123.200 163.611 C 123.090 163.743,120.205 166.179,116.788 169.025 C 93.556 188.379,86.745 194.143,86.022 195.063 C 85.200 196.107,85.200 196.134,85.200 261.563 L 85.200 327.018 86.429 328.509 L 87.658 330.000 131.340 330.000 C 178.798 330.000,176.010 330.129,177.297 327.879 C 177.685 327.201,177.846 319.591,178.000 294.600 L 178.200 262.200 200.200 262.200 L 222.200 262.200 222.400 294.600 C 222.550 318.895,222.721 327.211,223.084 327.843 C 224.395 330.129,221.649 330.000,269.144 330.000 L 312.717 330.000 313.959 328.586 L 315.200 327.172 315.281 263.086 C 315.325 227.839,315.326 198.370,315.282 197.600 C 315.150 195.258,315.660 195.744,296.575 179.815 C 293.949 177.623,291.710 175.731,291.600 175.610 C 291.358 175.344,263.221 151.848,252.789 143.200 C 248.675 139.790,236.715 129.800,226.211 121.000 C 198.622 97.887,200.608 99.172,196.991 102.079 M121.505 121.658 L 121.610 135.916 112.305 144.120 C 107.187 148.632,102.874 152.206,102.721 152.062 C 102.520 151.874,102.198 109.979,102.378 107.493 C 102.390 107.324,106.675 107.234,111.900 107.293 L 121.400 107.400 121.505 121.658 M202.753 113.100 C 203.985 114.145,205.355 115.298,205.797 115.663 C 212.485 121.185,240.142 144.263,240.957 145.002 C 241.201 145.223,242.390 146.201,243.600 147.175 C 244.810 148.149,245.980 149.139,246.200 149.373 C 246.420 149.608,248.040 150.969,249.800 152.399 C 251.560 153.828,253.450 155.382,254.000 155.852 C 255.484 157.120,270.464 169.644,277.755 175.712 C 281.250 178.620,285.930 182.535,288.155 184.411 C 290.380 186.287,293.820 189.160,295.800 190.794 C 297.780 192.429,299.850 194.167,300.400 194.657 C 300.950 195.146,302.526 196.475,303.901 197.609 L 306.403 199.671 306.301 260.336 L 306.200 321.000 269.244 321.102 C 242.033 321.177,232.142 321.084,231.738 320.748 C 231.279 320.368,231.191 314.900,231.207 287.903 C 231.228 253.182,231.331 254.902,229.149 253.774 C 227.352 252.844,172.789 252.925,171.208 253.859 C 168.713 255.333,168.800 254.049,168.800 289.214 L 168.800 321.200 131.633 321.200 C 107.219 321.200,94.421 321.063,94.333 320.800 C 94.260 320.580,94.246 293.153,94.303 259.851 L 94.405 199.302 99.678 194.951 C 102.578 192.558,105.592 190.043,106.376 189.363 C 107.159 188.683,117.160 180.325,128.600 170.790 C 140.040 161.256,150.210 152.774,151.200 151.943 C 155.996 147.914,164.710 140.621,165.600 139.892 C 166.150 139.440,167.240 138.515,168.022 137.836 C 168.804 137.156,170.325 135.880,171.403 135.000 C 173.834 133.014,176.742 130.582,177.800 129.649 C 178.240 129.261,180.850 127.094,183.600 124.835 C 186.350 122.575,189.502 119.948,190.604 118.996 C 191.706 118.044,193.146 116.850,193.804 116.341 C 194.462 115.833,196.127 114.468,197.505 113.308 C 200.521 110.771,200.031 110.790,202.753 113.100 " stroke="none" fill="#0c0c0c" fill-rule="evenodd"></path><path id="path1" d="M196.104 72.929 C 190.628 76.658,174.800 89.268,174.800 89.902 C 174.800 90.024,175.115 89.851,175.500 89.516 C 180.642 85.052,192.679 75.644,196.686 72.957 C 199.972 70.753,200.285 70.763,203.864 73.192 C 205.479 74.287,206.800 75.102,206.800 75.002 C 206.800 74.500,200.948 70.800,200.153 70.800 C 199.646 70.800,197.824 71.758,196.104 72.929 M207.200 75.312 C 207.200 75.441,209.405 77.308,212.100 79.459 C 216.751 83.173,222.720 88.091,229.019 93.400 C 230.586 94.720,233.562 97.228,235.634 98.973 C 237.705 100.719,240.570 103.149,242.000 104.373 C 243.430 105.598,244.330 106.257,244.000 105.838 C 243.496 105.198,237.860 100.370,223.400 88.191 C 222.080 87.079,218.210 83.940,214.800 81.215 C 211.390 78.490,208.285 75.994,207.900 75.668 C 207.515 75.342,207.200 75.182,207.200 75.312 M196.744 84.524 C 194.905 86.128,188.180 91.919,181.800 97.394 C 175.420 102.868,170.110 107.449,170.000 107.575 C 169.890 107.701,166.695 110.471,162.900 113.731 C 159.105 116.991,156.000 119.751,156.000 119.865 C 156.000 119.978,156.497 119.650,157.104 119.136 C 160.974 115.856,191.340 89.691,196.348 85.321 C 200.664 81.556,199.634 81.231,208.562 89.167 C 209.201 89.735,209.600 89.982,209.448 89.716 C 209.171 89.228,201.390 82.378,200.544 81.877 C 200.287 81.725,198.628 82.880,196.744 84.524 M169.000 94.464 C 160.414 101.716,146.587 113.608,136.867 122.100 C 130.624 127.554,130.885 127.449,130.687 124.598 L 130.534 122.396 130.567 124.666 C 130.586 125.990,130.791 127.000,131.058 127.088 C 131.398 127.200,148.790 112.618,150.000 111.206 C 150.180 110.996,153.170 108.439,165.200 98.204 C 168.916 95.043,174.035 90.750,174.367 90.517 C 174.458 90.453,174.458 90.326,174.367 90.236 C 174.275 90.146,171.860 92.049,169.000 94.464 M210.020 90.293 C 210.032 90.462,211.697 91.994,213.720 93.698 C 215.744 95.402,218.300 97.562,219.400 98.498 C 220.500 99.433,221.147 99.878,220.839 99.485 C 220.025 98.449,209.996 89.928,210.020 90.293 M93.300 97.888 C 92.907 98.028,92.821 102.572,92.896 119.133 L 92.993 140.200 93.100 119.421 C 93.181 103.675,93.325 98.570,93.692 98.343 C 94.283 97.978,93.993 97.641,93.300 97.888 M111.964 97.898 C 125.368 97.981,129.876 98.130,130.329 98.504 C 130.821 98.910,130.894 98.891,130.732 98.400 C 130.559 97.879,128.156 97.799,112.367 97.794 L 94.200 97.787 111.964 97.898 M130.577 110.600 C 130.577 116.980,130.632 119.534,130.699 116.276 C 130.767 113.017,130.766 107.797,130.699 104.676 C 130.631 101.554,130.576 104.220,130.577 110.600 M221.600 100.136 C 221.600 100.242,223.625 102.085,226.100 104.229 C 228.575 106.374,231.123 108.595,231.762 109.165 C 232.401 109.734,232.796 109.977,232.640 109.703 C 232.485 109.430,230.539 107.630,228.317 105.703 C 222.595 100.741,221.600 99.916,221.600 100.136 M200.213 100.689 C 202.214 100.873,201.809 100.556,226.211 121.000 C 236.715 129.800,248.675 139.790,252.789 143.200 C 262.851 151.541,291.350 175.336,291.600 175.606 C 291.813 175.835,294.660 178.222,306.237 187.877 C 310.217 191.197,313.862 194.407,314.337 195.011 C 314.925 195.758,315.200 195.907,315.200 195.478 C 315.200 194.959,298.471 180.692,280.402 165.800 C 278.266 164.040,273.311 159.900,269.390 156.600 C 265.469 153.300,261.617 150.071,260.831 149.424 C 258.848 147.795,250.427 140.786,249.204 139.748 C 246.008 137.035,237.917 130.283,235.605 128.400 C 234.119 127.190,226.478 120.800,218.624 114.200 C 201.489 99.800,202.267 100.381,200.211 100.470 L 198.600 100.540 200.213 100.689 M190.765 106.711 C 183.463 112.824,166.950 126.611,162.373 130.416 C 154.078 137.312,149.881 140.905,150.289 140.762 C 150.711 140.614,164.025 129.590,187.001 110.365 C 191.842 106.314,196.432 102.507,197.201 101.904 C 197.971 101.302,198.420 100.812,198.200 100.815 C 197.980 100.819,194.634 103.472,190.765 106.711 M244.800 106.551 C 244.800 106.716,245.379 107.335,246.087 107.926 C 246.795 108.517,248.921 110.350,250.812 112.000 C 252.704 113.650,258.018 118.240,262.622 122.200 C 267.226 126.160,271.995 130.300,273.219 131.400 C 274.443 132.500,280.115 137.474,285.823 142.453 C 291.530 147.432,297.403 152.562,298.873 153.853 C 300.344 155.144,303.404 157.819,305.673 159.797 C 307.943 161.775,311.515 164.925,313.611 166.797 C 315.707 168.669,318.658 171.280,320.169 172.600 C 321.679 173.920,323.114 175.183,323.357 175.407 C 323.601 175.631,326.860 178.498,330.600 181.777 C 334.340 185.057,337.985 188.284,338.700 188.949 C 339.415 189.613,339.989 189.987,339.974 189.778 C 339.960 189.570,339.105 188.699,338.074 187.842 C 335.850 185.993,331.425 182.124,328.614 179.570 C 327.506 178.564,321.920 173.634,316.200 168.614 C 310.480 163.595,305.170 158.922,304.400 158.230 C 303.630 157.538,294.360 149.418,283.800 140.185 C 266.280 124.866,260.260 119.641,250.400 111.195 C 248.530 109.593,246.505 107.825,245.900 107.266 C 245.295 106.708,244.800 106.386,244.800 106.551 M102.159 107.764 C 102.037 108.082,102.016 108.760,102.114 109.271 C 102.249 109.978,102.304 109.890,102.346 108.900 L 102.400 107.600 111.800 107.600 L 121.200 107.600 121.200 121.703 L 121.200 135.806 113.500 142.563 C 109.265 146.278,105.731 149.499,105.647 149.719 C 105.563 149.939,109.120 146.921,113.552 143.013 L 121.610 135.906 121.505 121.653 L 121.400 107.400 111.890 107.293 C 103.896 107.203,102.345 107.278,102.159 107.764 M233.222 110.260 C 233.235 110.447,235.585 112.580,238.444 115.000 C 241.304 117.420,245.321 120.840,247.370 122.600 C 254.860 129.032,256.361 130.262,254.394 128.353 C 253.401 127.389,251.523 125.700,250.221 124.600 C 246.562 121.510,244.638 119.840,244.200 119.376 C 243.980 119.142,242.630 117.973,241.200 116.778 C 239.770 115.583,238.510 114.513,238.400 114.400 C 237.305 113.278,233.205 110.000,233.222 110.260 M197.505 113.303 C 196.127 114.459,193.876 116.304,192.501 117.403 C 191.127 118.501,190.002 119.543,190.001 119.717 C 190.001 119.891,192.253 118.136,195.008 115.817 C 200.886 110.867,199.984 111.118,202.869 113.627 C 204.151 114.743,205.190 115.508,205.177 115.327 C 205.153 114.978,200.637 111.200,200.244 111.200 C 200.116 111.200,198.883 112.146,197.505 113.303 M206.623 116.659 C 208.219 118.149,211.589 121.005,214.633 123.448 C 215.972 124.521,218.132 126.332,219.433 127.471 C 220.735 128.611,222.993 130.501,224.451 131.671 C 225.909 132.842,231.444 137.453,236.751 141.918 C 242.058 146.383,246.400 149.887,246.400 149.704 C 246.400 149.521,245.706 148.838,244.859 148.186 C 244.011 147.534,242.436 146.256,241.359 145.347 C 219.985 127.314,203.079 113.351,206.623 116.659 M183.800 124.643 C 180.720 127.187,178.126 129.476,178.035 129.730 C 177.902 130.102,180.288 128.194,183.453 125.400 C 183.702 125.180,184.602 124.428,185.453 123.729 C 188.139 121.522,189.807 120.033,189.600 120.025 C 189.490 120.022,186.880 122.100,183.800 124.643 M146.200 128.049 C 141.360 132.233,136.950 136.049,136.399 136.528 C 132.938 139.543,126.816 144.808,125.817 145.628 C 125.167 146.163,123.817 147.388,122.817 148.350 C 119.988 151.075,122.694 148.832,134.704 138.498 C 151.197 124.307,155.654 120.398,155.310 120.421 C 155.140 120.432,151.040 123.865,146.200 128.049 M175.176 131.846 C 172.142 134.420,170.811 135.527,168.257 137.600 C 167.037 138.590,166.030 139.540,166.019 139.712 C 166.009 139.883,168.610 137.841,171.800 135.173 C 177.000 130.824,177.904 130.000,177.476 130.000 C 177.408 130.000,176.373 130.831,175.176 131.846 M256.532 130.280 C 256.691 130.544,258.752 132.416,261.111 134.441 C 263.470 136.466,265.895 138.579,266.500 139.136 C 267.105 139.694,267.591 139.981,267.580 139.775 C 267.568 139.569,265.903 138.006,263.880 136.302 C 261.856 134.598,259.309 132.438,258.221 131.502 C 257.132 130.566,256.372 130.016,256.532 130.280 M159.700 144.812 C 156.565 147.457,154.000 149.738,154.000 149.881 C 154.000 150.023,154.405 149.779,154.900 149.339 C 155.395 148.899,158.005 146.688,160.700 144.427 C 165.024 140.800,165.893 139.998,165.500 140.001 C 165.445 140.001,162.835 142.166,159.700 144.812 M268.160 140.297 C 268.315 140.570,270.261 142.370,272.483 144.297 C 278.372 149.404,279.403 150.253,279.074 149.719 C 278.911 149.456,276.848 147.584,274.489 145.559 C 272.130 143.534,269.677 141.410,269.038 140.839 C 268.399 140.267,268.004 140.023,268.160 140.297 M143.215 146.422 C 137.847 150.909,133.464 154.865,136.200 152.753 C 136.640 152.413,138.268 151.070,139.817 149.767 C 142.907 147.171,145.664 144.866,148.338 142.644 C 149.294 141.850,149.924 141.211,149.738 141.225 C 149.552 141.239,146.617 143.578,143.215 146.422 M104.363 150.645 C 104.069 150.999,103.476 151.420,103.045 151.579 C 102.610 151.740,102.444 151.980,102.670 152.120 C 102.894 152.258,103.589 151.838,104.214 151.186 C 104.838 150.534,105.248 150.000,105.124 150.000 C 105.000 150.000,104.657 150.290,104.363 150.645 M119.190 151.332 C 116.903 153.393,112.986 156.787,106.579 162.258 C 95.981 171.310,89.449 176.923,87.582 178.583 C 86.582 179.472,84.618 181.190,83.218 182.400 C 81.818 183.610,80.361 184.870,79.980 185.200 C 79.598 185.530,76.342 188.319,72.743 191.398 C 69.144 194.478,64.400 198.594,62.200 200.546 C 57.761 204.484,56.134 205.389,54.159 205.019 C 51.000 204.426,49.650 200.078,51.900 197.742 C 53.413 196.172,59.201 191.030,59.642 190.867 C 59.839 190.793,60.000 190.550,60.000 190.325 C 60.000 189.922,56.020 193.288,52.313 196.826 C 49.243 199.758,49.876 204.132,53.530 205.226 C 55.950 205.951,57.220 205.278,63.229 200.089 C 66.216 197.510,73.659 191.080,79.771 185.800 C 85.883 180.520,92.440 174.875,94.342 173.257 C 96.244 171.638,98.862 169.388,100.161 168.257 C 103.916 164.986,105.119 163.951,110.000 159.793 C 112.530 157.638,115.950 154.693,117.600 153.249 C 119.250 151.804,120.675 150.573,120.767 150.511 C 120.858 150.450,120.858 150.324,120.765 150.232 C 120.673 150.140,119.964 150.635,119.190 151.332 M148.400 154.227 C 145.650 156.541,143.040 158.828,142.600 159.307 L 141.800 160.179 142.800 159.355 C 147.105 155.807,153.600 150.270,153.600 150.149 C 153.600 149.863,153.368 150.045,148.400 154.227 M246.800 150.104 C 246.800 150.229,251.610 154.352,257.488 159.266 C 263.366 164.180,268.676 168.621,269.288 169.136 C 269.900 169.650,270.400 169.971,270.400 169.849 C 270.400 169.727,266.935 166.721,262.700 163.168 C 258.465 159.616,254.545 156.325,253.989 155.855 C 253.432 155.385,251.902 154.112,250.589 153.026 C 249.275 151.941,247.885 150.788,247.500 150.464 C 247.115 150.141,246.800 149.979,246.800 150.104 M279.726 150.280 C 279.889 150.544,281.952 152.416,284.311 154.441 C 286.670 156.466,289.095 158.579,289.700 159.136 C 290.305 159.694,290.791 159.981,290.781 159.775 C 290.770 159.569,289.813 158.625,288.653 157.678 C 287.494 156.731,286.102 155.561,285.560 155.078 C 282.563 152.408,279.469 149.863,279.726 150.280 M125.366 161.326 C 120.068 165.767,109.268 174.800,101.366 181.400 C 86.900 193.483,85.200 194.989,85.200 195.712 C 85.200 195.930,85.570 195.638,86.022 195.063 C 86.745 194.143,93.556 188.379,116.788 169.025 C 120.205 166.179,123.090 163.743,123.200 163.611 C 123.310 163.479,124.840 162.209,126.600 160.788 C 130.518 157.626,131.703 156.623,133.781 154.710 C 137.326 151.447,134.545 153.633,125.366 161.326 M130.282 169.355 C 124.167 174.475,118.857 179.006,118.482 179.424 C 117.936 180.031,118.000 180.017,118.800 179.354 C 139.135 162.506,142.196 159.902,141.524 160.022 C 141.456 160.034,136.397 164.234,130.282 169.355 M291.200 160.130 C 291.200 160.248,293.135 162.019,295.500 164.067 C 297.865 166.114,300.003 167.972,300.251 168.195 C 300.498 168.418,302.376 170.040,304.423 171.800 C 306.470 173.560,309.418 176.110,310.973 177.466 C 312.528 178.822,313.875 179.857,313.967 179.766 C 314.058 179.675,314.058 179.543,313.967 179.473 C 313.477 179.101,305.369 172.195,305.200 172.006 C 305.090 171.883,302.483 169.627,299.406 166.991 C 296.329 164.356,293.224 161.686,292.506 161.059 C 291.788 160.431,291.200 160.013,291.200 160.130 M92.537 160.877 C 92.351 161.172,89.680 163.645,86.600 166.372 C 83.520 169.100,79.650 172.532,78.000 173.999 C 76.350 175.466,71.715 179.589,67.700 183.160 C 63.685 186.731,60.400 189.744,60.400 189.855 C 60.400 190.140,61.645 189.062,74.032 178.048 C 85.159 168.155,89.475 164.324,92.000 162.099 C 92.770 161.421,93.281 160.748,93.136 160.603 C 92.992 160.458,92.722 160.582,92.537 160.877 M270.800 170.117 C 270.800 170.250,273.005 172.198,275.700 174.446 C 278.395 176.694,281.005 178.894,281.500 179.336 C 281.995 179.778,282.400 180.041,282.400 179.921 C 282.400 179.746,278.589 176.440,271.500 170.466 C 271.115 170.141,270.800 169.985,270.800 170.117 M113.600 183.291 C 105.948 189.717,103.706 191.591,99.100 195.417 C 96.515 197.564,94.400 199.508,94.400 199.737 C 94.400 199.966,94.625 199.877,94.900 199.539 C 95.175 199.201,98.100 196.683,101.400 193.944 C 104.700 191.204,109.650 187.094,112.400 184.811 C 115.150 182.527,117.475 180.601,117.567 180.530 C 117.658 180.458,117.658 180.332,117.567 180.250 C 117.475 180.167,115.690 181.536,113.600 183.291 M282.800 180.118 C 282.800 180.251,284.375 181.673,286.300 183.279 C 288.225 184.884,289.890 186.289,290.000 186.402 C 290.975 187.400,299.692 194.442,299.807 194.326 C 299.890 194.243,298.847 193.281,297.489 192.187 C 296.130 191.094,292.585 188.143,289.610 185.629 C 286.634 183.116,283.885 180.793,283.500 180.467 C 283.115 180.142,282.800 179.985,282.800 180.118 M316.024 181.653 C 319.070 184.569,325.603 190.070,325.366 189.518 C 325.244 189.233,324.122 188.162,322.872 187.139 C 321.622 186.115,319.160 184.069,317.400 182.591 C 315.640 181.114,315.021 180.691,316.024 181.653 M326.027 190.260 C 326.041 190.447,328.606 192.731,331.727 195.335 C 334.847 197.939,336.583 199.289,335.585 198.335 C 334.587 197.381,333.145 196.060,332.381 195.400 C 327.257 190.974,326.003 189.960,326.027 190.260 M340.400 190.371 C 340.400 190.607,340.535 190.805,340.700 190.812 C 340.865 190.818,342.350 192.073,344.000 193.600 C 345.650 195.127,347.134 196.382,347.297 196.388 C 347.461 196.395,348.136 197.147,348.797 198.060 C 349.459 198.973,350.000 199.553,350.000 199.349 C 350.000 199.145,349.743 198.611,349.428 198.162 C 348.559 196.921,340.400 189.880,340.400 190.371 M301.616 196.000 C 302.200 196.550,303.425 197.650,304.340 198.444 L 306.003 199.888 305.901 260.244 L 305.800 320.600 268.800 320.600 L 231.800 320.600 231.596 289.600 L 231.393 258.600 231.296 289.451 C 231.216 315.048,231.293 320.379,231.744 320.753 C 232.140 321.082,242.270 321.177,269.244 321.102 L 306.200 321.000 306.301 260.350 L 306.403 199.699 304.101 197.776 C 301.342 195.470,300.152 194.620,301.616 196.000 M84.995 261.600 C 84.995 297.570,85.042 312.285,85.100 294.300 C 85.158 276.315,85.158 246.885,85.100 228.900 C 85.042 210.915,84.995 225.630,84.995 261.600 M315.395 263.000 C 315.395 298.200,315.442 312.541,315.500 294.868 C 315.558 277.196,315.558 248.396,315.500 230.868 C 315.442 213.341,315.395 227.800,315.395 263.000 M340.000 202.342 C 344.040 206.130,347.166 206.518,349.246 203.490 L 350.133 202.200 348.644 203.600 C 347.411 204.759,346.855 205.000,345.407 205.000 C 343.592 205.000,343.561 204.982,339.521 201.652 C 337.752 200.194,337.831 200.309,340.000 202.342 M200.467 253.191 L 228.733 253.400 230.067 254.352 L 231.400 255.305 230.291 254.152 L 229.182 253.000 200.691 252.991 L 172.200 252.981 200.467 253.191 M169.969 254.369 C 169.326 255.012,168.812 255.867,168.826 256.269 C 168.843 256.781,169.035 256.631,169.466 255.768 C 169.804 255.091,170.557 254.241,171.140 253.879 C 171.723 253.517,171.961 253.216,171.669 253.211 C 171.377 253.205,170.612 253.726,169.969 254.369 M231.293 256.800 C 231.293 257.570,231.375 257.885,231.476 257.500 C 231.576 257.115,231.576 256.485,231.476 256.100 C 231.375 255.715,231.293 256.030,231.293 256.800 M178.185 262.497 C 178.080 262.773,178.041 277.310,178.099 294.800 L 178.205 326.600 178.302 294.497 L 178.400 262.393 200.100 262.497 L 221.800 262.600 222.000 294.800 C 222.211 328.731,222.176 328.113,223.965 329.487 C 225.209 330.442,225.263 329.980,224.042 328.840 C 223.359 328.201,222.759 327.616,222.708 327.540 C 222.658 327.463,222.523 312.730,222.408 294.800 L 222.200 262.200 200.289 262.097 C 182.973 262.015,178.337 262.099,178.185 262.497 M94.234 320.543 C 94.503 321.246,168.800 321.601,168.800 320.900 C 168.800 320.735,152.216 320.647,131.946 320.704 C 104.592 320.781,94.949 320.690,94.537 320.348 C 94.094 319.980,94.033 320.020,94.234 320.543 M177.439 327.490 C 177.282 327.979,176.689 328.744,176.122 329.190 C 175.556 329.635,175.263 330.000,175.471 330.000 C 176.132 330.000,178.096 327.687,177.907 327.132 C 177.792 326.796,177.620 326.927,177.439 327.490 M85.200 327.445 C 85.200 327.668,85.784 328.379,86.499 329.025 L 87.797 330.200 86.805 329.000 C 86.259 328.340,85.674 327.629,85.506 327.420 C 85.316 327.184,85.200 327.194,85.200 327.445 M313.807 328.724 C 312.938 329.743,312.840 329.982,313.448 329.602 C 314.253 329.100,315.389 327.626,315.128 327.423 C 315.057 327.369,314.463 327.954,313.807 328.724 M109.900 330.300 C 121.835 330.359,141.365 330.359,153.300 330.300 C 165.235 330.241,155.470 330.193,131.600 330.193 C 107.730 330.193,97.965 330.241,109.900 330.300 M247.100 330.300 C 259.035 330.359,278.565 330.359,290.500 330.300 C 302.435 330.241,292.670 330.193,268.800 330.193 C 244.930 330.193,235.165 330.241,247.100 330.300 " stroke="none" fill="#747474" fill-rule="evenodd"></path></g></svg>