<svg id="svg" version="1.1" xmlns="http://www.w3.org/2000/svg" xmlns:xlink="http://www.w3.org/1999/xlink" width="400" height="400" viewBox="0, 0, 400,400"><g id="svgg"><path id="path0" d="" stroke="none" fill="#040404" fill-rule="evenodd"></path><path id="path1" d="M198.000 16.822 C 197.010 16.997,194.906 17.154,193.324 17.170 C 191.742 17.187,190.336 17.380,190.200 17.600 C 190.064 17.820,189.063 18.000,187.976 18.000 C 186.889 18.000,186.000 18.180,186.000 18.400 C 186.000 18.620,185.471 18.800,184.824 18.800 C 184.177 18.800,183.546 18.963,183.423 19.163 C 183.299 19.363,182.164 19.841,180.899 20.226 C 179.635 20.611,178.429 21.077,178.220 21.263 C 178.011 21.448,177.516 21.600,177.120 21.600 C 176.724 21.600,176.400 21.780,176.400 22.000 C 176.400 22.220,176.040 22.400,175.600 22.400 C 175.160 22.400,174.800 22.580,174.800 22.800 C 174.800 23.020,174.607 23.200,174.370 23.200 C 174.134 23.200,172.688 24.010,171.158 25.000 C 169.627 25.990,168.201 26.800,167.988 26.800 C 167.774 26.800,167.599 26.935,167.597 27.100 C 167.596 27.265,166.923 27.850,166.103 28.400 C 164.351 29.575,158.525 35.350,156.921 37.503 C 156.307 38.326,155.693 39.090,155.557 39.200 C 154.309 40.209,148.000 52.029,148.000 53.358 C 148.000 53.685,147.820 54.064,147.600 54.200 C 147.380 54.336,147.200 54.966,147.200 55.600 C 147.200 56.234,147.020 56.864,146.800 57.000 C 146.580 57.136,146.400 57.831,146.400 58.544 C 146.400 59.257,146.240 60.011,146.043 60.220 C 145.055 61.274,144.700 76.099,145.547 81.000 C 145.813 82.540,146.132 84.476,146.257 85.303 C 146.382 86.129,146.645 86.905,146.842 87.026 C 147.039 87.148,147.200 87.689,147.200 88.229 C 147.200 88.769,147.360 89.523,147.556 89.905 C 147.751 90.287,148.182 91.230,148.514 92.000 C 148.845 92.770,149.339 93.883,149.611 94.473 C 150.761 96.964,153.621 96.800,109.007 96.800 C 77.246 96.800,68.198 96.909,67.514 97.300 C 65.107 98.676,63.200 101.544,63.200 103.789 C 63.200 104.539,63.020 105.264,62.800 105.400 C 62.580 105.536,62.400 106.346,62.400 107.200 C 62.400 108.054,62.244 108.849,62.053 108.967 C 61.862 109.085,61.587 110.079,61.441 111.175 C 61.296 112.270,61.002 113.275,60.788 113.407 C 60.575 113.539,60.400 114.346,60.400 115.200 C 60.400 116.054,60.220 116.864,60.000 117.000 C 59.780 117.136,59.600 118.036,59.600 119.000 C 59.600 119.964,59.420 120.864,59.200 121.000 C 58.980 121.136,58.800 121.946,58.800 122.800 C 58.800 123.654,58.639 124.452,58.442 124.574 C 58.245 124.695,57.992 125.471,57.879 126.297 C 57.565 128.598,56.811 131.721,56.384 132.495 C 56.173 132.877,56.000 133.811,56.000 134.571 C 56.000 135.331,55.820 136.064,55.600 136.200 C 55.380 136.336,55.200 137.146,55.200 138.000 C 55.200 138.854,55.020 139.664,54.800 139.800 C 54.580 139.936,54.400 140.836,54.400 141.800 C 54.400 142.764,54.220 143.664,54.000 143.800 C 53.780 143.936,53.600 144.582,53.600 145.236 C 53.600 145.891,53.330 147.072,53.000 147.862 C 52.670 148.651,52.400 149.816,52.400 150.449 C 52.400 151.082,52.220 151.600,52.000 151.600 C 51.780 151.600,51.600 152.399,51.600 153.376 C 51.600 154.353,51.420 155.264,51.200 155.400 C 50.980 155.536,50.800 156.436,50.800 157.400 C 50.800 158.364,50.639 159.252,50.442 159.374 C 50.245 159.495,49.988 160.271,49.870 161.097 C 49.397 164.416,48.805 166.955,48.414 167.346 C 48.186 167.574,48.000 168.433,48.000 169.256 C 48.000 170.079,47.820 170.864,47.600 171.000 C 47.380 171.136,47.200 171.921,47.200 172.744 C 47.200 173.567,47.038 174.411,46.841 174.620 C 46.644 174.829,46.385 175.720,46.267 176.600 C 45.987 178.680,45.430 181.217,44.597 184.200 C 44.229 185.520,43.835 187.320,43.723 188.200 C 43.610 189.080,43.356 189.971,43.159 190.180 C 42.962 190.389,42.800 191.208,42.800 192.000 C 42.800 192.792,42.638 193.611,42.441 193.820 C 42.244 194.029,41.985 194.920,41.867 195.800 C 41.749 196.680,41.467 198.210,41.240 199.200 C 41.014 200.190,40.613 202.035,40.348 203.300 C 40.083 204.565,39.716 205.600,39.533 205.600 C 39.350 205.600,39.200 206.399,39.200 207.376 C 39.200 208.353,39.020 209.264,38.800 209.400 C 38.580 209.536,38.400 210.321,38.400 211.144 C 38.400 211.967,38.238 212.811,38.041 213.020 C 37.844 213.229,37.585 214.120,37.467 215.000 C 37.075 217.916,36.553 220.189,36.074 221.074 C 35.813 221.554,35.600 222.589,35.600 223.374 C 35.600 224.158,35.420 224.800,35.200 224.800 C 34.980 224.800,34.800 225.599,34.800 226.576 C 34.800 227.553,34.620 228.464,34.400 228.600 C 34.180 228.736,34.000 229.521,34.000 230.344 C 34.000 231.167,33.838 232.011,33.641 232.220 C 33.444 232.429,33.193 233.320,33.085 234.200 C 32.977 235.080,32.582 236.880,32.208 238.200 C 31.834 239.520,31.435 241.320,31.323 242.200 C 31.210 243.080,30.956 243.971,30.759 244.180 C 30.562 244.389,30.400 245.233,30.400 246.056 C 30.400 246.879,30.220 247.664,30.000 247.800 C 29.780 247.936,29.600 248.721,29.600 249.544 C 29.600 250.367,29.438 251.211,29.241 251.420 C 29.044 251.629,28.790 252.520,28.678 253.400 C 28.377 255.760,27.568 258.945,27.158 259.380 C 26.961 259.589,26.800 260.534,26.800 261.480 C 26.800 262.426,26.620 263.200,26.400 263.200 C 26.180 263.200,26.000 263.999,26.000 264.976 C 26.000 265.953,25.820 266.864,25.600 267.000 C 25.380 267.136,25.200 267.809,25.200 268.495 C 25.200 269.746,25.037 270.439,23.843 274.254 C 23.489 275.383,23.200 276.768,23.200 277.330 C 23.200 277.893,23.020 278.464,22.800 278.600 C 22.580 278.736,22.400 279.647,22.400 280.624 C 22.400 281.601,22.220 282.400,22.000 282.400 C 21.780 282.400,21.600 283.199,21.600 284.176 C 21.600 285.153,21.420 286.064,21.200 286.200 C 20.980 286.336,20.800 287.009,20.800 287.695 C 20.800 288.946,20.637 289.639,19.443 293.454 C 19.089 294.583,18.800 295.968,18.800 296.530 C 18.800 297.093,18.620 297.664,18.400 297.800 C 18.180 297.936,18.000 298.836,18.000 299.800 C 18.000 300.764,17.820 301.664,17.600 301.800 C 17.380 301.936,17.200 302.721,17.200 303.544 C 17.200 304.367,17.038 305.211,16.841 305.420 C 16.644 305.629,16.390 306.520,16.278 307.400 C 15.977 309.760,15.168 312.945,14.758 313.380 C 14.561 313.589,14.400 314.433,14.400 315.256 C 14.400 316.079,14.220 316.864,14.000 317.000 C 13.780 317.136,13.600 318.036,13.600 319.000 C 13.600 319.964,13.420 320.864,13.200 321.000 C 12.980 321.136,12.800 321.946,12.800 322.800 C 12.800 323.654,12.620 324.464,12.400 324.600 C 12.180 324.736,11.990 325.332,11.977 325.924 C 11.950 327.199,10.670 332.264,10.275 332.659 C 10.124 332.810,10.000 333.613,10.000 334.443 C 10.000 335.273,9.820 336.064,9.600 336.200 C 9.380 336.336,9.200 337.236,9.200 338.200 C 9.200 339.164,9.039 340.052,8.842 340.174 C 8.645 340.295,8.388 341.071,8.270 341.897 C 7.797 345.216,7.205 347.755,6.814 348.146 C 6.586 348.374,6.400 349.233,6.400 350.056 C 6.400 350.879,6.220 351.664,6.000 351.800 C 5.780 351.936,5.600 352.721,5.600 353.544 C 5.600 354.367,5.438 355.211,5.241 355.420 C 5.044 355.629,4.785 356.520,4.667 357.400 C 4.549 358.280,4.270 359.810,4.047 360.800 C 3.825 361.790,3.439 363.590,3.191 364.800 C 2.942 366.010,2.572 367.171,2.369 367.380 C 2.166 367.589,2.000 368.433,2.000 369.256 C 2.000 370.079,1.820 370.864,1.600 371.000 C 1.380 371.136,1.200 372.034,1.200 372.995 C 1.200 374.071,0.952 374.991,0.554 375.389 C -0.041 375.984,-0.041 376.092,0.554 376.749 C 0.909 377.142,1.200 377.859,1.200 378.342 C 1.200 380.011,4.299 382.545,7.024 383.103 C 10.576 383.831,389.424 383.831,392.976 383.103 C 395.753 382.534,398.800 380.014,398.800 378.287 C 398.800 377.773,399.048 377.014,399.351 376.599 C 399.819 375.959,399.819 375.762,399.351 375.294 C 399.048 374.991,398.800 373.956,398.800 372.995 C 398.800 372.034,398.620 371.136,398.400 371.000 C 398.180 370.864,398.000 370.073,398.000 369.243 C 398.000 368.413,397.868 367.601,397.706 367.440 C 397.545 367.278,397.179 366.123,396.893 364.873 C 396.607 363.623,396.187 361.790,395.960 360.800 C 395.734 359.810,395.451 358.280,395.333 357.400 C 395.215 356.520,394.956 355.629,394.759 355.420 C 394.562 355.211,394.400 354.266,394.400 353.320 C 394.400 352.374,394.220 351.600,394.000 351.600 C 393.780 351.600,393.600 350.790,393.600 349.800 C 393.600 348.810,393.438 348.000,393.240 348.000 C 392.887 348.000,392.154 344.987,391.731 341.800 C 391.614 340.920,391.356 340.029,391.159 339.820 C 390.962 339.611,390.800 338.767,390.800 337.944 C 390.800 337.121,390.620 336.336,390.400 336.200 C 390.180 336.064,390.000 335.254,390.000 334.400 C 390.000 333.546,389.820 332.736,389.600 332.600 C 389.380 332.464,389.200 331.835,389.200 331.202 C 389.200 330.570,389.007 329.545,388.770 328.926 C 388.534 328.307,388.164 326.990,387.947 326.000 C 387.731 325.010,387.372 323.390,387.151 322.400 C 386.929 321.410,386.651 319.880,386.533 319.000 C 386.415 318.120,386.156 317.229,385.959 317.020 C 385.762 316.811,385.600 316.044,385.600 315.315 C 385.600 314.586,385.441 313.677,385.247 313.295 C 384.770 312.354,383.914 308.940,383.695 307.097 C 383.596 306.271,383.355 305.495,383.158 305.374 C 382.961 305.252,382.800 304.454,382.800 303.600 C 382.800 302.746,382.620 301.936,382.400 301.800 C 382.180 301.664,382.000 300.764,382.000 299.800 C 382.000 298.836,381.820 297.936,381.600 297.800 C 381.380 297.664,381.200 296.931,381.200 296.171 C 381.200 295.411,381.026 294.477,380.813 294.095 C 380.304 293.181,379.200 288.594,379.200 287.391 C 379.200 286.872,379.020 286.336,378.800 286.200 C 378.580 286.064,378.400 285.153,378.400 284.176 C 378.400 283.199,378.220 282.400,378.000 282.400 C 377.780 282.400,377.600 281.601,377.600 280.624 C 377.600 279.647,377.420 278.736,377.200 278.600 C 376.980 278.464,376.800 277.679,376.800 276.856 C 376.800 276.033,376.614 275.174,376.386 274.946 C 375.995 274.555,375.403 272.016,374.930 268.697 C 374.812 267.871,374.555 267.095,374.358 266.974 C 374.161 266.852,374.000 265.953,374.000 264.976 C 374.000 263.999,373.820 263.200,373.600 263.200 C 373.380 263.200,373.200 262.401,373.200 261.424 C 373.200 260.447,373.020 259.536,372.800 259.400 C 372.580 259.264,372.400 258.645,372.400 258.025 C 372.400 257.405,372.130 256.251,371.800 255.462 C 371.470 254.672,371.200 253.491,371.200 252.836 C 371.200 252.182,371.020 251.536,370.800 251.400 C 370.580 251.264,370.400 250.454,370.400 249.600 C 370.400 248.746,370.220 247.936,370.000 247.800 C 369.780 247.664,369.600 246.854,369.600 246.000 C 369.600 245.146,369.420 244.336,369.200 244.200 C 368.980 244.064,368.800 243.241,368.800 242.371 C 368.800 241.501,368.641 240.477,368.447 240.095 C 367.945 239.107,367.162 236.079,366.922 234.200 C 366.810 233.320,366.556 232.429,366.359 232.220 C 366.162 232.011,366.000 231.167,366.000 230.344 C 366.000 229.521,365.820 228.736,365.600 228.600 C 365.380 228.464,365.200 227.553,365.200 226.576 C 365.200 225.599,365.020 224.800,364.800 224.800 C 364.580 224.800,364.400 224.026,364.400 223.080 C 364.400 222.134,364.222 221.182,364.004 220.964 C 363.584 220.544,362.870 217.667,362.525 215.000 C 362.411 214.120,362.156 213.229,361.959 213.020 C 361.762 212.811,361.600 211.967,361.600 211.144 C 361.600 210.321,361.420 209.536,361.200 209.400 C 360.980 209.264,360.800 208.353,360.800 207.376 C 360.800 206.399,360.620 205.600,360.400 205.600 C 360.180 205.600,360.000 204.992,360.000 204.249 C 360.000 203.506,359.730 202.251,359.400 201.462 C 359.070 200.672,358.800 199.491,358.800 198.836 C 358.800 198.182,358.620 197.536,358.400 197.400 C 358.180 197.264,358.000 196.454,358.000 195.600 C 358.000 194.746,357.820 193.936,357.600 193.800 C 357.380 193.664,357.200 192.854,357.200 192.000 C 357.200 191.146,357.020 190.336,356.800 190.200 C 356.580 190.064,356.400 189.183,356.400 188.243 C 356.400 187.303,356.265 186.398,356.100 186.234 C 355.652 185.786,354.141 179.636,353.733 176.600 C 353.615 175.720,353.356 174.829,353.159 174.620 C 352.962 174.411,352.800 173.567,352.800 172.744 C 352.800 171.921,352.620 171.136,352.400 171.000 C 352.180 170.864,352.000 170.079,352.000 169.256 C 352.000 168.433,351.834 167.589,351.631 167.380 C 351.428 167.171,351.058 166.010,350.809 164.800 C 350.561 163.590,350.175 161.790,349.953 160.800 C 349.730 159.810,349.451 158.280,349.333 157.400 C 349.215 156.520,348.956 155.629,348.759 155.420 C 348.562 155.211,348.400 154.266,348.400 153.320 C 348.400 152.374,348.220 151.600,348.000 151.600 C 347.780 151.600,347.600 150.790,347.600 149.800 C 347.600 148.810,347.438 148.000,347.240 148.000 C 346.887 148.000,346.154 144.987,345.731 141.800 C 345.614 140.920,345.356 140.029,345.159 139.820 C 344.962 139.611,344.800 138.767,344.800 137.944 C 344.800 137.121,344.620 136.336,344.400 136.200 C 344.180 136.064,344.000 135.254,344.000 134.400 C 344.000 133.546,343.820 132.736,343.600 132.600 C 343.380 132.464,343.200 131.835,343.200 131.202 C 343.200 130.570,342.995 129.545,342.745 128.926 C 342.495 128.307,342.135 127.035,341.945 126.100 C 341.755 125.165,341.408 123.545,341.174 122.500 C 340.940 121.455,340.651 119.880,340.533 119.000 C 340.415 118.120,340.156 117.229,339.959 117.020 C 339.762 116.811,339.600 115.986,339.600 115.187 C 339.600 114.387,339.468 113.601,339.306 113.440 C 339.145 113.278,338.779 112.123,338.493 110.873 C 337.486 106.472,337.162 104.988,336.948 103.800 C 336.464 101.103,334.704 98.529,332.505 97.300 C 331.806 96.909,322.743 96.800,290.993 96.800 C 246.062 96.800,249.244 97.002,250.556 94.236 C 250.910 93.490,251.200 92.681,251.200 92.440 C 251.200 92.198,251.380 92.000,251.600 92.000 C 251.820 92.000,252.000 91.561,252.000 91.024 C 252.000 90.487,252.180 89.936,252.400 89.800 C 252.620 89.664,252.800 89.034,252.800 88.400 C 252.800 87.766,252.961 87.148,253.158 87.026 C 253.355 86.905,253.618 86.129,253.743 85.303 C 253.868 84.476,254.187 82.540,254.453 81.000 C 255.320 75.983,254.949 60.786,253.944 60.166 C 253.755 60.049,253.600 59.344,253.600 58.600 C 253.600 57.856,253.420 57.136,253.200 57.000 C 252.980 56.864,252.800 56.234,252.800 55.600 C 252.800 54.966,252.620 54.336,252.400 54.200 C 252.180 54.064,252.000 53.646,252.000 53.270 C 252.000 51.997,245.647 40.165,244.445 39.200 C 244.308 39.090,243.659 38.280,243.004 37.400 C 241.484 35.358,236.272 30.159,234.195 28.612 C 233.318 27.959,232.251 27.104,231.825 26.712 C 231.398 26.320,230.813 26.000,230.525 26.000 C 230.236 26.000,230.000 25.820,230.000 25.600 C 230.000 25.380,229.823 25.200,229.608 25.200 C 229.392 25.200,228.231 24.570,227.027 23.800 C 225.823 23.030,224.560 22.400,224.219 22.400 C 223.879 22.400,223.600 22.220,223.600 22.000 C 223.600 21.780,223.328 21.600,222.995 21.600 C 222.662 21.600,222.032 21.420,221.595 21.200 C 219.666 20.229,219.303 20.086,218.091 19.820 C 217.386 19.665,216.706 19.372,216.581 19.169 C 216.455 18.966,215.823 18.800,215.176 18.800 C 214.529 18.800,214.000 18.620,214.000 18.400 C 214.000 18.180,213.111 18.000,212.024 18.000 C 210.937 18.000,209.953 17.847,209.837 17.661 C 209.722 17.474,207.687 17.217,205.314 17.090 C 202.941 16.963,200.730 16.779,200.400 16.681 C 200.070 16.583,198.990 16.646,198.000 16.822 M207.000 32.000 C 207.136 32.220,208.036 32.400,209.000 32.400 C 209.964 32.400,210.864 32.580,211.000 32.800 C 211.136 33.020,211.599 33.200,212.029 33.200 C 212.813 33.200,213.064 33.296,215.532 34.532 C 216.265 34.900,217.120 35.200,217.432 35.200 C 217.745 35.200,218.000 35.380,218.000 35.600 C 218.000 35.820,218.260 36.000,218.577 36.000 C 219.144 36.000,221.731 37.377,222.686 38.188 C 224.117 39.402,224.386 39.600,224.601 39.600 C 224.731 39.600,225.258 40.005,225.774 40.500 C 226.290 40.995,227.317 41.959,228.056 42.642 C 231.735 46.042,234.690 50.133,236.837 54.800 C 237.293 55.790,237.831 56.913,238.033 57.295 C 238.235 57.677,238.400 58.341,238.400 58.771 C 238.400 59.201,238.580 59.664,238.800 59.800 C 239.020 59.936,239.200 60.631,239.200 61.344 C 239.200 62.057,239.365 62.811,239.568 63.020 C 240.797 64.291,240.820 79.340,239.594 80.566 C 239.377 80.783,239.200 81.543,239.200 82.256 C 239.200 82.969,239.020 83.664,238.800 83.800 C 238.580 83.936,238.400 84.399,238.400 84.829 C 238.400 85.259,238.249 85.923,238.064 86.305 C 235.703 91.192,234.618 93.200,234.338 93.200 C 234.152 93.200,234.000 93.408,234.000 93.662 C 234.000 93.916,233.541 94.726,232.980 95.462 L 231.959 96.800 200.115 96.800 L 168.271 96.800 167.136 95.528 C 166.511 94.828,166.000 94.018,166.000 93.728 C 166.000 93.438,165.820 93.200,165.600 93.200 C 165.380 93.200,165.200 92.930,165.200 92.600 C 165.200 92.270,165.020 92.000,164.800 92.000 C 164.580 92.000,164.400 91.640,164.400 91.200 C 164.400 90.760,164.247 90.400,164.061 90.400 C 163.874 90.400,163.406 89.635,163.020 88.700 C 162.634 87.765,162.156 86.687,161.959 86.305 C 161.762 85.923,161.600 85.259,161.600 84.829 C 161.600 84.399,161.420 83.936,161.200 83.800 C 160.980 83.664,160.800 82.944,160.800 82.200 C 160.800 81.456,160.620 80.736,160.400 80.600 C 160.180 80.464,160.000 79.668,160.000 78.831 C 160.000 77.994,159.811 76.340,159.580 75.155 C 159.134 72.867,159.796 63.773,160.463 63.020 C 160.648 62.811,160.800 62.057,160.800 61.344 C 160.800 60.631,160.980 59.936,161.200 59.800 C 161.420 59.664,161.600 59.201,161.600 58.771 C 161.600 58.341,161.757 57.677,161.950 57.295 C 162.142 56.913,162.650 55.880,163.079 55.000 C 165.104 50.840,167.096 47.727,168.990 45.759 C 169.436 45.296,170.171 44.486,170.624 43.959 C 171.558 42.871,174.138 40.592,175.784 39.400 C 176.392 38.960,177.094 38.409,177.344 38.175 C 177.595 37.942,178.385 37.493,179.100 37.178 C 179.815 36.863,180.400 36.469,180.400 36.302 C 180.400 36.136,180.760 36.000,181.200 36.000 C 181.640 36.000,182.000 35.820,182.000 35.600 C 182.000 35.380,182.255 35.200,182.568 35.200 C 182.880 35.200,183.735 34.900,184.468 34.532 C 186.936 33.296,187.187 33.200,187.971 33.200 C 188.401 33.200,188.864 33.020,189.000 32.800 C 189.136 32.580,190.036 32.400,191.000 32.400 C 191.964 32.400,192.864 32.220,193.000 32.000 C 193.149 31.759,195.930 31.600,200.000 31.600 C 204.070 31.600,206.851 31.759,207.000 32.000 M323.600 111.800 C 323.874 112.130,324.190 113.214,324.302 114.209 C 324.414 115.204,324.662 116.115,324.853 116.233 C 325.044 116.351,325.200 117.146,325.200 118.000 C 325.200 118.854,325.380 119.664,325.600 119.800 C 325.820 119.936,326.000 120.847,326.000 121.824 C 326.000 122.801,326.180 123.600,326.400 123.600 C 326.620 123.600,326.800 124.322,326.800 125.205 C 326.800 126.088,326.974 127.123,327.187 127.505 C 327.696 128.419,328.800 133.006,328.800 134.209 C 328.800 134.728,328.980 135.264,329.200 135.400 C 329.420 135.536,329.600 136.346,329.600 137.200 C 329.600 138.054,329.780 138.864,330.000 139.000 C 330.220 139.136,330.400 139.921,330.400 140.744 C 330.400 141.567,330.562 142.411,330.759 142.620 C 330.956 142.829,331.210 143.720,331.323 144.600 C 331.435 145.480,331.834 147.280,332.208 148.600 C 332.582 149.920,332.977 151.720,333.085 152.600 C 333.193 153.480,333.444 154.371,333.641 154.580 C 333.838 154.789,334.000 155.633,334.000 156.456 C 334.000 157.279,334.180 158.064,334.400 158.200 C 334.620 158.336,334.800 159.247,334.800 160.224 C 334.800 161.201,334.980 162.000,335.200 162.000 C 335.420 162.000,335.600 162.561,335.600 163.246 C 335.600 163.932,335.889 165.417,336.243 166.546 C 337.437 170.361,337.600 171.054,337.600 172.305 C 337.600 172.991,337.780 173.664,338.000 173.800 C 338.220 173.936,338.400 174.746,338.400 175.600 C 338.400 176.454,338.580 177.264,338.800 177.400 C 339.020 177.536,339.200 178.447,339.200 179.424 C 339.200 180.401,339.350 181.200,339.533 181.200 C 339.716 181.200,340.083 182.235,340.348 183.500 C 340.613 184.765,341.014 186.610,341.240 187.600 C 341.467 188.590,341.749 190.120,341.867 191.000 C 341.985 191.880,342.244 192.771,342.441 192.980 C 342.638 193.189,342.800 194.008,342.800 194.800 C 342.800 195.592,342.962 196.411,343.159 196.620 C 343.356 196.829,343.610 197.720,343.723 198.600 C 343.835 199.480,344.229 201.280,344.597 202.600 C 345.430 205.583,345.987 208.120,346.267 210.200 C 346.385 211.080,346.644 211.971,346.841 212.180 C 347.038 212.389,347.200 213.233,347.200 214.056 C 347.200 214.879,347.380 215.664,347.600 215.800 C 347.820 215.936,348.000 216.678,348.000 217.450 C 348.000 218.221,348.213 219.246,348.474 219.726 C 348.734 220.207,349.094 221.365,349.274 222.300 C 349.453 223.235,349.792 224.855,350.026 225.900 C 350.260 226.945,350.549 228.520,350.667 229.400 C 350.785 230.280,351.044 231.171,351.241 231.380 C 351.438 231.589,351.600 232.534,351.600 233.480 C 351.600 234.426,351.780 235.200,352.000 235.200 C 352.220 235.200,352.400 235.809,352.400 236.554 C 352.400 237.299,352.669 238.424,352.998 239.054 C 353.326 239.684,353.596 240.774,353.598 241.476 C 353.599 242.178,353.780 242.864,354.000 243.000 C 354.220 243.136,354.400 244.036,354.400 245.000 C 354.400 245.964,354.580 246.864,354.800 247.000 C 355.020 247.136,355.200 247.946,355.200 248.800 C 355.200 249.654,355.380 250.464,355.600 250.600 C 355.820 250.736,356.000 251.521,356.000 252.344 C 356.000 253.167,356.166 254.011,356.369 254.220 C 356.740 254.602,357.482 257.699,357.874 260.503 C 357.990 261.329,358.245 262.105,358.442 262.226 C 358.639 262.348,358.800 263.247,358.800 264.224 C 358.800 265.201,358.980 266.000,359.200 266.000 C 359.420 266.000,359.600 266.799,359.600 267.776 C 359.600 268.753,359.780 269.664,360.000 269.800 C 360.220 269.936,360.400 270.746,360.400 271.600 C 360.400 272.454,360.575 273.261,360.788 273.393 C 361.002 273.525,361.296 274.530,361.441 275.625 C 361.587 276.721,361.862 277.715,362.053 277.833 C 362.244 277.951,362.400 278.721,362.400 279.544 C 362.400 280.367,362.562 281.211,362.759 281.420 C 362.956 281.629,363.231 282.610,363.369 283.600 C 363.986 288.037,364.103 288.622,364.441 288.980 C 364.638 289.189,364.800 289.842,364.800 290.431 C 364.800 291.020,365.070 292.149,365.400 292.938 C 365.730 293.728,366.000 294.909,366.000 295.564 C 366.000 296.218,366.180 296.864,366.400 297.000 C 366.620 297.136,366.800 297.946,366.800 298.800 C 366.800 299.654,366.980 300.464,367.200 300.600 C 367.420 300.736,367.600 301.647,367.600 302.624 C 367.600 303.601,367.780 304.400,368.000 304.400 C 368.220 304.400,368.400 305.122,368.400 306.005 C 368.400 306.888,368.574 307.923,368.787 308.305 C 369.296 309.219,370.400 313.806,370.400 315.009 C 370.400 315.528,370.580 316.064,370.800 316.200 C 371.020 316.336,371.200 317.146,371.200 318.000 C 371.200 318.854,371.380 319.664,371.600 319.800 C 371.820 319.936,372.000 320.847,372.000 321.824 C 372.000 322.801,372.180 323.600,372.400 323.600 C 372.620 323.600,372.800 324.374,372.800 325.320 C 372.800 326.266,372.961 327.211,373.158 327.420 C 373.568 327.855,374.377 331.040,374.678 333.400 C 374.790 334.280,375.044 335.171,375.241 335.380 C 375.438 335.589,375.600 336.433,375.600 337.256 C 375.600 338.079,375.780 338.864,376.000 339.000 C 376.220 339.136,376.400 340.036,376.400 341.000 C 376.400 341.964,376.580 342.864,376.800 343.000 C 377.020 343.136,377.200 343.707,377.200 344.270 C 377.200 344.832,377.489 346.217,377.843 347.346 C 379.037 351.161,379.200 351.854,379.200 353.105 C 379.200 353.791,379.380 354.464,379.600 354.600 C 379.820 354.736,380.000 355.546,380.000 356.400 C 380.000 357.254,380.180 358.064,380.400 358.200 C 380.620 358.336,380.800 359.247,380.800 360.224 C 380.800 361.201,380.939 362.000,381.108 362.000 C 381.367 362.000,382.252 365.503,382.523 367.600 C 382.591 368.132,362.046 368.211,200.056 368.300 L 17.512 368.401 17.775 366.900 C 17.919 366.075,18.137 364.635,18.259 363.700 C 18.381 362.765,18.642 362.000,18.840 362.000 C 19.038 362.000,19.200 361.201,19.200 360.224 C 19.200 359.247,19.380 358.336,19.600 358.200 C 19.820 358.064,20.000 357.279,20.000 356.456 C 20.000 355.633,20.162 354.789,20.359 354.580 C 20.556 354.371,20.811 353.480,20.925 352.600 C 21.270 349.933,21.984 347.056,22.404 346.636 C 22.622 346.418,22.800 345.567,22.800 344.744 C 22.800 343.921,22.980 343.136,23.200 343.000 C 23.420 342.864,23.600 341.964,23.600 341.000 C 23.600 340.036,23.780 339.136,24.000 339.000 C 24.220 338.864,24.400 338.079,24.400 337.256 C 24.400 336.433,24.562 335.589,24.759 335.380 C 24.956 335.171,25.210 334.280,25.322 333.400 C 25.562 331.521,26.345 328.493,26.847 327.505 C 27.041 327.123,27.200 326.189,27.200 325.429 C 27.200 324.669,27.380 323.936,27.600 323.800 C 27.820 323.664,28.000 322.764,28.000 321.800 C 28.000 320.836,28.180 319.936,28.400 319.800 C 28.620 319.664,28.800 318.854,28.800 318.000 C 28.800 317.146,28.980 316.336,29.200 316.200 C 29.420 316.064,29.600 315.418,29.600 314.764 C 29.600 314.109,29.870 312.928,30.200 312.138 C 30.530 311.349,30.800 310.195,30.800 309.575 C 30.800 308.955,30.980 308.336,31.200 308.200 C 31.420 308.064,31.600 307.254,31.600 306.400 C 31.600 305.546,31.780 304.736,32.000 304.600 C 32.220 304.464,32.400 303.564,32.400 302.600 C 32.400 301.636,32.561 300.748,32.758 300.626 C 32.955 300.505,33.210 299.729,33.326 298.903 C 33.718 296.099,34.460 293.002,34.831 292.620 C 35.034 292.411,35.200 291.592,35.200 290.800 C 35.200 290.008,35.362 289.189,35.559 288.980 C 35.756 288.771,36.015 287.880,36.133 287.000 C 36.360 285.309,36.548 284.427,38.493 275.927 C 38.779 274.677,39.145 273.522,39.306 273.360 C 39.468 273.199,39.600 272.387,39.600 271.557 C 39.600 270.727,39.780 269.936,40.000 269.800 C 40.220 269.664,40.400 268.854,40.400 268.000 C 40.400 267.146,40.580 266.336,40.800 266.200 C 41.020 266.064,41.200 265.342,41.200 264.595 C 41.200 263.849,41.362 262.824,41.560 262.319 C 41.758 261.813,42.228 259.960,42.605 258.200 C 42.982 256.440,43.450 254.687,43.645 254.305 C 43.840 253.923,44.000 252.989,44.000 252.229 C 44.000 251.469,44.180 250.736,44.400 250.600 C 44.620 250.464,44.800 249.679,44.800 248.856 C 44.800 248.033,44.962 247.189,45.159 246.980 C 45.356 246.771,45.614 245.880,45.731 245.000 C 46.154 241.813,46.887 238.800,47.240 238.800 C 47.438 238.800,47.600 237.990,47.600 237.000 C 47.600 236.010,47.780 235.200,48.000 235.200 C 48.220 235.200,48.400 234.426,48.400 233.480 C 48.400 232.534,48.562 231.589,48.759 231.380 C 48.956 231.171,49.215 230.280,49.333 229.400 C 49.451 228.520,49.730 226.990,49.953 226.000 C 50.175 225.010,50.561 223.210,50.809 222.000 C 51.058 220.790,51.428 219.629,51.631 219.420 C 51.834 219.211,52.000 218.367,52.000 217.544 C 52.000 216.721,52.180 215.936,52.400 215.800 C 52.620 215.664,52.800 214.879,52.800 214.056 C 52.800 213.233,52.962 212.389,53.159 212.180 C 53.356 211.971,53.615 211.080,53.733 210.200 C 54.141 207.164,55.652 201.014,56.100 200.566 C 56.265 200.402,56.400 199.497,56.400 198.557 C 56.400 197.617,56.580 196.736,56.800 196.600 C 57.020 196.464,57.200 195.654,57.200 194.800 C 57.200 193.946,57.380 193.136,57.600 193.000 C 57.820 192.864,58.000 192.191,58.000 191.505 C 58.000 190.254,58.163 189.561,59.357 185.746 C 59.711 184.617,60.000 183.132,60.000 182.446 C 60.000 181.761,60.180 181.200,60.400 181.200 C 60.620 181.200,60.800 180.401,60.800 179.424 C 60.800 178.447,60.980 177.536,61.200 177.400 C 61.420 177.264,61.600 176.479,61.600 175.656 C 61.600 174.833,61.762 173.989,61.959 173.780 C 62.156 173.571,62.411 172.680,62.525 171.800 C 62.870 169.133,63.584 166.256,64.004 165.836 C 64.222 165.618,64.400 164.677,64.400 163.744 C 64.400 162.811,64.580 161.936,64.800 161.800 C 65.020 161.664,65.200 160.854,65.200 160.000 C 65.200 159.146,65.380 158.336,65.600 158.200 C 65.820 158.064,66.000 157.279,66.000 156.456 C 66.000 155.633,66.162 154.789,66.359 154.580 C 66.556 154.371,66.810 153.480,66.922 152.600 C 67.162 150.721,67.945 147.693,68.447 146.705 C 68.641 146.323,68.800 145.299,68.800 144.429 C 68.800 143.559,68.980 142.736,69.200 142.600 C 69.420 142.464,69.600 141.654,69.600 140.800 C 69.600 139.946,69.780 139.136,70.000 139.000 C 70.220 138.864,70.400 138.054,70.400 137.200 C 70.400 136.346,70.561 135.548,70.758 135.426 C 70.955 135.305,71.196 134.529,71.295 133.703 C 71.514 131.860,72.370 128.446,72.847 127.505 C 73.041 127.123,73.200 126.088,73.200 125.205 C 73.200 124.322,73.380 123.600,73.600 123.600 C 73.820 123.600,74.000 122.826,74.000 121.880 C 74.000 120.934,74.162 119.989,74.359 119.780 C 74.556 119.571,74.811 118.680,74.925 117.800 C 75.275 115.094,75.975 112.313,76.448 111.743 C 77.163 110.880,322.884 110.938,323.600 111.800 M125.200 233.600 L 125.200 287.200 133.400 287.200 L 141.600 287.200 141.600 273.826 L 141.600 260.451 144.948 256.972 L 148.296 253.494 149.478 254.647 C 150.128 255.281,151.235 256.610,151.938 257.600 C 152.642 258.590,153.765 260.120,154.433 261.000 C 155.102 261.880,155.953 263.020,156.324 263.532 C 156.991 264.453,157.531 265.131,158.900 266.771 C 159.285 267.232,159.600 267.753,159.600 267.929 C 159.600 268.105,159.920 268.598,160.312 269.025 C 160.704 269.451,161.558 270.520,162.210 271.400 C 162.862 272.280,163.491 273.090,163.607 273.200 C 163.723 273.310,164.663 274.570,165.696 276.000 C 166.729 277.430,167.760 278.817,167.987 279.083 C 168.214 279.349,168.400 279.662,168.400 279.780 C 168.400 279.898,168.749 280.400,169.176 280.897 C 169.602 281.394,170.326 282.236,170.783 282.770 C 171.240 283.303,172.106 284.518,172.707 285.469 L 173.800 287.199 183.700 287.199 C 192.290 287.200,194.868 286.966,193.262 286.333 C 193.076 286.260,192.223 285.210,191.367 284.000 C 190.510 282.790,189.479 281.440,189.074 281.000 C 188.669 280.560,188.043 279.705,187.683 279.100 C 187.322 278.495,186.886 278.000,186.714 278.000 C 186.541 278.000,186.400 277.764,186.400 277.475 C 186.400 277.187,186.080 276.602,185.688 276.175 C 185.296 275.749,184.441 274.684,183.788 273.808 C 183.135 272.932,182.385 271.942,182.122 271.608 C 181.859 271.274,180.923 270.010,180.041 268.800 C 179.159 267.590,178.249 266.383,178.019 266.117 C 177.789 265.851,177.600 265.446,177.600 265.217 C 177.600 264.988,177.465 264.799,177.300 264.797 C 177.135 264.796,176.575 264.171,176.056 263.408 C 175.537 262.646,174.682 261.522,174.156 260.911 C 173.631 260.300,173.201 259.655,173.200 259.478 C 173.200 259.301,172.661 258.581,172.002 257.878 C 171.343 257.175,170.803 256.478,170.802 256.329 C 170.801 256.179,170.569 255.819,170.287 255.529 C 170.005 255.238,169.340 254.370,168.809 253.600 C 168.278 252.830,167.249 251.493,166.522 250.628 C 165.795 249.763,165.200 248.885,165.200 248.675 C 165.200 248.465,164.872 248.003,164.472 247.647 C 164.071 247.291,163.402 246.415,162.985 245.700 C 162.569 244.985,162.086 244.400,161.914 244.400 C 161.741 244.400,161.600 243.945,161.600 243.389 C 161.600 242.351,162.358 241.376,166.600 236.963 C 167.920 235.589,170.350 232.983,172.000 231.171 C 174.630 228.282,176.907 225.834,182.400 219.992 C 183.170 219.173,184.993 217.175,186.452 215.551 C 187.911 213.928,189.667 212.015,190.355 211.300 L 191.607 210.000 182.301 210.000 L 172.994 210.000 170.397 212.834 C 168.969 214.393,167.294 216.238,166.676 216.934 C 166.058 217.630,164.313 219.550,162.800 221.200 C 159.431 224.873,158.508 225.896,155.200 229.627 C 153.770 231.239,152.060 233.114,151.400 233.792 C 150.740 234.470,149.120 236.274,147.800 237.801 C 144.245 241.913,144.067 242.062,142.876 241.924 L 141.800 241.800 141.698 210.900 L 141.595 180.000 133.398 180.000 L 125.200 180.000 125.200 233.600 M228.300 209.094 C 226.595 209.171,225.200 209.406,225.200 209.617 C 225.200 209.828,224.694 210.000,224.075 210.000 C 223.456 210.000,222.017 210.450,220.877 211.000 C 219.737 211.550,218.623 212.000,218.402 212.000 C 218.181 212.000,218.000 212.136,218.000 212.302 C 218.000 212.469,217.434 212.855,216.742 213.162 C 213.766 214.479,205.600 224.013,205.600 226.170 C 205.600 226.517,205.420 226.800,205.200 226.800 C 204.980 226.800,204.800 227.162,204.800 227.605 C 204.800 228.048,204.635 228.723,204.433 229.105 C 204.232 229.487,203.771 230.880,203.410 232.200 C 203.049 233.520,202.584 234.913,202.377 235.295 C 202.169 235.677,202.000 236.971,202.000 238.171 C 202.000 239.371,201.820 240.464,201.600 240.600 C 201.360 240.749,201.200 243.463,201.200 247.400 C 201.200 251.337,201.360 254.051,201.600 254.200 C 201.820 254.336,202.000 255.357,202.000 256.470 C 202.000 258.308,202.781 261.525,203.656 263.295 C 203.845 263.677,204.000 264.341,204.000 264.771 C 204.000 265.201,204.180 265.664,204.400 265.800 C 204.620 265.936,204.800 266.487,204.800 267.024 C 204.800 267.561,204.980 268.000,205.200 268.000 C 205.420 268.000,205.600 268.267,205.600 268.592 C 205.600 268.918,206.247 270.195,207.037 271.431 C 210.346 276.603,214.147 280.231,218.400 282.274 C 222.760 284.369,223.878 284.800,224.960 284.800 C 225.532 284.800,226.000 284.980,226.000 285.200 C 226.000 285.450,228.392 285.600,232.376 285.600 C 236.196 285.600,238.852 285.440,239.000 285.200 C 239.136 284.980,239.680 284.800,240.210 284.800 C 241.071 284.800,242.923 284.148,244.895 283.151 C 245.277 282.958,245.862 282.800,246.195 282.800 C 246.528 282.800,246.800 282.620,246.800 282.400 C 246.800 282.180,247.025 282.000,247.300 282.000 C 247.768 281.999,248.800 281.215,251.200 279.037 C 252.695 277.680,254.160 275.930,255.024 274.467 C 255.692 273.337,255.981 273.179,257.197 273.282 L 258.600 273.400 258.591 281.200 C 258.578 292.513,257.838 295.427,254.023 299.206 C 245.845 307.305,226.045 306.028,221.357 297.100 L 220.779 296.000 212.790 296.000 L 204.800 296.000 204.800 297.576 C 204.800 298.443,204.980 299.264,205.200 299.400 C 205.420 299.536,205.600 300.087,205.600 300.624 C 205.600 301.161,205.780 301.600,206.000 301.600 C 206.220 301.600,206.400 301.792,206.400 302.027 C 206.400 302.261,206.850 303.043,207.400 303.764 C 207.950 304.486,208.400 305.213,208.400 305.381 C 208.400 305.803,211.954 309.082,213.300 309.902 C 213.905 310.271,214.400 310.714,214.400 310.886 C 214.400 311.059,214.760 311.200,215.200 311.200 C 215.640 311.200,216.000 311.380,216.000 311.600 C 216.000 311.820,216.191 312.000,216.425 312.000 C 216.798 312.000,220.111 313.429,222.095 314.444 C 222.477 314.640,223.206 314.800,223.715 314.800 C 224.224 314.800,224.811 314.963,225.020 315.163 C 225.951 316.053,246.122 316.838,246.944 316.016 C 247.173 315.787,248.213 315.600,249.256 315.600 C 250.299 315.600,251.264 315.420,251.400 315.200 C 251.536 314.980,252.267 314.800,253.024 314.800 C 253.781 314.800,254.400 314.620,254.400 314.400 C 254.400 314.180,254.733 314.000,255.140 314.000 C 255.548 314.000,256.727 313.550,257.762 313.000 C 258.796 312.450,259.903 312.000,260.221 312.000 C 260.540 312.000,260.800 311.864,260.800 311.698 C 260.800 311.531,261.385 311.137,262.100 310.822 C 262.815 310.507,263.601 310.058,263.846 309.825 C 264.092 309.591,265.142 308.680,266.180 307.800 C 267.217 306.920,268.625 305.390,269.307 304.400 C 269.989 303.410,270.651 302.510,270.777 302.400 C 270.904 302.290,271.366 301.480,271.804 300.600 C 272.242 299.720,272.735 298.940,272.900 298.867 C 273.065 298.793,273.200 298.244,273.200 297.647 C 273.200 297.049,273.362 296.389,273.559 296.180 C 274.396 295.294,274.521 290.182,274.661 251.100 L 274.807 210.000 266.804 210.000 L 258.800 210.000 258.800 216.200 L 258.800 222.400 257.600 222.400 C 256.940 222.400,256.400 222.199,256.400 221.954 C 256.400 220.815,252.759 216.492,250.200 214.592 C 249.320 213.939,248.510 213.311,248.400 213.196 C 247.811 212.581,242.189 210.000,241.439 210.000 C 240.956 210.000,240.389 209.843,240.180 209.650 C 239.725 209.231,232.636 208.900,228.300 209.094 M243.600 223.200 C 243.600 223.420,244.129 223.600,244.776 223.600 C 245.423 223.600,246.064 223.780,246.200 224.000 C 246.336 224.220,246.797 224.400,247.224 224.400 C 247.651 224.400,248.000 224.580,248.000 224.800 C 248.000 225.020,248.253 225.200,248.563 225.200 C 248.873 225.200,250.313 226.387,251.763 227.837 C 253.213 229.287,254.400 230.727,254.400 231.037 C 254.400 231.347,254.536 231.600,254.702 231.600 C 254.869 231.600,255.244 232.185,255.536 232.900 C 255.828 233.615,256.228 234.560,256.425 235.000 C 257.280 236.909,257.742 238.328,258.117 240.200 C 258.648 242.852,258.629 252.479,258.088 255.000 C 257.425 258.090,256.667 260.400,256.317 260.400 C 256.143 260.400,256.000 260.665,256.000 260.988 C 256.000 261.632,254.641 264.203,253.879 265.001 C 253.616 265.276,253.130 265.905,252.800 266.397 C 252.098 267.443,248.728 269.974,247.000 270.753 C 246.340 271.050,245.487 271.452,245.105 271.647 C 244.723 271.841,243.699 272.000,242.829 272.000 C 241.959 272.000,241.136 272.180,241.000 272.400 C 240.864 272.620,239.604 272.800,238.200 272.800 C 236.796 272.800,235.536 272.620,235.400 272.400 C 235.264 272.180,234.441 272.000,233.571 272.000 C 232.701 272.000,231.677 271.840,231.295 271.644 C 230.913 271.449,229.899 270.954,229.042 270.544 C 227.497 269.806,223.459 266.136,222.501 264.600 C 221.364 262.775,220.000 259.803,220.000 259.149 C 220.000 258.763,219.820 258.336,219.600 258.200 C 219.380 258.064,219.200 257.254,219.200 256.400 C 219.200 255.546,219.020 254.736,218.800 254.600 C 218.559 254.451,218.400 251.670,218.400 247.600 C 218.400 243.530,218.559 240.749,218.800 240.600 C 219.020 240.464,219.200 239.654,219.200 238.800 C 219.200 237.946,219.380 237.136,219.600 237.000 C 219.820 236.864,220.000 236.223,220.000 235.576 C 220.000 234.929,220.180 234.400,220.400 234.400 C 220.620 234.400,220.800 234.145,220.800 233.832 C 220.800 233.119,222.098 230.806,222.500 230.803 C 222.665 230.801,222.800 230.607,222.800 230.371 C 222.800 230.136,223.066 229.677,223.391 229.352 C 223.716 229.027,224.211 228.446,224.491 228.062 C 225.618 226.516,230.256 223.600,231.589 223.600 C 232.009 223.600,232.464 223.420,232.600 223.200 C 232.745 222.965,235.071 222.800,238.224 222.800 C 241.541 222.800,243.600 222.953,243.600 223.200 " stroke="none" fill="#000000" fill-rule="evenodd"></path><path id="path2" d="M198.000 16.822 C 197.010 16.997,194.906 17.154,193.324 17.170 C 191.742 17.187,190.336 17.380,190.200 17.600 C 190.064 17.820,189.063 18.000,187.976 18.000 C 186.889 18.000,186.000 18.180,186.000 18.400 C 186.000 18.620,185.471 18.800,184.824 18.800 C 184.177 18.800,183.546 18.963,183.423 19.163 C 183.299 19.363,182.164 19.841,180.899 20.226 C 179.635 20.611,178.429 21.077,178.220 21.263 C 178.011 21.448,177.516 21.600,177.120 21.600 C 176.724 21.600,176.400 21.780,176.400 22.000 C 176.400 22.220,176.040 22.400,175.600 22.400 C 175.160 22.400,174.800 22.580,174.800 22.800 C 174.800 23.020,174.607 23.200,174.370 23.200 C 174.134 23.200,172.688 24.010,171.158 25.000 C 169.627 25.990,168.201 26.800,167.988 26.800 C 167.774 26.800,167.599 26.935,167.597 27.100 C 167.596 27.265,166.923 27.850,166.103 28.400 C 164.351 29.575,158.525 35.350,156.921 37.503 C 156.307 38.326,155.693 39.090,155.557 39.200 C 154.309 40.209,148.000 52.029,148.000 53.358 C 148.000 53.685,147.820 54.064,147.600 54.200 C 147.380 54.336,147.200 54.966,147.200 55.600 C 147.200 56.234,147.020 56.864,146.800 57.000 C 146.580 57.136,146.400 57.831,146.400 58.544 C 146.400 59.257,146.240 60.011,146.043 60.220 C 145.055 61.274,144.700 76.099,145.547 81.000 C 145.813 82.540,146.132 84.476,146.257 85.303 C 146.382 86.129,146.645 86.905,146.842 87.026 C 147.039 87.148,147.200 87.689,147.200 88.229 C 147.200 88.769,147.360 89.523,147.556 89.905 C 147.751 90.287,148.182 91.230,148.514 92.000 C 148.845 92.770,149.339 93.883,149.611 94.473 C 150.761 96.964,153.621 96.800,109.007 96.800 C 77.246 96.800,68.198 96.909,67.514 97.300 C 65.107 98.676,63.200 101.544,63.200 103.789 C 63.200 104.539,63.020 105.264,62.800 105.400 C 62.580 105.536,62.400 106.346,62.400 107.200 C 62.400 108.054,62.244 108.849,62.053 108.967 C 61.862 109.085,61.587 110.079,61.441 111.175 C 61.296 112.270,61.002 113.275,60.788 113.407 C 60.575 113.539,60.400 114.346,60.400 115.200 C 60.400 116.054,60.220 116.864,60.000 117.000 C 59.780 117.136,59.600 118.036,59.600 119.000 C 59.600 119.964,59.420 120.864,59.200 121.000 C 58.980 121.136,58.800 121.946,58.800 122.800 C 58.800 123.654,58.639 124.452,58.442 124.574 C 58.245 124.695,57.992 125.471,57.879 126.297 C 57.565 128.598,56.811 131.721,56.384 132.495 C 56.173 132.877,56.000 133.811,56.000 134.571 C 56.000 135.331,55.820 136.064,55.600 136.200 C 55.380 136.336,55.200 137.146,55.200 138.000 C 55.200 138.854,55.020 139.664,54.800 139.800 C 54.580 139.936,54.400 140.836,54.400 141.800 C 54.400 142.764,54.220 143.664,54.000 143.800 C 53.780 143.936,53.600 144.582,53.600 145.236 C 53.600 145.891,53.330 147.072,53.000 147.862 C 52.670 148.651,52.400 149.816,52.400 150.449 C 52.400 151.082,52.220 151.600,52.000 151.600 C 51.780 151.600,51.600 152.399,51.600 153.376 C 51.600 154.353,51.420 155.264,51.200 155.400 C 50.980 155.536,50.800 156.436,50.800 157.400 C 50.800 158.364,50.639 159.252,50.442 159.374 C 50.245 159.495,49.988 160.271,49.870 161.097 C 49.397 164.416,48.805 166.955,48.414 167.346 C 48.186 167.574,48.000 168.433,48.000 169.256 C 48.000 170.079,47.820 170.864,47.600 171.000 C 47.380 171.136,47.200 171.921,47.200 172.744 C 47.200 173.567,47.038 174.411,46.841 174.620 C 46.644 174.829,46.385 175.720,46.267 176.600 C 45.987 178.680,45.430 181.217,44.597 184.200 C 44.229 185.520,43.835 187.320,43.723 188.200 C 43.610 189.080,43.356 189.971,43.159 190.180 C 42.962 190.389,42.800 191.208,42.800 192.000 C 42.800 192.792,42.638 193.611,42.441 193.820 C 42.244 194.029,41.985 194.920,41.867 195.800 C 41.749 196.680,41.467 198.210,41.240 199.200 C 41.014 200.190,40.613 202.035,40.348 203.300 C 40.083 204.565,39.716 205.600,39.533 205.600 C 39.350 205.600,39.200 206.399,39.200 207.376 C 39.200 208.353,39.020 209.264,38.800 209.400 C 38.580 209.536,38.400 210.321,38.400 211.144 C 38.400 211.967,38.238 212.811,38.041 213.020 C 37.844 213.229,37.585 214.120,37.467 215.000 C 37.075 217.916,36.553 220.189,36.074 221.074 C 35.813 221.554,35.600 222.589,35.600 223.374 C 35.600 224.158,35.420 224.800,35.200 224.800 C 34.980 224.800,34.800 225.599,34.800 226.576 C 34.800 227.553,34.620 228.464,34.400 228.600 C 34.180 228.736,34.000 229.521,34.000 230.344 C 34.000 231.167,33.838 232.011,33.641 232.220 C 33.444 232.429,33.193 233.320,33.085 234.200 C 32.977 235.080,32.582 236.880,32.208 238.200 C 31.834 239.520,31.435 241.320,31.323 242.200 C 31.210 243.080,30.956 243.971,30.759 244.180 C 30.562 244.389,30.400 245.233,30.400 246.056 C 30.400 246.879,30.220 247.664,30.000 247.800 C 29.780 247.936,29.600 248.721,29.600 249.544 C 29.600 250.367,29.438 251.211,29.241 251.420 C 29.044 251.629,28.790 252.520,28.678 253.400 C 28.377 255.760,27.568 258.945,27.158 259.380 C 26.961 259.589,26.800 260.534,26.800 261.480 C 26.800 262.426,26.620 263.200,26.400 263.200 C 26.180 263.200,26.000 263.999,26.000 264.976 C 26.000 265.953,25.820 266.864,25.600 267.000 C 25.380 267.136,25.200 267.809,25.200 268.495 C 25.200 269.746,25.037 270.439,23.843 274.254 C 23.489 275.383,23.200 276.768,23.200 277.330 C 23.200 277.893,23.020 278.464,22.800 278.600 C 22.580 278.736,22.400 279.647,22.400 280.624 C 22.400 281.601,22.220 282.400,22.000 282.400 C 21.780 282.400,21.600 283.199,21.600 284.176 C 21.600 285.153,21.420 286.064,21.200 286.200 C 20.980 286.336,20.800 287.009,20.800 287.695 C 20.800 288.946,20.637 289.639,19.443 293.454 C 19.089 294.583,18.800 295.968,18.800 296.530 C 18.800 297.093,18.620 297.664,18.400 297.800 C 18.180 297.936,18.000 298.836,18.000 299.800 C 18.000 300.764,17.820 301.664,17.600 301.800 C 17.380 301.936,17.200 302.721,17.200 303.544 C 17.200 304.367,17.038 305.211,16.841 305.420 C 16.644 305.629,16.390 306.520,16.278 307.400 C 15.977 309.760,15.168 312.945,14.758 313.380 C 14.561 313.589,14.400 314.433,14.400 315.256 C 14.400 316.079,14.220 316.864,14.000 317.000 C 13.780 317.136,13.600 318.036,13.600 319.000 C 13.600 319.964,13.420 320.864,13.200 321.000 C 12.980 321.136,12.800 321.946,12.800 322.800 C 12.800 323.654,12.620 324.464,12.400 324.600 C 12.180 324.736,11.990 325.332,11.977 325.924 C 11.950 327.199,10.670 332.264,10.275 332.659 C 10.124 332.810,10.000 333.613,10.000 334.443 C 10.000 335.273,9.820 336.064,9.600 336.200 C 9.380 336.336,9.200 337.236,9.200 338.200 C 9.200 339.164,9.039 340.052,8.842 340.174 C 8.645 340.295,8.388 341.071,8.270 341.897 C 7.797 345.216,7.205 347.755,6.814 348.146 C 6.586 348.374,6.400 349.233,6.400 350.056 C 6.400 350.879,6.220 351.664,6.000 351.800 C 5.780 351.936,5.600 352.721,5.600 353.544 C 5.600 354.367,5.438 355.211,5.241 355.420 C 5.044 355.629,4.785 356.520,4.667 357.400 C 4.549 358.280,4.270 359.810,4.047 360.800 C 3.825 361.790,3.439 363.590,3.191 364.800 C 2.942 366.010,2.572 367.171,2.369 367.380 C 2.166 367.589,2.000 368.433,2.000 369.256 C 2.000 370.079,1.820 370.864,1.600 371.000 C 1.380 371.136,1.200 372.034,1.200 372.995 C 1.200 374.071,0.952 374.991,0.554 375.389 C -0.041 375.984,-0.041 376.092,0.554 376.749 C 0.909 377.142,1.200 377.859,1.200 378.342 C 1.200 380.011,4.299 382.545,7.024 383.103 C 10.576 383.831,389.424 383.831,392.976 383.103 C 395.753 382.534,398.800 380.014,398.800 378.287 C 398.800 377.773,399.048 377.014,399.351 376.599 C 399.819 375.959,399.819 375.762,399.351 375.294 C 399.048 374.991,398.800 373.956,398.800 372.995 C 398.800 372.034,398.620 371.136,398.400 371.000 C 398.180 370.864,398.000 370.073,398.000 369.243 C 398.000 368.413,397.868 367.601,397.706 367.440 C 397.545 367.278,397.179 366.123,396.893 364.873 C 396.607 363.623,396.187 361.790,395.960 360.800 C 395.734 359.810,395.451 358.280,395.333 357.400 C 395.215 356.520,394.956 355.629,394.759 355.420 C 394.562 355.211,394.400 354.266,394.400 353.320 C 394.400 352.374,394.220 351.600,394.000 351.600 C 393.780 351.600,393.600 350.790,393.600 349.800 C 393.600 348.810,393.438 348.000,393.240 348.000 C 392.887 348.000,392.154 344.987,391.731 341.800 C 391.614 340.920,391.356 340.029,391.159 339.820 C 390.962 339.611,390.800 338.767,390.800 337.944 C 390.800 337.121,390.620 336.336,390.400 336.200 C 390.180 336.064,390.000 335.254,390.000 334.400 C 390.000 333.546,389.820 332.736,389.600 332.600 C 389.380 332.464,389.200 331.835,389.200 331.202 C 389.200 330.570,389.007 329.545,388.770 328.926 C 388.534 328.307,388.164 326.990,387.947 326.000 C 387.731 325.010,387.372 323.390,387.151 322.400 C 386.929 321.410,386.651 319.880,386.533 319.000 C 386.415 318.120,386.156 317.229,385.959 317.020 C 385.762 316.811,385.600 316.044,385.600 315.315 C 385.600 314.586,385.441 313.677,385.247 313.295 C 384.770 312.354,383.914 308.940,383.695 307.097 C 383.596 306.271,383.355 305.495,383.158 305.374 C 382.961 305.252,382.800 304.454,382.800 303.600 C 382.800 302.746,382.620 301.936,382.400 301.800 C 382.180 301.664,382.000 300.764,382.000 299.800 C 382.000 298.836,381.820 297.936,381.600 297.800 C 381.380 297.664,381.200 296.931,381.200 296.171 C 381.200 295.411,381.026 294.477,380.813 294.095 C 380.304 293.181,379.200 288.594,379.200 287.391 C 379.200 286.872,379.020 286.336,378.800 286.200 C 378.580 286.064,378.400 285.153,378.400 284.176 C 378.400 283.199,378.220 282.400,378.000 282.400 C 377.780 282.400,377.600 281.601,377.600 280.624 C 377.600 279.647,377.420 278.736,377.200 278.600 C 376.980 278.464,376.800 277.679,376.800 276.856 C 376.800 276.033,376.614 275.174,376.386 274.946 C 375.995 274.555,375.403 272.016,374.930 268.697 C 374.812 267.871,374.555 267.095,374.358 266.974 C 374.161 266.852,374.000 265.953,374.000 264.976 C 374.000 263.999,373.820 263.200,373.600 263.200 C 373.380 263.200,373.200 262.401,373.200 261.424 C 373.200 260.447,373.020 259.536,372.800 259.400 C 372.580 259.264,372.400 258.645,372.400 258.025 C 372.400 257.405,372.130 256.251,371.800 255.462 C 371.470 254.672,371.200 253.491,371.200 252.836 C 371.200 252.182,371.020 251.536,370.800 251.400 C 370.580 251.264,370.400 250.454,370.400 249.600 C 370.400 248.746,370.220 247.936,370.000 247.800 C 369.780 247.664,369.600 246.854,369.600 246.000 C 369.600 245.146,369.420 244.336,369.200 244.200 C 368.980 244.064,368.800 243.241,368.800 242.371 C 368.800 241.501,368.641 240.477,368.447 240.095 C 367.945 239.107,367.162 236.079,366.922 234.200 C 366.810 233.320,366.556 232.429,366.359 232.220 C 366.162 232.011,366.000 231.167,366.000 230.344 C 366.000 229.521,365.820 228.736,365.600 228.600 C 365.380 228.464,365.200 227.553,365.200 226.576 C 365.200 225.599,365.020 224.800,364.800 224.800 C 364.580 224.800,364.400 224.026,364.400 223.080 C 364.400 222.134,364.222 221.182,364.004 220.964 C 363.584 220.544,362.870 217.667,362.525 215.000 C 362.411 214.120,362.156 213.229,361.959 213.020 C 361.762 212.811,361.600 211.967,361.600 211.144 C 361.600 210.321,361.420 209.536,361.200 209.400 C 360.980 209.264,360.800 208.353,360.800 207.376 C 360.800 206.399,360.620 205.600,360.400 205.600 C 360.180 205.600,360.000 204.992,360.000 204.249 C 360.000 203.506,359.730 202.251,359.400 201.462 C 359.070 200.672,358.800 199.491,358.800 198.836 C 358.800 198.182,358.620 197.536,358.400 197.400 C 358.180 197.264,358.000 196.454,358.000 195.600 C 358.000 194.746,357.820 193.936,357.600 193.800 C 357.380 193.664,357.200 192.854,357.200 192.000 C 357.200 191.146,357.020 190.336,356.800 190.200 C 356.580 190.064,356.400 189.183,356.400 188.243 C 356.400 187.303,356.265 186.398,356.100 186.234 C 355.652 185.786,354.141 179.636,353.733 176.600 C 353.615 175.720,353.356 174.829,353.159 174.620 C 352.962 174.411,352.800 173.567,352.800 172.744 C 352.800 171.921,352.620 171.136,352.400 171.000 C 352.180 170.864,352.000 170.079,352.000 169.256 C 352.000 168.433,351.834 167.589,351.631 167.380 C 351.428 167.171,351.058 166.010,350.809 164.800 C 350.561 163.590,350.175 161.790,349.953 160.800 C 349.730 159.810,349.451 158.280,349.333 157.400 C 349.215 156.520,348.956 155.629,348.759 155.420 C 348.562 155.211,348.400 154.266,348.400 153.320 C 348.400 152.374,348.220 151.600,348.000 151.600 C 347.780 151.600,347.600 150.790,347.600 149.800 C 347.600 148.810,347.438 148.000,347.240 148.000 C 346.887 148.000,346.154 144.987,345.731 141.800 C 345.614 140.920,345.356 140.029,345.159 139.820 C 344.962 139.611,344.800 138.767,344.800 137.944 C 344.800 137.121,344.620 136.336,344.400 136.200 C 344.180 136.064,344.000 135.254,344.000 134.400 C 344.000 133.546,343.820 132.736,343.600 132.600 C 343.380 132.464,343.200 131.835,343.200 131.202 C 343.200 130.570,342.995 129.545,342.745 128.926 C 342.495 128.307,342.135 127.035,341.945 126.100 C 341.755 125.165,341.408 123.545,341.174 122.500 C 340.940 121.455,340.651 119.880,340.533 119.000 C 340.415 118.120,340.156 117.229,339.959 117.020 C 339.762 116.811,339.600 115.986,339.600 115.187 C 339.600 114.387,339.468 113.601,339.306 113.440 C 339.145 113.278,338.779 112.123,338.493 110.873 C 337.486 106.472,337.162 104.988,336.948 103.800 C 336.464 101.103,334.704 98.529,332.505 97.300 C 331.806 96.909,322.743 96.800,290.993 96.800 C 246.062 96.800,249.244 97.002,250.556 94.236 C 250.910 93.490,251.200 92.681,251.200 92.440 C 251.200 92.198,251.380 92.000,251.600 92.000 C 251.820 92.000,252.000 91.561,252.000 91.024 C 252.000 90.487,252.180 89.936,252.400 89.800 C 252.620 89.664,252.800 89.034,252.800 88.400 C 252.800 87.766,252.961 87.148,253.158 87.026 C 253.355 86.905,253.618 86.129,253.743 85.303 C 253.868 84.476,254.187 82.540,254.453 81.000 C 255.320 75.983,254.949 60.786,253.944 60.166 C 253.755 60.049,253.600 59.344,253.600 58.600 C 253.600 57.856,253.420 57.136,253.200 57.000 C 252.980 56.864,252.800 56.234,252.800 55.600 C 252.800 54.966,252.620 54.336,252.400 54.200 C 252.180 54.064,252.000 53.646,252.000 53.270 C 252.000 51.997,245.647 40.165,244.445 39.200 C 244.308 39.090,243.659 38.280,243.004 37.400 C 241.484 35.358,236.272 30.159,234.195 28.612 C 233.318 27.959,232.251 27.104,231.825 26.712 C 231.398 26.320,230.813 26.000,230.525 26.000 C 230.236 26.000,230.000 25.820,230.000 25.600 C 230.000 25.380,229.823 25.200,229.608 25.200 C 229.392 25.200,228.231 24.570,227.027 23.800 C 225.823 23.030,224.560 22.400,224.219 22.400 C 223.879 22.400,223.600 22.220,223.600 22.000 C 223.600 21.780,223.328 21.600,222.995 21.600 C 222.662 21.600,222.032 21.420,221.595 21.200 C 219.666 20.229,219.303 20.086,218.091 19.820 C 217.386 19.665,216.706 19.372,216.581 19.169 C 216.455 18.966,215.823 18.800,215.176 18.800 C 214.529 18.800,214.000 18.620,214.000 18.400 C 214.000 18.180,213.111 18.000,212.024 18.000 C 210.937 18.000,209.953 17.847,209.837 17.661 C 209.722 17.474,207.687 17.217,205.314 17.090 C 202.941 16.963,200.730 16.779,200.400 16.681 C 200.070 16.583,198.990 16.646,198.000 16.822 M207.000 32.000 C 207.136 32.220,208.036 32.400,209.000 32.400 C 209.964 32.400,210.864 32.580,211.000 32.800 C 211.136 33.020,211.599 33.200,212.029 33.200 C 212.813 33.200,213.064 33.296,215.532 34.532 C 216.265 34.900,217.120 35.200,217.432 35.200 C 217.745 35.200,218.000 35.380,218.000 35.600 C 218.000 35.820,218.260 36.000,218.577 36.000 C 219.144 36.000,221.731 37.377,222.686 38.188 C 224.117 39.402,224.386 39.600,224.601 39.600 C 224.731 39.600,225.258 40.005,225.774 40.500 C 226.290 40.995,227.317 41.959,228.056 42.642 C 231.735 46.042,234.690 50.133,236.837 54.800 C 237.293 55.790,237.831 56.913,238.033 57.295 C 238.235 57.677,238.400 58.341,238.400 58.771 C 238.400 59.201,238.580 59.664,238.800 59.800 C 239.020 59.936,239.200 60.631,239.200 61.344 C 239.200 62.057,239.365 62.811,239.568 63.020 C 240.797 64.291,240.820 79.340,239.594 80.566 C 239.377 80.783,239.200 81.543,239.200 82.256 C 239.200 82.969,239.020 83.664,238.800 83.800 C 238.580 83.936,238.400 84.399,238.400 84.829 C 238.400 85.259,238.249 85.923,238.064 86.305 C 235.703 91.192,234.618 93.200,234.338 93.200 C 234.152 93.200,234.000 93.408,234.000 93.662 C 234.000 93.916,233.541 94.726,232.980 95.462 L 231.959 96.800 200.115 96.800 L 168.271 96.800 167.136 95.528 C 166.511 94.828,166.000 94.018,166.000 93.728 C 166.000 93.438,165.820 93.200,165.600 93.200 C 165.380 93.200,165.200 92.930,165.200 92.600 C 165.200 92.270,165.020 92.000,164.800 92.000 C 164.580 92.000,164.400 91.640,164.400 91.200 C 164.400 90.760,164.247 90.400,164.061 90.400 C 163.874 90.400,163.406 89.635,163.020 88.700 C 162.634 87.765,162.156 86.687,161.959 86.305 C 161.762 85.923,161.600 85.259,161.600 84.829 C 161.600 84.399,161.420 83.936,161.200 83.800 C 160.980 83.664,160.800 82.944,160.800 82.200 C 160.800 81.456,160.620 80.736,160.400 80.600 C 160.180 80.464,160.000 79.668,160.000 78.831 C 160.000 77.994,159.811 76.340,159.580 75.155 C 159.134 72.867,159.796 63.773,160.463 63.020 C 160.648 62.811,160.800 62.057,160.800 61.344 C 160.800 60.631,160.980 59.936,161.200 59.800 C 161.420 59.664,161.600 59.201,161.600 58.771 C 161.600 58.341,161.757 57.677,161.950 57.295 C 162.142 56.913,162.650 55.880,163.079 55.000 C 165.104 50.840,167.096 47.727,168.990 45.759 C 169.436 45.296,170.171 44.486,170.624 43.959 C 171.558 42.871,174.138 40.592,175.784 39.400 C 176.392 38.960,177.094 38.409,177.344 38.175 C 177.595 37.942,178.385 37.493,179.100 37.178 C 179.815 36.863,180.400 36.469,180.400 36.302 C 180.400 36.136,180.760 36.000,181.200 36.000 C 181.640 36.000,182.000 35.820,182.000 35.600 C 182.000 35.380,182.255 35.200,182.568 35.200 C 182.880 35.200,183.735 34.900,184.468 34.532 C 186.936 33.296,187.187 33.200,187.971 33.200 C 188.401 33.200,188.864 33.020,189.000 32.800 C 189.136 32.580,190.036 32.400,191.000 32.400 C 191.964 32.400,192.864 32.220,193.000 32.000 C 193.149 31.759,195.930 31.600,200.000 31.600 C 204.070 31.600,206.851 31.759,207.000 32.000 M323.600 111.800 C 323.874 112.130,324.190 113.214,324.302 114.209 C 324.414 115.204,324.662 116.115,324.853 116.233 C 325.044 116.351,325.200 117.146,325.200 118.000 C 325.200 118.854,325.380 119.664,325.600 119.800 C 325.820 119.936,326.000 120.847,326.000 121.824 C 326.000 122.801,326.180 123.600,326.400 123.600 C 326.620 123.600,326.800 124.322,326.800 125.205 C 326.800 126.088,326.974 127.123,327.187 127.505 C 327.696 128.419,328.800 133.006,328.800 134.209 C 328.800 134.728,328.980 135.264,329.200 135.400 C 329.420 135.536,329.600 136.346,329.600 137.200 C 329.600 138.054,329.780 138.864,330.000 139.000 C 330.220 139.136,330.400 139.921,330.400 140.744 C 330.400 141.567,330.562 142.411,330.759 142.620 C 330.956 142.829,331.210 143.720,331.323 144.600 C 331.435 145.480,331.834 147.280,332.208 148.600 C 332.582 149.920,332.977 151.720,333.085 152.600 C 333.193 153.480,333.444 154.371,333.641 154.580 C 333.838 154.789,334.000 155.633,334.000 156.456 C 334.000 157.279,334.180 158.064,334.400 158.200 C 334.620 158.336,334.800 159.247,334.800 160.224 C 334.800 161.201,334.980 162.000,335.200 162.000 C 335.420 162.000,335.600 162.561,335.600 163.246 C 335.600 163.932,335.889 165.417,336.243 166.546 C 337.437 170.361,337.600 171.054,337.600 172.305 C 337.600 172.991,337.780 173.664,338.000 173.800 C 338.220 173.936,338.400 174.746,338.400 175.600 C 338.400 176.454,338.580 177.264,338.800 177.400 C 339.020 177.536,339.200 178.447,339.200 179.424 C 339.200 180.401,339.350 181.200,339.533 181.200 C 339.716 181.200,340.083 182.235,340.348 183.500 C 340.613 184.765,341.014 186.610,341.240 187.600 C 341.467 188.590,341.749 190.120,341.867 191.000 C 341.985 191.880,342.244 192.771,342.441 192.980 C 342.638 193.189,342.800 194.008,342.800 194.800 C 342.800 195.592,342.962 196.411,343.159 196.620 C 343.356 196.829,343.610 197.720,343.723 198.600 C 343.835 199.480,344.229 201.280,344.597 202.600 C 345.430 205.583,345.987 208.120,346.267 210.200 C 346.385 211.080,346.644 211.971,346.841 212.180 C 347.038 212.389,347.200 213.233,347.200 214.056 C 347.200 214.879,347.380 215.664,347.600 215.800 C 347.820 215.936,348.000 216.678,348.000 217.450 C 348.000 218.221,348.213 219.246,348.474 219.726 C 348.734 220.207,349.094 221.365,349.274 222.300 C 349.453 223.235,349.792 224.855,350.026 225.900 C 350.260 226.945,350.549 228.520,350.667 229.400 C 350.785 230.280,351.044 231.171,351.241 231.380 C 351.438 231.589,351.600 232.534,351.600 233.480 C 351.600 234.426,351.780 235.200,352.000 235.200 C 352.220 235.200,352.400 235.809,352.400 236.554 C 352.400 237.299,352.669 238.424,352.998 239.054 C 353.326 239.684,353.596 240.774,353.598 241.476 C 353.599 242.178,353.780 242.864,354.000 243.000 C 354.220 243.136,354.400 244.036,354.400 245.000 C 354.400 245.964,354.580 246.864,354.800 247.000 C 355.020 247.136,355.200 247.946,355.200 248.800 C 355.200 249.654,355.380 250.464,355.600 250.600 C 355.820 250.736,356.000 251.521,356.000 252.344 C 356.000 253.167,356.166 254.011,356.369 254.220 C 356.740 254.602,357.482 257.699,357.874 260.503 C 357.990 261.329,358.245 262.105,358.442 262.226 C 358.639 262.348,358.800 263.247,358.800 264.224 C 358.800 265.201,358.980 266.000,359.200 266.000 C 359.420 266.000,359.600 266.799,359.600 267.776 C 359.600 268.753,359.780 269.664,360.000 269.800 C 360.220 269.936,360.400 270.746,360.400 271.600 C 360.400 272.454,360.575 273.261,360.788 273.393 C 361.002 273.525,361.296 274.530,361.441 275.625 C 361.587 276.721,361.862 277.715,362.053 277.833 C 362.244 277.951,362.400 278.721,362.400 279.544 C 362.400 280.367,362.562 281.211,362.759 281.420 C 362.956 281.629,363.231 282.610,363.369 283.600 C 363.986 288.037,364.103 288.622,364.441 288.980 C 364.638 289.189,364.800 289.842,364.800 290.431 C 364.800 291.020,365.070 292.149,365.400 292.938 C 365.730 293.728,366.000 294.909,366.000 295.564 C 366.000 296.218,366.180 296.864,366.400 297.000 C 366.620 297.136,366.800 297.946,366.800 298.800 C 366.800 299.654,366.980 300.464,367.200 300.600 C 367.420 300.736,367.600 301.647,367.600 302.624 C 367.600 303.601,367.780 304.400,368.000 304.400 C 368.220 304.400,368.400 305.122,368.400 306.005 C 368.400 306.888,368.574 307.923,368.787 308.305 C 369.296 309.219,370.400 313.806,370.400 315.009 C 370.400 315.528,370.580 316.064,370.800 316.200 C 371.020 316.336,371.200 317.146,371.200 318.000 C 371.200 318.854,371.380 319.664,371.600 319.800 C 371.820 319.936,372.000 320.847,372.000 321.824 C 372.000 322.801,372.180 323.600,372.400 323.600 C 372.620 323.600,372.800 324.374,372.800 325.320 C 372.800 326.266,372.961 327.211,373.158 327.420 C 373.568 327.855,374.377 331.040,374.678 333.400 C 374.790 334.280,375.044 335.171,375.241 335.380 C 375.438 335.589,375.600 336.433,375.600 337.256 C 375.600 338.079,375.780 338.864,376.000 339.000 C 376.220 339.136,376.400 340.036,376.400 341.000 C 376.400 341.964,376.580 342.864,376.800 343.000 C 377.020 343.136,377.200 343.707,377.200 344.270 C 377.200 344.832,377.489 346.217,377.843 347.346 C 379.037 351.161,379.200 351.854,379.200 353.105 C 379.200 353.791,379.380 354.464,379.600 354.600 C 379.820 354.736,380.000 355.546,380.000 356.400 C 380.000 357.254,380.180 358.064,380.400 358.200 C 380.620 358.336,380.800 359.247,380.800 360.224 C 380.800 361.201,380.939 362.000,381.108 362.000 C 381.367 362.000,382.252 365.503,382.523 367.600 C 382.591 368.132,362.046 368.211,200.056 368.300 L 17.512 368.401 17.775 366.900 C 17.919 366.075,18.137 364.635,18.259 363.700 C 18.381 362.765,18.642 362.000,18.840 362.000 C 19.038 362.000,19.200 361.201,19.200 360.224 C 19.200 359.247,19.380 358.336,19.600 358.200 C 19.820 358.064,20.000 357.279,20.000 356.456 C 20.000 355.633,20.162 354.789,20.359 354.580 C 20.556 354.371,20.811 353.480,20.925 352.600 C 21.270 349.933,21.984 347.056,22.404 346.636 C 22.622 346.418,22.800 345.567,22.800 344.744 C 22.800 343.921,22.980 343.136,23.200 343.000 C 23.420 342.864,23.600 341.964,23.600 341.000 C 23.600 340.036,23.780 339.136,24.000 339.000 C 24.220 338.864,24.400 338.079,24.400 337.256 C 24.400 336.433,24.562 335.589,24.759 335.380 C 24.956 335.171,25.210 334.280,25.322 333.400 C 25.562 331.521,26.345 328.493,26.847 327.505 C 27.041 327.123,27.200 326.189,27.200 325.429 C 27.200 324.669,27.380 323.936,27.600 323.800 C 27.820 323.664,28.000 322.764,28.000 321.800 C 28.000 320.836,28.180 319.936,28.400 319.800 C 28.620 319.664,28.800 318.854,28.800 318.000 C 28.800 317.146,28.980 316.336,29.200 316.200 C 29.420 316.064,29.600 315.418,29.600 314.764 C 29.600 314.109,29.870 312.928,30.200 312.138 C 30.530 311.349,30.800 310.195,30.800 309.575 C 30.800 308.955,30.980 308.336,31.200 308.200 C 31.420 308.064,31.600 307.254,31.600 306.400 C 31.600 305.546,31.780 304.736,32.000 304.600 C 32.220 304.464,32.400 303.564,32.400 302.600 C 32.400 301.636,32.561 300.748,32.758 300.626 C 32.955 300.505,33.210 299.729,33.326 298.903 C 33.718 296.099,34.460 293.002,34.831 292.620 C 35.034 292.411,35.200 291.592,35.200 290.800 C 35.200 290.008,35.362 289.189,35.559 288.980 C 35.756 288.771,36.015 287.880,36.133 287.000 C 36.360 285.309,36.548 284.427,38.493 275.927 C 38.779 274.677,39.145 273.522,39.306 273.360 C 39.468 273.199,39.600 272.387,39.600 271.557 C 39.600 270.727,39.780 269.936,40.000 269.800 C 40.220 269.664,40.400 268.854,40.400 268.000 C 40.400 267.146,40.580 266.336,40.800 266.200 C 41.020 266.064,41.200 265.342,41.200 264.595 C 41.200 263.849,41.362 262.824,41.560 262.319 C 41.758 261.813,42.228 259.960,42.605 258.200 C 42.982 256.440,43.450 254.687,43.645 254.305 C 43.840 253.923,44.000 252.989,44.000 252.229 C 44.000 251.469,44.180 250.736,44.400 250.600 C 44.620 250.464,44.800 249.679,44.800 248.856 C 44.800 248.033,44.962 247.189,45.159 246.980 C 45.356 246.771,45.614 245.880,45.731 245.000 C 46.154 241.813,46.887 238.800,47.240 238.800 C 47.438 238.800,47.600 237.990,47.600 237.000 C 47.600 236.010,47.780 235.200,48.000 235.200 C 48.220 235.200,48.400 234.426,48.400 233.480 C 48.400 232.534,48.562 231.589,48.759 231.380 C 48.956 231.171,49.215 230.280,49.333 229.400 C 49.451 228.520,49.730 226.990,49.953 226.000 C 50.175 225.010,50.561 223.210,50.809 222.000 C 51.058 220.790,51.428 219.629,51.631 219.420 C 51.834 219.211,52.000 218.367,52.000 217.544 C 52.000 216.721,52.180 215.936,52.400 215.800 C 52.620 215.664,52.800 214.879,52.800 214.056 C 52.800 213.233,52.962 212.389,53.159 212.180 C 53.356 211.971,53.615 211.080,53.733 210.200 C 54.141 207.164,55.652 201.014,56.100 200.566 C 56.265 200.402,56.400 199.497,56.400 198.557 C 56.400 197.617,56.580 196.736,56.800 196.600 C 57.020 196.464,57.200 195.654,57.200 194.800 C 57.200 193.946,57.380 193.136,57.600 193.000 C 57.820 192.864,58.000 192.191,58.000 191.505 C 58.000 190.254,58.163 189.561,59.357 185.746 C 59.711 184.617,60.000 183.132,60.000 182.446 C 60.000 181.761,60.180 181.200,60.400 181.200 C 60.620 181.200,60.800 180.401,60.800 179.424 C 60.800 178.447,60.980 177.536,61.200 177.400 C 61.420 177.264,61.600 176.479,61.600 175.656 C 61.600 174.833,61.762 173.989,61.959 173.780 C 62.156 173.571,62.411 172.680,62.525 171.800 C 62.870 169.133,63.584 166.256,64.004 165.836 C 64.222 165.618,64.400 164.677,64.400 163.744 C 64.400 162.811,64.580 161.936,64.800 161.800 C 65.020 161.664,65.200 160.854,65.200 160.000 C 65.200 159.146,65.380 158.336,65.600 158.200 C 65.820 158.064,66.000 157.279,66.000 156.456 C 66.000 155.633,66.162 154.789,66.359 154.580 C 66.556 154.371,66.810 153.480,66.922 152.600 C 67.162 150.721,67.945 147.693,68.447 146.705 C 68.641 146.323,68.800 145.299,68.800 144.429 C 68.800 143.559,68.980 142.736,69.200 142.600 C 69.420 142.464,69.600 141.654,69.600 140.800 C 69.600 139.946,69.780 139.136,70.000 139.000 C 70.220 138.864,70.400 138.054,70.400 137.200 C 70.400 136.346,70.561 135.548,70.758 135.426 C 70.955 135.305,71.196 134.529,71.295 133.703 C 71.514 131.860,72.370 128.446,72.847 127.505 C 73.041 127.123,73.200 126.088,73.200 125.205 C 73.200 124.322,73.380 123.600,73.600 123.600 C 73.820 123.600,74.000 122.826,74.000 121.880 C 74.000 120.934,74.162 119.989,74.359 119.780 C 74.556 119.571,74.811 118.680,74.925 117.800 C 75.275 115.094,75.975 112.313,76.448 111.743 C 77.163 110.880,322.884 110.938,323.600 111.800 M125.200 233.600 L 125.200 287.200 133.400 287.200 L 141.600 287.200 141.600 273.826 L 141.600 260.451 144.948 256.972 L 148.296 253.494 149.478 254.647 C 150.128 255.281,151.235 256.610,151.938 257.600 C 152.642 258.590,153.765 260.120,154.433 261.000 C 155.102 261.880,155.953 263.020,156.324 263.532 C 156.991 264.453,157.531 265.131,158.900 266.771 C 159.285 267.232,159.600 267.753,159.600 267.929 C 159.600 268.105,159.920 268.598,160.312 269.025 C 160.704 269.451,161.558 270.520,162.210 271.400 C 162.862 272.280,163.491 273.090,163.607 273.200 C 163.723 273.310,164.663 274.570,165.696 276.000 C 166.729 277.430,167.760 278.817,167.987 279.083 C 168.214 279.349,168.400 279.662,168.400 279.780 C 168.400 279.898,168.749 280.400,169.176 280.897 C 169.602 281.394,170.326 282.236,170.783 282.770 C 171.240 283.303,172.106 284.518,172.707 285.469 L 173.800 287.199 183.700 287.199 C 192.290 287.200,194.868 286.966,193.262 286.333 C 193.076 286.260,192.223 285.210,191.367 284.000 C 190.510 282.790,189.479 281.440,189.074 281.000 C 188.669 280.560,188.043 279.705,187.683 279.100 C 187.322 278.495,186.886 278.000,186.714 278.000 C 186.541 278.000,186.400 277.764,186.400 277.475 C 186.400 277.187,186.080 276.602,185.688 276.175 C 185.296 275.749,184.441 274.684,183.788 273.808 C 183.135 272.932,182.385 271.942,182.122 271.608 C 181.859 271.274,180.923 270.010,180.041 268.800 C 179.159 267.590,178.249 266.383,178.019 266.117 C 177.789 265.851,177.600 265.446,177.600 265.217 C 177.600 264.988,177.465 264.799,177.300 264.797 C 177.135 264.796,176.575 264.171,176.056 263.408 C 175.537 262.646,174.682 261.522,174.156 260.911 C 173.631 260.300,173.201 259.655,173.200 259.478 C 173.200 259.301,172.661 258.581,172.002 257.878 C 171.343 257.175,170.803 256.478,170.802 256.329 C 170.801 256.179,170.569 255.819,170.287 255.529 C 170.005 255.238,169.340 254.370,168.809 253.600 C 168.278 252.830,167.249 251.493,166.522 250.628 C 165.795 249.763,165.200 248.885,165.200 248.675 C 165.200 248.465,164.872 248.003,164.472 247.647 C 164.071 247.291,163.402 246.415,162.985 245.700 C 162.569 244.985,162.086 244.400,161.914 244.400 C 161.741 244.400,161.600 243.945,161.600 243.389 C 161.600 242.351,162.358 241.376,166.600 236.963 C 167.920 235.589,170.350 232.983,172.000 231.171 C 174.630 228.282,176.907 225.834,182.400 219.992 C 183.170 219.173,184.993 217.175,186.452 215.551 C 187.911 213.928,189.667 212.015,190.355 211.300 L 191.607 210.000 182.301 210.000 L 172.994 210.000 170.397 212.834 C 168.969 214.393,167.294 216.238,166.676 216.934 C 166.058 217.630,164.313 219.550,162.800 221.200 C 159.431 224.873,158.508 225.896,155.200 229.627 C 153.770 231.239,152.060 233.114,151.400 233.792 C 150.740 234.470,149.120 236.274,147.800 237.801 C 144.245 241.913,144.067 242.062,142.876 241.924 L 141.800 241.800 141.698 210.900 L 141.595 180.000 133.398 180.000 L 125.200 180.000 125.200 233.600 M228.300 209.094 C 226.595 209.171,225.200 209.406,225.200 209.617 C 225.200 209.828,224.694 210.000,224.075 210.000 C 223.456 210.000,222.017 210.450,220.877 211.000 C 219.737 211.550,218.623 212.000,218.402 212.000 C 218.181 212.000,218.000 212.136,218.000 212.302 C 218.000 212.469,217.434 212.855,216.742 213.162 C 213.766 214.479,205.600 224.013,205.600 226.170 C 205.600 226.517,205.420 226.800,205.200 226.800 C 204.980 226.800,204.800 227.162,204.800 227.605 C 204.800 228.048,204.635 228.723,204.433 229.105 C 204.232 229.487,203.771 230.880,203.410 232.200 C 203.049 233.520,202.584 234.913,202.377 235.295 C 202.169 235.677,202.000 236.971,202.000 238.171 C 202.000 239.371,201.820 240.464,201.600 240.600 C 201.360 240.749,201.200 243.463,201.200 247.400 C 201.200 251.337,201.360 254.051,201.600 254.200 C 201.820 254.336,202.000 255.357,202.000 256.470 C 202.000 258.308,202.781 261.525,203.656 263.295 C 203.845 263.677,204.000 264.341,204.000 264.771 C 204.000 265.201,204.180 265.664,204.400 265.800 C 204.620 265.936,204.800 266.487,204.800 267.024 C 204.800 267.561,204.980 268.000,205.200 268.000 C 205.420 268.000,205.600 268.267,205.600 268.592 C 205.600 268.918,206.247 270.195,207.037 271.431 C 210.346 276.603,214.147 280.231,218.400 282.274 C 222.760 284.369,223.878 284.800,224.960 284.800 C 225.532 284.800,226.000 284.980,226.000 285.200 C 226.000 285.450,228.392 285.600,232.376 285.600 C 236.196 285.600,238.852 285.440,239.000 285.200 C 239.136 284.980,239.680 284.800,240.210 284.800 C 241.071 284.800,242.923 284.148,244.895 283.151 C 245.277 282.958,245.862 282.800,246.195 282.800 C 246.528 282.800,246.800 282.620,246.800 282.400 C 246.800 282.180,247.025 282.000,247.300 282.000 C 247.768 281.999,248.800 281.215,251.200 279.037 C 252.695 277.680,254.160 275.930,255.024 274.467 C 255.692 273.337,255.981 273.179,257.197 273.282 L 258.600 273.400 258.591 281.200 C 258.578 292.513,257.838 295.427,254.023 299.206 C 245.845 307.305,226.045 306.028,221.357 297.100 L 220.779 296.000 212.790 296.000 L 204.800 296.000 204.800 297.576 C 204.800 298.443,204.980 299.264,205.200 299.400 C 205.420 299.536,205.600 300.087,205.600 300.624 C 205.600 301.161,205.780 301.600,206.000 301.600 C 206.220 301.600,206.400 301.792,206.400 302.027 C 206.400 302.261,206.850 303.043,207.400 303.764 C 207.950 304.486,208.400 305.213,208.400 305.381 C 208.400 305.803,211.954 309.082,213.300 309.902 C 213.905 310.271,214.400 310.714,214.400 310.886 C 214.400 311.059,214.760 311.200,215.200 311.200 C 215.640 311.200,216.000 311.380,216.000 311.600 C 216.000 311.820,216.191 312.000,216.425 312.000 C 216.798 312.000,220.111 313.429,222.095 314.444 C 222.477 314.640,223.206 314.800,223.715 314.800 C 224.224 314.800,224.811 314.963,225.020 315.163 C 225.951 316.053,246.122 316.838,246.944 316.016 C 247.173 315.787,248.213 315.600,249.256 315.600 C 250.299 315.600,251.264 315.420,251.400 315.200 C 251.536 314.980,252.267 314.800,253.024 314.800 C 253.781 314.800,254.400 314.620,254.400 314.400 C 254.400 314.180,254.733 314.000,255.140 314.000 C 255.548 314.000,256.727 313.550,257.762 313.000 C 258.796 312.450,259.903 312.000,260.221 312.000 C 260.540 312.000,260.800 311.864,260.800 311.698 C 260.800 311.531,261.385 311.137,262.100 310.822 C 262.815 310.507,263.601 310.058,263.846 309.825 C 264.092 309.591,265.142 308.680,266.180 307.800 C 267.217 306.920,268.625 305.390,269.307 304.400 C 269.989 303.410,270.651 302.510,270.777 302.400 C 270.904 302.290,271.366 301.480,271.804 300.600 C 272.242 299.720,272.735 298.940,272.900 298.867 C 273.065 298.793,273.200 298.244,273.200 297.647 C 273.200 297.049,273.362 296.389,273.559 296.180 C 274.396 295.294,274.521 290.182,274.661 251.100 L 274.807 210.000 266.804 210.000 L 258.800 210.000 258.800 216.200 L 258.800 222.400 257.600 222.400 C 256.940 222.400,256.400 222.199,256.400 221.954 C 256.400 220.815,252.759 216.492,250.200 214.592 C 249.320 213.939,248.510 213.311,248.400 213.196 C 247.811 212.581,242.189 210.000,241.439 210.000 C 240.956 210.000,240.389 209.843,240.180 209.650 C 239.725 209.231,232.636 208.900,228.300 209.094 M243.600 223.200 C 243.600 223.420,244.129 223.600,244.776 223.600 C 245.423 223.600,246.064 223.780,246.200 224.000 C 246.336 224.220,246.797 224.400,247.224 224.400 C 247.651 224.400,248.000 224.580,248.000 224.800 C 248.000 225.020,248.253 225.200,248.563 225.200 C 248.873 225.200,250.313 226.387,251.763 227.837 C 253.213 229.287,254.400 230.727,254.400 231.037 C 254.400 231.347,254.536 231.600,254.702 231.600 C 254.869 231.600,255.244 232.185,255.536 232.900 C 255.828 233.615,256.228 234.560,256.425 235.000 C 257.280 236.909,257.742 238.328,258.117 240.200 C 258.648 242.852,258.629 252.479,258.088 255.000 C 257.425 258.090,256.667 260.400,256.317 260.400 C 256.143 260.400,256.000 260.665,256.000 260.988 C 256.000 261.632,254.641 264.203,253.879 265.001 C 253.616 265.276,253.130 265.905,252.800 266.397 C 252.098 267.443,248.728 269.974,247.000 270.753 C 246.340 271.050,245.487 271.452,245.105 271.647 C 244.723 271.841,243.699 272.000,242.829 272.000 C 241.959 272.000,241.136 272.180,241.000 272.400 C 240.864 272.620,239.604 272.800,238.200 272.800 C 236.796 272.800,235.536 272.620,235.400 272.400 C 235.264 272.180,234.441 272.000,233.571 272.000 C 232.701 272.000,231.677 271.840,231.295 271.644 C 230.913 271.449,229.899 270.954,229.042 270.544 C 227.497 269.806,223.459 266.136,222.501 264.600 C 221.364 262.775,220.000 259.803,220.000 259.149 C 220.000 258.763,219.820 258.336,219.600 258.200 C 219.380 258.064,219.200 257.254,219.200 256.400 C 219.200 255.546,219.020 254.736,218.800 254.600 C 218.559 254.451,218.400 251.670,218.400 247.600 C 218.400 243.530,218.559 240.749,218.800 240.600 C 219.020 240.464,219.200 239.654,219.200 238.800 C 219.200 237.946,219.380 237.136,219.600 237.000 C 219.820 236.864,220.000 236.223,220.000 235.576 C 220.000 234.929,220.180 234.400,220.400 234.400 C 220.620 234.400,220.800 234.145,220.800 233.832 C 220.800 233.119,222.098 230.806,222.500 230.803 C 222.665 230.801,222.800 230.607,222.800 230.371 C 222.800 230.136,223.066 229.677,223.391 229.352 C 223.716 229.027,224.211 228.446,224.491 228.062 C 225.618 226.516,230.256 223.600,231.589 223.600 C 232.009 223.600,232.464 223.420,232.600 223.200 C 232.745 222.965,235.071 222.800,238.224 222.800 C 241.541 222.800,243.600 222.953,243.600 223.200 " stroke="none" fill="#000000" fill-rule="evenodd"></path></g></svg>